<svg width="33" height="33" viewBox="0 0 33 33" fill="none" xmlns="http://www.w3.org/2000/svg">
<path fill-rule="evenodd" clip-rule="evenodd" d="M10.5844 1.81595C12.3096 3.54105 12.805 6.02951 12.0721 8.19361L17.0471 13.1686L15.9349 14.5015L13.0816 11.6483C12.6875 11.2542 12.0425 11.2542 11.6484 11.6483C11.2543 12.0425 11.2543 12.6874 11.6484 13.0815L14.6312 16.0644L13.519 17.3973L8.19379 12.0719C6.02973 12.8051 3.54112 12.3091 1.81613 10.5844C-0.605378 8.16306 -0.605378 4.23728 1.81613 1.81595C4.23731 -0.60537 8.16306 -0.60537 10.5844 1.81595ZM21.2444 17.3656L24.8066 20.9282C26.9707 20.1954 29.4595 20.6906 31.1843 22.4157C32.7604 23.9917 33.3099 26.2046 32.8347 28.2255L29.2638 24.6545L27.4459 25.1414L25.6288 25.6284L25.1415 27.446L24.6546 29.2635L28.2255 32.8345C26.2047 33.3099 23.9919 32.7599 22.4158 31.1841C20.6911 29.4591 20.1955 26.9707 20.9283 24.8065L17.3356 21.2141L18.5677 20.0008L19.2647 20.6977C19.6588 21.0919 20.3038 21.0919 20.6979 20.6977C21.092 20.3036 21.092 19.6587 20.6979 19.2642L20.0122 18.5789L21.2444 17.3656ZM8.86147 8.86117L7.04374 9.34808L5.22639 9.83536L3.89568 8.50476L2.56516 7.17417L3.05203 5.35666L3.53908 3.53917L5.35681 3.05188L7.17416 2.56498L8.50487 3.89558L9.83535 5.22617L9.34834 7.04367L8.86147 8.86117Z" fill="#27AAE1"/>
<path fill-rule="evenodd" clip-rule="evenodd" d="M10.5843 31.1839C12.3093 29.4589 12.805 26.9703 12.0721 24.8061L24.8065 12.0717C26.9708 12.8043 29.4593 12.3089 31.1843 10.5838C32.76 9.00814 33.3099 6.79513 32.8347 4.77429L29.2637 8.34529L27.4459 7.85847L25.6285 7.37127L25.1417 5.55387L24.6545 3.7361L28.2255 0.165104C26.2047 -0.310078 23.9917 0.239796 22.416 1.81548C20.6909 3.54054 20.1955 6.02906 20.9281 8.19327L8.19372 20.9278C6.02969 20.1948 3.54107 20.6906 1.81612 22.4153C-0.605209 24.8368 -0.605209 28.7625 1.81612 31.1839C4.23725 33.6052 8.16302 33.6052 10.5843 31.1839ZM13.0816 21.3512L20.6977 13.7356C21.0918 13.3411 21.0918 12.6962 20.6977 12.3021C20.3036 11.908 19.6587 11.908 19.2646 12.3021L11.6484 19.9182C11.2543 20.3123 11.2543 20.9575 11.6484 21.3512C12.0425 21.7457 12.6875 21.7457 13.0816 21.3512ZM8.86123 24.1385L7.04368 23.6515L5.22631 23.1645L3.89565 24.4952L2.56496 25.8257L3.05196 27.6432L3.53901 29.4608L5.35674 29.9478L7.17411 30.4349L8.50481 29.1042L9.83531 27.7738L9.34827 25.9561L8.86123 24.1385Z" fill="#87ED82"/>
<path fill-rule="evenodd" clip-rule="evenodd" d="M5.60681 8.41516L7.82186 7.82152L8.41532 5.60648L6.7938 3.98506L4.57875 4.5787L3.98529 6.79375L5.60681 8.41516Z" fill="#87ED82"/>
<path fill-rule="evenodd" clip-rule="evenodd" d="M29.033 7.48315L31.0627 5.45303L30.3197 2.68027L27.5466 1.93727L25.5168 3.9674L26.2598 6.74016L29.033 7.48315Z" fill="#27AAE1"/>
</svg>
