<svg width="31" height="41" viewBox="0 0 31 41" fill="none" xmlns="http://www.w3.org/2000/svg">
<path fill-rule="evenodd" clip-rule="evenodd" d="M14.1816 0.531307C13.9212 1.91538 14.141 1.79328 14.6578 2.55872C14.4907 3.36475 13.4162 6.61724 13.107 7.17906L10.7333 4.87092C11.8652 2.72141 9.08862 2.02531 8.44952 3.37286C8.25814 4.96868 8.5472 4.85063 9.52018 5.35527V8.669C9.07641 8.56719 8.2826 8.18059 7.75335 7.96073L5.88474 7.31776C5.7097 6.19007 5.62017 5.35527 4.43549 5.40433C3.05949 5.45708 2.75826 7.37863 3.83298 7.89138C4.26856 8.09907 3.60501 7.794 4.24824 8.0098L4.67973 8.20088C4.99723 8.52255 7.71262 15.4798 7.93248 16.3552L5.54282 15.8911L6.26743 21.8715C6.41804 22.8768 6.49134 22.6573 8.22966 23.5651L8.21745 29.7612C6.91066 30.453 5.19676 31.8778 5.59974 33.6245C5.7097 34.113 5.95395 34.3489 6.4466 34.4222C6.65823 34.4509 6.91066 34.4427 7.11827 34.4061C7.96103 34.2473 8.74263 33.4413 9.18641 32.6881C9.97207 31.3649 9.66268 29.248 9.66677 27.2779C10.0535 27.5016 10.4402 27.636 10.7496 27.8274L10.774 32.8185C10.6682 33.4169 10.5908 33.0911 9.79297 33.6245C8.62049 34.4061 7.54574 36.8772 8.58387 37.5815C9.4917 38.1921 12.2316 37.1498 12.2276 33.4902L12.2233 27.7742C12.4797 27.0987 13.5383 26.5247 14.0104 26.024C16.7258 26.0118 16.4366 25.7431 17.5809 26.7362C18.924 27.9007 18.5293 27.8436 18.5253 31.3039C18.5212 33.4248 18.2446 35.0655 19.4984 36.5679C20.1333 37.329 20.6667 37.8175 22.1039 37.7076C23.3087 36.2378 22.0179 34.4021 21.0614 33.6611C19.6733 32.5782 19.9459 33.938 19.9746 28.4463L19.9787 27.8235L21.1348 27.1392C21.2163 29.5371 20.7685 31.7478 22.0954 33.307C25.0063 36.7145 27.0256 31.8778 22.6 29.7979V23.573L24.3958 22.7181L25.2996 15.8505C24.8148 15.8952 25.0513 15.8708 24.7134 15.9605L22.8162 16.4448L26.0609 8.05038C27.628 7.92016 27.9209 6.4505 27.0053 5.69723C26.6264 5.38367 25.9956 5.28629 25.4704 5.60353C24.8801 5.95803 24.8923 6.39738 24.8436 7.26464C23.9395 7.60254 21.9574 8.28646 21.3218 8.70589L21.2853 5.41651C21.721 5.00925 22.1769 5.00114 22.2787 4.22758C22.6 1.79328 18.4928 2.4488 19.9702 4.9115L17.6174 7.18718L16.0825 2.55872C16.4532 1.67118 16.7092 2.22894 16.5632 0.645298C16.2253 -0.120148 15.3418 0.0100708 14.67 0.00601196L14.1816 0.531307ZM6.65417 9.06408L10.8596 10.7861L10.9002 7.12225L13.6563 9.65024C14.1123 9.18213 14.324 8.17248 14.6051 7.32588C14.8449 6.60913 15.13 5.61165 15.4233 4.97679L16.9498 9.65024L19.8038 7.02855L19.8688 10.6924C21.0736 10.5378 22.8405 9.52409 24.0616 9.12938L21.4318 15.9317L16.1231 14.4215L16.0987 13.2122L20.9149 14.5882L21.1997 13.3266C19.7223 12.6589 19.9012 12.8869 18.2851 12.3656C14.5601 11.1727 15.1625 11.5556 10.3669 12.9802C10.3221 12.9924 9.98834 13.0901 9.97207 13.0983C9.46319 13.3141 9.83362 13.1433 9.58938 13.3181C9.66268 14.043 9.66268 14.0714 9.97613 14.5192L14.6128 13.2248L14.6944 14.5517C13.8437 14.4539 10.717 15.6388 9.36956 15.9439L6.65417 9.06408ZM7.18744 17.723L8.18893 17.955L8.2256 21.8797C7.4195 21.6351 7.61092 21.0246 7.48059 20.0478C7.39103 19.3638 7.20787 18.4232 7.18744 17.723ZM22.7509 21.8549C22.641 21.6923 22.6613 21.8999 22.6045 21.5377L22.6166 18.0244L23.5569 17.7392C23.5532 18.2321 23.3496 21.375 22.9626 21.7535L22.7509 21.8549ZM11.2951 26.4514L9.68301 25.5517L9.65862 17.3486C10.2122 17.1612 14.9102 15.7325 15.3418 15.7325C15.7811 15.7284 20.76 17.1981 21.1551 17.3892V25.3969L19.4291 26.4432L17.4426 24.6969L13.2612 24.648L11.2951 26.4514Z" fill="#27AAE1"/>
<path fill-rule="evenodd" clip-rule="evenodd" d="M4.79358 31.4994C5.0867 30.9254 5.35127 30.7221 5.48563 30.1277C3.54373 27.2414 1.53677 25.6046 1.59377 20.2066C1.6711 12.9969 6.01488 12.4108 4.34167 10.3671C4.06891 10.0291 4.39465 10.3344 4.01195 10.0535C1.6141 13.5055 -0.11607 15.6347 0.00608493 21.0575C0.0590271 23.3576 0.677812 25.4215 1.50423 27.1433C2.2085 28.6052 3.63334 30.9093 4.79358 31.4994Z" fill="#27AAE1"/>
<path fill-rule="evenodd" clip-rule="evenodd" d="M26.1134 31.3938C28.5396 30.0422 30.6688 24.6277 30.746 21.0532C30.8275 17.2226 29.1502 11.6899 26.618 10.0901C24.5093 12.5896 29.4393 12.8827 29.2156 21.0575C29.069 26.5493 25.4906 29.4517 25.4008 30.1521C25.3519 30.5386 25.4173 30.6851 25.8038 31.1047C26.0196 31.345 25.8771 31.2146 26.1134 31.3938Z" fill="#27AAE1"/>
<path fill-rule="evenodd" clip-rule="evenodd" d="M12.4146 36.9262C12.2803 37.0278 12.2436 37.0605 12.1377 37.1582L11.6329 37.6955C11.4945 37.8503 11.3845 37.9807 11.2584 38.1718C10.7617 38.9494 10.3139 40.6795 11.4905 40.9565C12.6344 41.2291 13.6642 40.1544 14.0675 39.5966C15.2277 37.9929 14.8613 35.367 14.857 32.8187C14.853 30.3881 15.2032 29.6676 14.1814 29.6026C13.6929 29.5739 13.5586 29.6881 13.4325 29.8831C13.2084 30.2294 13.3305 35.8149 13.3305 36.3483L12.4146 36.9262Z" fill="#87ED82"/>
<path fill-rule="evenodd" clip-rule="evenodd" d="M15.9887 29.7327C15.8831 32.0982 15.887 34.9924 15.9564 37.3658C16.0131 39.2913 17.7555 41.6525 19.783 40.7815C20.9392 37.8625 17.5033 36.5516 17.4218 36.1813L17.3974 29.7409L15.9887 29.7327Z" fill="#87ED82"/>
<path fill-rule="evenodd" clip-rule="evenodd" d="M15.4678 22.3764C14.1446 22.3764 14.2872 22.2665 14.2994 23.8056L16.8966 23.8095L16.921 20.0274L20.308 20.0152C20.6621 18.1019 20.4951 18.4438 15.5166 18.521L15.4678 22.3764Z" fill="#27AAE1"/>
<path fill-rule="evenodd" clip-rule="evenodd" d="M10.4359 19.9297L14.405 19.9542L14.3928 18.5132L10.4766 18.5171L10.4359 19.9297Z" fill="#27AAE1"/>
<path fill-rule="evenodd" clip-rule="evenodd" d="M13.8271 28.6009L16.8683 28.6131L16.925 27.0866L13.8476 27.0949L13.8271 28.6009Z" fill="#27AAE1"/>
</svg>
