<svg width="30" height="36" viewBox="0 0 30 36" fill="none" xmlns="http://www.w3.org/2000/svg">
<path fill-rule="evenodd" clip-rule="evenodd" d="M12.513 2.27066C10.5675 5.02094 7.34517 9.59723 0.318744 11.6375C0.130583 12.4944 -0.443627 15.7167 0.652602 19.8297C1.82712 24.2341 5.21147 30.6015 14.6555 35.9999C24.1244 30.5841 27.5099 24.1993 28.6757 19.7774C29.7644 15.6732 29.19 12.4932 28.9933 11.6363C21.9734 9.59843 18.7434 5.01327 16.7979 2.27066C15.9409 1.0538 15.1949 -0.000106812 14.6468 -0.000106812C14.116 -0.000106812 13.37 1.0538 12.513 2.27066ZM18.1942 6.3672C20.7987 9.33195 23.8591 11.3895 27.5437 12.6487C27.698 12.7 27.809 12.8368 27.8351 13C28.1351 15.3393 27.7155 18.0559 27.2609 19.6676C26.4213 22.6931 24.8009 25.538 22.4704 28.1339C20.4649 30.3622 17.9203 32.4188 14.886 34.2436C14.8175 34.286 14.7403 34.3034 14.6631 34.3034C14.5858 34.3034 14.5086 34.286 14.4401 34.2436C11.4071 32.4188 8.86116 30.3612 6.85579 28.1339C4.51655 25.537 2.90485 22.692 2.06529 19.6676C1.61071 18.057 1.19092 15.3404 1.49108 13C1.50848 12.8368 1.6281 12.7 1.78252 12.6487C5.46704 11.3895 8.52731 9.33195 11.1319 6.3672C12.0998 5.26129 12.9491 4.0878 13.7289 2.97422C13.7637 2.92318 13.8061 2.86327 13.8572 2.78611C13.9855 2.60663 14.14 2.37514 14.3118 2.14342C14.389 2.03247 14.526 1.96393 14.6631 1.96393C14.8001 1.96393 14.9284 2.03247 15.0143 2.14342C15.1862 2.37514 15.3395 2.598 15.4689 2.78611L15.5972 2.97422C16.3781 4.0878 17.2177 5.26129 18.1942 6.3672Z" fill="#87ED82"/>
<path fill-rule="evenodd" clip-rule="evenodd" d="M11.7757 6.94151C9.12762 9.95838 6.03364 12.0659 2.31543 13.3776C2.09249 15.5285 2.48725 17.9625 2.89834 19.436C4.39803 24.8181 8.35765 29.5053 14.6554 33.3704C20.963 29.5053 24.9216 24.8181 26.4213 19.4447C26.8323 17.9712 27.2183 15.5285 27.0043 13.3862C23.2849 12.0659 20.1909 9.95838 17.5438 6.95032C16.55 5.81925 15.6842 4.61968 14.8871 3.48883L14.7501 3.29194C14.724 3.24944 14.6903 3.20606 14.6641 3.16356L14.5782 3.29194L14.4412 3.48883C13.6354 4.61109 12.7784 5.80185 11.7757 6.94151ZM20.3801 12.5119L19.3349 15.4004C19.2838 15.5373 19.172 15.6406 19.035 15.6743L18.341 15.8538C18.2637 16.2225 18.1268 16.6336 17.9387 17.0707C18.2301 17.3534 18.7359 17.8852 19.1642 18.6128L19.756 18.6813L21.5557 16.925C21.7277 16.7618 22.0016 16.7618 22.1637 16.9336C22.3267 17.1055 22.3267 17.3795 22.1549 17.5416L20.2006 19.4436C20.1235 19.5209 20.0126 19.5633 19.9005 19.5633C19.8831 19.5633 19.8657 19.5633 19.8494 19.5633L19.6177 19.5372C20.0288 20.5823 20.0973 21.6535 19.832 22.6997L20.2343 22.803C20.3715 22.8378 20.4834 22.94 20.5345 23.077L21.6057 26.0253C21.6918 26.2482 21.5709 26.4962 21.3491 26.5821C21.298 26.5995 21.2458 26.6082 21.2033 26.6082C21.024 26.6082 20.8609 26.4972 20.801 26.3254L19.8071 23.5914L19.558 23.5316C18.7011 25.9307 16.8327 27.414 14.6652 27.414C12.4978 27.414 10.6295 25.9231 9.77251 23.5316L9.52348 23.5914L8.52949 26.3254C8.46968 26.5049 8.29784 26.6082 8.1271 26.6082C8.07598 26.6082 8.02379 26.5995 7.98137 26.5821C7.75844 26.4962 7.63881 26.2482 7.72472 26.0253L8.79592 23.077C8.84703 22.94 8.95906 22.8367 9.09609 22.803L9.49846 22.6997C9.23311 21.6546 9.30162 20.5834 9.71269 19.5372L9.48106 19.5633C9.46366 19.5633 9.44627 19.5633 9.42995 19.5633C9.31902 19.5633 9.20701 19.5209 9.1298 19.4436L7.17553 17.5416C7.00371 17.3785 7.00371 17.1044 7.16683 16.9336C7.32995 16.7618 7.60402 16.7618 7.77476 16.925L9.57459 18.6813L10.1662 18.6128C10.6034 17.8841 11.1004 17.3534 11.3918 17.0707C11.2037 16.6336 11.0743 16.231 10.9894 15.8538L10.2956 15.6743C10.1586 15.6395 10.0466 15.5373 9.99546 15.4004L8.94164 12.5119C8.86443 12.2888 8.97646 12.0408 9.19831 11.9549C9.42125 11.869 9.6692 11.9897 9.75511 12.2117L10.723 14.8859L10.9024 14.9282C10.9198 14.5595 11.0134 14.2431 11.1852 13.968C11.4854 13.5047 11.9312 13.3078 12.2564 13.2307C12.2564 13.1197 12.2477 12.999 12.239 12.8794C12.2042 12.3139 12.1705 11.62 12.7447 11.0199L12.4271 10.651C12.3586 10.5739 12.3162 10.4629 12.3238 10.3596L12.3662 8.53484C12.3749 8.29436 12.5718 8.10629 12.8121 8.11509C13.0525 8.12368 13.2406 8.32056 13.2319 8.56083L13.1971 10.2237L13.4537 10.5239C13.7452 10.3693 14.1052 10.2411 14.5424 10.1216C14.6196 10.1042 14.6881 10.1042 14.7653 10.1216C15.2025 10.2411 15.5624 10.3781 15.8538 10.5239L16.1106 10.2237L16.0758 8.56083C16.067 8.32056 16.2553 8.12368 16.4956 8.11509C16.7358 8.11509 16.9327 8.29436 16.9415 8.53484L16.9838 10.3596C16.9838 10.4706 16.949 10.5739 16.8805 10.651L16.5629 11.0199C17.1459 11.62 17.1023 12.3139 17.0686 12.8794C17.06 12.999 17.0512 13.1197 17.0512 13.2307C17.3765 13.3078 17.831 13.5047 18.1224 13.968C18.2944 14.2334 18.3877 14.5595 18.4051 14.9282L18.5846 14.8859L19.5525 12.2117C19.6298 11.9886 19.8778 11.869 20.1092 11.9549C20.3453 12.0322 20.4574 12.2802 20.3801 12.5119Z" fill="#27AAE1"/>
<path fill-rule="evenodd" clip-rule="evenodd" d="M14.0985 12.9917C13.8581 12.9917 13.6612 12.7948 13.6612 12.5545V12.0315C13.6612 11.791 13.8581 11.5943 14.0985 11.5943C14.3388 11.5943 14.5357 11.791 14.5357 12.0315V12.5545C14.5269 12.7948 14.3378 12.9917 14.0985 12.9917ZM15.2208 12.9917C14.9804 12.9917 14.7835 12.7948 14.7835 12.5545V12.0315C14.7835 11.791 14.9804 11.5943 15.2208 11.5943C15.4611 11.5943 15.6579 11.791 15.6579 12.0315V12.5545C15.6579 12.7948 15.4611 12.9917 15.2208 12.9917ZM13.1132 12.8286C13.1306 13.1026 13.148 13.3942 13.0958 13.6856C13.061 13.8911 12.8815 14.0456 12.6673 14.0456C12.6499 14.0456 12.1616 14.063 11.9136 14.4479C11.6222 14.9188 11.7593 15.8192 12.3073 16.9927C12.3933 17.1721 12.3421 17.3864 12.1878 17.5157C12.179 17.5245 11.4167 18.1497 10.8337 19.1787L10.8076 19.221L10.7989 19.2384C10.1388 20.4379 10.0105 21.6549 10.4303 22.8457C10.439 22.8544 10.439 22.8718 10.439 22.8805C10.4738 22.9751 10.5075 23.0599 10.5423 23.1545L10.551 23.1806C10.9534 24.3464 11.6309 25.2632 12.4618 25.8461C12.2388 24.7238 12.1192 23.4123 12.1192 22.067C12.1192 18.4761 12.9849 14.8339 14.639 14.8339C16.2931 14.8339 17.1588 18.4761 17.1588 22.067C17.1588 23.4123 17.0391 24.7238 16.8162 25.8461C17.6471 25.2632 18.3245 24.3464 18.727 23.1806L18.7356 23.1545C18.778 23.0599 18.8128 22.9664 18.8465 22.8718V22.8631C19.9004 19.8462 17.1326 17.5495 17.0978 17.5245C16.9433 17.3962 16.8923 17.1819 16.9781 17.0014C17.5263 15.8268 17.6633 14.9188 17.3643 14.4565C17.1152 14.0705 16.6182 14.063 16.6182 14.063C16.4127 14.063 16.2322 13.9085 16.1898 13.703C16.1387 13.4116 16.155 13.12 16.1724 12.846C16.2072 12.2979 16.2322 11.8434 15.7177 11.466C15.6829 11.4486 15.6579 11.4311 15.6232 11.4061L15.6145 11.3975C15.3829 11.2518 15.0577 11.1147 14.6118 10.9863C14.1659 11.1147 13.8407 11.2518 13.6091 11.3975L13.6004 11.4061C13.5743 11.4323 13.5405 11.4486 13.5057 11.466C13.0522 11.826 13.0784 12.2805 13.1132 12.8286Z" fill="#27AAE1"/>
<path fill-rule="evenodd" clip-rule="evenodd" d="M14.6554 15.6908C14.3813 15.6908 13.9528 16.214 13.5929 17.3786C13.2068 18.6216 13.0012 20.2834 13.0012 22.0571C13.0012 23.634 13.1731 25.151 13.4808 26.3419C13.7212 26.4191 13.9691 26.4789 14.2269 26.505V20.0093C14.2269 19.769 14.4238 19.5721 14.664 19.5721C14.9045 19.5721 15.1012 19.769 15.1012 20.0093V26.505C15.358 26.4789 15.607 26.4191 15.8473 26.3419C16.1561 25.151 16.3269 23.634 16.3269 22.0571C16.3269 20.2834 16.1127 18.6206 15.7353 17.3786C15.3666 16.2052 14.9294 15.6908 14.6554 15.6908Z" fill="#27AAE1"/>
</svg>
