<svg width="48" height="30" viewBox="0 0 48 30" fill="none" xmlns="http://www.w3.org/2000/svg">
<path d="M9.9066 12.7754L5.21176 26.9228L5.15502 27.0931C5.15285 27.0931 5.15285 27.0953 5.15285 27.0975C4.94994 27.573 4.47656 27.9068 3.92679 27.9068C3.62793 27.9068 3.35087 27.8085 3.12835 27.6408C3.1 27.6188 3.07164 27.5949 3.04545 27.5708C1.18456 26.0263 0 23.6943 0 21.085C0 16.4253 3.77626 12.649 8.436 12.649C8.93787 12.649 9.4286 12.6926 9.9066 12.7754Z" fill="#167FAC"/>
<path d="M20.2144 7.86711L13.4798 28.1535L13.4362 28.2843C13.4339 28.2906 13.4339 28.2973 13.4295 28.304C13.4276 28.3081 13.4253 28.3148 13.4231 28.3212C13.4187 28.3365 13.4101 28.354 13.4056 28.3692C13.1176 29.0455 12.448 29.519 11.669 29.519H8.43594C7.07259 29.519 5.78543 29.196 4.64666 28.6222C4.10346 28.3498 3.59513 28.0201 3.1283 27.6408C3.35081 27.8085 3.62787 27.9068 3.92674 27.9068C4.4765 27.9068 4.94988 27.573 5.1528 27.0975C5.1528 27.0953 5.15279 27.0931 5.15496 27.0931C5.17679 27.0387 5.19643 26.9817 5.2117 26.9228L9.90654 12.7754L10.6264 10.6069C11.6756 7.44162 15.092 5.72916 18.2553 6.7784C18.9949 7.02472 19.6514 7.39803 20.2144 7.86711Z" fill="#1D91C2"/>
<path d="M47.3506 21.1579C47.3506 24.0971 45.846 26.687 43.5642 28.1977C43.4783 28.2534 43.3882 28.3094 43.3004 28.3654C42.0214 29.1448 40.5368 29.5184 39.0382 29.5184H26.2136C27.2088 29.5184 28.0559 28.8908 28.3856 28.0118C28.4015 27.9657 28.4155 27.9218 28.4295 27.876L30.4978 21.6556L31.8405 17.605C32.392 15.9406 33.489 14.6116 34.8717 13.7524C34.8797 13.7485 34.8857 13.7444 34.8959 13.7406C35.8888 13.2009 36.9979 12.8533 38.1808 12.7534C38.4246 12.7314 38.6684 12.7213 38.9163 12.7213C39.1362 12.7213 39.3538 12.7295 39.5696 12.7474C39.8353 12.7674 40.1011 12.7992 40.3589 12.8431C44.3292 13.5286 47.3506 16.9876 47.3506 21.1579Z" fill="#27AAE1"/>
<path d="M39.9414 10.0579C39.9414 10.921 39.8274 11.7984 39.5916 12.6656C39.5856 12.6936 39.5795 12.7213 39.5697 12.7474C39.3539 12.7295 39.1362 12.7213 38.9163 12.7213C38.6684 12.7213 38.4246 12.7314 38.1809 12.7534C36.9979 12.8533 35.8889 13.2009 34.896 13.7406C34.8858 13.7444 34.8797 13.7485 34.8718 13.7524C33.489 14.6116 32.392 15.9406 31.8405 17.605L30.4979 21.6556L28.4296 27.876C28.4156 27.9218 28.4016 27.9657 28.3857 28.0118C28.056 28.8908 27.2088 29.5184 26.2137 29.5184H11.4689C12.2479 29.5184 12.9175 29.0449 13.2052 28.3695C13.2112 28.3533 13.2192 28.3374 13.2233 28.3215C13.2253 28.3154 13.2272 28.3075 13.2291 28.3034C13.2351 28.2976 13.2351 28.2916 13.2373 28.2836L13.279 28.1535L20.0153 7.86775L20.3389 6.89074C22.0893 1.61938 27.7782 -1.2343 33.0495 0.514441C37.2678 1.91503 39.9414 5.84149 39.9414 10.0579Z" fill="#87ED82"/>
</svg>
