<svg width="61" height="28" viewBox="0 0 61 28" fill="none" xmlns="http://www.w3.org/2000/svg">
<path d="M27.147 9.07431L27.1452 9.07312C27.5494 8.29842 27.7804 7.42043 27.7804 6.48664C27.7804 3.39558 25.2747 0.890434 22.1836 0.890434C21.1394 0.890434 20.1646 1.18191 19.3282 1.67997L19.3228 1.67463L5.47095 8.226L19.7354 22.5878L27.0817 9.19303L27.1214 9.12121L27.147 9.07431Z" fill="#27AAE1"/>
<path d="M27.1469 9.07436L27.6551 8.34299L27.6533 8.3418L27.1451 9.07317L27.9347 9.48515C28.4019 8.58994 28.6714 7.5677 28.6708 6.48669C28.6702 2.90351 25.7662 0.000623703 22.1836 3.05176e-05C20.9725 -0.000562668 19.8381 0.339006 18.8729 0.914833L19.3282 1.68002L19.939 1.03237L19.9337 1.02702C19.6677 0.775915 19.2723 0.713589 18.9417 0.869717L5.0898 7.42107C4.82919 7.54455 4.64338 7.78794 4.59351 8.07229C4.54365 8.35664 4.63567 8.64872 4.83929 8.85353L19.1038 23.2154C19.3008 23.4142 19.5828 23.5086 19.8601 23.4694C20.1367 23.4308 20.3819 23.2617 20.516 23.0165L27.8623 9.62109L27.8593 9.62585L27.8997 9.554L27.9038 9.5457L27.9294 9.4988C28.146 9.09928 28.0279 8.60182 27.6551 8.34299L27.1469 9.07436L26.3639 8.6493L26.3402 8.69383L26.3034 8.76032L26.3004 8.76507L19.5276 21.1151L6.99062 8.49259L19.7033 2.47965L19.3228 1.67467L18.7114 2.32234L18.7173 2.32767C19.0064 2.60075 19.4415 2.64824 19.7835 2.44462C20.4911 2.02432 21.3056 1.78094 22.1836 1.78094C23.486 1.78094 24.6566 2.3063 25.5115 3.15936C26.3645 4.0136 26.8899 5.18426 26.8899 6.48669C26.8899 7.27267 26.6964 8.0076 26.3556 8.66119C26.1478 9.05892 26.2684 9.54808 26.637 9.80453L26.6388 9.80571L27.1469 9.07436Z" fill="black"/>
<path d="M21.5146 16.7981C21.5146 22.4934 16.8967 27.1096 11.2026 27.1096C5.5078 27.1096 0.890503 22.4934 0.890503 16.7981C0.890503 11.1033 5.5078 6.48664 11.2026 6.48664C16.8967 6.48664 21.5146 11.1033 21.5146 16.7981Z" fill="#27AAE1"/>
<path d="M21.5146 16.7981H20.6241C20.6235 19.403 19.5704 21.752 17.8643 23.4599C16.1564 25.166 13.8068 26.2185 11.2025 26.2191C8.59822 26.2185 6.24861 25.166 4.54072 23.4599C2.83402 21.752 1.7815 19.403 1.78091 16.7981C1.7815 14.1938 2.83402 11.8442 4.54072 10.1363C6.24861 8.43019 8.59822 7.37767 11.2025 7.37708C13.8068 7.37767 16.1564 8.43019 17.8643 10.1363C19.5704 11.8442 20.6235 14.1938 20.6241 16.7981H21.5146H22.405C22.4044 10.6106 17.3888 5.59676 11.2025 5.59617C5.01563 5.59676 0.000593636 10.6106 0 16.7981C0.000593636 22.9855 5.01563 27.9994 11.2025 28C17.3888 27.9994 22.4044 22.9855 22.405 16.7981H21.5146Z" fill="black"/>
<path d="M18.0632 16.9536C18.0632 20.7422 14.9912 23.8131 11.2026 23.8131C7.4134 23.8131 4.34192 20.7422 4.34192 16.9536C4.34192 13.1633 7.4134 10.093 11.2026 10.093C14.9912 10.093 18.0632 13.1633 18.0632 16.9536Z" fill="#87ED82"/>
<path d="M40.6707 22.5878L54.9346 8.226L41.183 1.70906L41.1824 1.71025C40.3923 1.28283 39.4882 1.04003 38.5265 1.04003C35.436 1.04003 32.9291 3.54458 32.9291 6.63624C32.9291 7.55341 33.1541 8.41715 33.5459 9.18176L33.5417 9.18471L33.5963 9.2886L33.6118 9.3165L40.6707 22.5878Z" fill="#27AAE1"/>
<path d="M40.6706 22.5879L41.3023 23.2153L55.5667 8.8535C55.7704 8.6487 55.8618 8.35721 55.8119 8.07286C55.7621 7.78792 55.5768 7.54512 55.3162 7.42105L41.5647 0.904709C41.1277 0.697529 40.603 0.878593 40.3869 1.31136L40.3863 1.31254L41.1824 1.71028L41.6068 0.927275C40.6902 0.430994 39.6383 0.149605 38.5264 0.149605C34.9438 0.150198 32.0392 3.05249 32.0386 6.63627C32.0386 7.69947 32.3004 8.70509 32.7533 9.58782L33.5458 9.18179L33.0228 8.4617L33.0187 8.46467C32.6595 8.72528 32.5473 9.20611 32.7533 9.5991L32.8079 9.70239L32.8139 9.71309L32.8287 9.74099L32.8251 9.73445L39.8847 23.0064C40.017 23.2557 40.261 23.4279 40.5406 23.4688C40.8202 23.5104 41.1034 23.416 41.3023 23.2153L40.6706 22.5879L41.4566 22.1699L34.3977 8.89803L34.3941 8.89208L34.3811 8.86716L34.33 8.77098L33.5417 9.18474L34.0653 9.90543L34.0694 9.90245C34.4238 9.64482 34.5384 9.16575 34.3383 8.77573C34.0077 8.12986 33.8201 7.4074 33.8195 6.63627C33.8201 5.33383 34.3448 4.16318 35.1985 3.30893C36.0527 2.45588 37.224 1.93111 38.5264 1.93051C39.3379 1.93111 40.0942 2.13413 40.7585 2.49328C40.971 2.60844 41.2203 2.6322 41.4507 2.55977C41.6804 2.48735 41.871 2.32469 41.979 2.1086L41.9796 2.10742L41.1829 1.70909L40.8018 2.51406L53.416 8.49138L40.039 21.9604L40.6706 22.5879Z" fill="black"/>
<path d="M38.8927 16.7981C38.8927 22.4934 43.5088 27.1096 49.203 27.1096C54.8989 27.1096 59.5144 22.4934 59.5144 16.7981C59.5144 11.1033 54.8989 6.48664 49.203 6.48664C43.5088 6.48664 38.8927 11.1033 38.8927 16.7981Z" fill="#27AAE1"/>
<path d="M38.8927 16.7981H38.0022C38.0028 22.9855 43.0167 27.9994 49.2029 28C55.391 27.9994 60.4042 22.9855 60.4048 16.7981C60.4042 10.6112 55.391 5.59676 49.2029 5.59617C43.0167 5.59676 38.0028 10.6112 38.0022 16.7981H38.8927H39.7831C39.7837 14.1938 40.8362 11.8442 42.5423 10.1363C44.2496 8.43019 46.5992 7.37767 49.2029 7.37708C51.8078 7.37767 54.1574 8.43019 55.8653 10.1363C57.5714 11.8442 58.6239 14.1938 58.6239 16.7981C58.6233 19.403 57.5714 21.7526 55.8653 23.4599C54.1574 25.166 51.8078 26.2185 49.2029 26.2191C46.5992 26.2185 44.2496 25.166 42.5423 23.4599C40.8362 21.7526 39.7837 19.403 39.7831 16.7981H38.8927Z" fill="black"/>
<path d="M39.7308 3.71019H20.8099C19.752 3.71019 18.8948 4.57215 18.8948 5.63595H18.8877C22.1058 6.94135 24.3859 10.1909 24.3859 13.9973H28.8917H29.2128H36.1494C36.1494 10.1909 38.4296 6.94135 41.6471 5.63595C41.6471 4.57215 40.7893 3.71019 39.7308 3.71019Z" fill="#27AAE1"/>
<path d="M39.7309 3.71018V2.81973H20.8099C20.037 2.81973 19.3288 3.13733 18.8242 3.64608C18.3184 4.15364 18.0038 4.86242 18.0044 5.63593H18.8948V4.74548H18.8877C18.4627 4.74548 18.0952 5.04824 18.0139 5.46497C17.9325 5.8823 18.1593 6.30141 18.5529 6.4611C21.4297 7.627 23.4961 10.5507 23.4955 13.9973C23.4955 14.2318 23.5905 14.4609 23.7561 14.6266C23.9217 14.7928 24.1515 14.8878 24.386 14.8878H28.8917H29.2128H36.1495C36.3839 14.8878 36.6131 14.7928 36.7793 14.6266C36.9449 14.4609 37.0399 14.2318 37.0399 13.9973C37.0387 10.5507 39.1052 7.627 41.9819 6.4611C42.3179 6.32456 42.5376 5.99864 42.5376 5.63593C42.5376 4.86242 42.2229 4.15304 41.7172 3.64608C41.2126 3.13733 40.5044 2.81973 39.7309 2.81973V3.71018V4.60064C40.2942 4.60182 40.7561 5.06011 40.7567 5.63593H41.6471L41.3123 4.81078C37.7535 6.25569 35.2602 9.83057 35.259 13.9973H36.1495V13.1068H29.2128H28.8917H24.386V13.9973H25.2764C25.2752 9.83057 22.7814 6.25569 19.2225 4.81078L18.8877 5.63593V6.52639H18.8948C19.1293 6.52639 19.3585 6.43141 19.5241 6.26519C19.6903 6.09957 19.7853 5.87042 19.7853 5.63593C19.7853 5.06011 20.2471 4.60182 20.8099 4.60064H39.7309V3.71018Z" fill="black"/>
<path d="M56.2565 16.9786C56.2565 20.7677 53.185 23.8386 49.3958 23.8386C45.6072 23.8386 42.5352 20.7677 42.5352 16.9786C42.5352 13.1882 45.6072 10.1173 49.3958 10.1173C53.185 10.1173 56.2565 13.1882 56.2565 16.9786Z" fill="#87ED82"/>
</svg>
