<svg width="31" height="45" viewBox="0 0 31 45" fill="none" xmlns="http://www.w3.org/2000/svg">
<path d="M20.1462 34.3614V45L30.6125 35.6375L30.0257 20.8705C29.7179 14.1066 24.9117 8.57822 18.5622 7.17627C19.0444 9.50189 19.4085 12.2225 19.4085 15.1465C19.4085 18.7521 18.8546 22.0498 18.2079 24.6755H25.7192L24.2495 30.9901L20.1462 34.3614Z" fill="#87ED82"/>
<path d="M12.0522 7.22083C5.7879 8.69055 1.04372 14.1764 0.739705 20.8705L0 35.6317L10.2319 45V34.3614L6.36689 30.9901L5.13727 24.6755H12.4143C11.7675 22.0498 11.2137 18.7521 11.2137 15.1465C11.2137 12.2419 11.5739 9.53676 12.0522 7.22083Z" fill="#87ED82"/>
<path d="M12.2052 15.1465C12.2052 23.5118 15.3112 30.2931 15.3112 30.2931C15.3112 30.2931 18.4172 23.5118 18.4172 15.1465C18.4172 6.78128 15.3112 0 15.3112 0C15.3112 0 12.2052 6.78128 12.2052 15.1465Z" fill="#27AAE1"/>
</svg>
