<svg width="54" height="57" viewBox="0 0 54 57" fill="none" xmlns="http://www.w3.org/2000/svg">
<path d="M30.5376 18.5572C29.8884 18.7713 29.7001 19.713 30.2252 20.1538C30.7331 20.6789 31.6991 20.3008 31.8132 19.6088C31.983 18.9154 31.1797 18.2847 30.5376 18.5572ZM20.8338 18.5529C20.1518 18.7798 20.0334 19.7872 20.6169 20.1881C21.1677 20.696 22.1579 20.1938 22.1593 19.4704C22.2193 18.7984 21.4416 18.2733 20.8338 18.5529ZM16.8344 15.0558C22.9655 15.0144 29.0966 15.0373 35.2276 15.0444C35.2205 17.8053 35.2348 20.5676 35.2376 23.3285C35.2362 23.5768 35.1206 23.8051 35.0293 24.0305C34.4343 25.2804 33.875 26.5475 33.3271 27.8188C32.5552 26.8086 31.3381 26.235 30.111 26.0038C28.7327 25.7941 27.2545 25.9296 26.0203 26.6174C23.7231 25.3903 20.5199 25.7499 18.7678 27.7545C18.1485 26.4162 17.5735 25.0593 16.9486 23.7238C16.8658 23.5625 16.843 23.3799 16.8416 23.203C16.8173 20.4877 16.853 17.7711 16.8344 15.0558Z" fill="#26272D"/>
<path d="M36.2335 19.3777C38.1312 20.131 38.2097 23.27 36.2992 24.0534C36.195 22.4981 36.2578 20.9358 36.2335 19.3777Z" fill="#26272D"/>
<path d="M14.7598 20.3322C15.0009 19.9042 15.4018 19.6031 15.8384 19.3948C15.8199 20.9743 15.8713 22.5552 15.7956 24.1347C14.3888 23.5269 13.9579 21.5793 14.7598 20.3322Z" fill="#26272D"/>
<path d="M43.0836 51.7709C42.5928 51.9706 42.7654 52.6184 42.7726 53.0308C42.8054 53.5045 43.5531 53.5401 43.68 53.0978C43.7628 52.7625 43.7471 52.4001 43.68 52.0648C43.6272 51.8037 43.3148 51.6867 43.0836 51.7709ZM48.7424 45.8795C48.3657 46.0778 48.4371 46.7627 48.8908 46.8055C49.2775 46.8483 49.7483 46.9197 50.0679 46.6414C50.2235 46.3832 50.1707 45.9965 49.8767 45.8652C49.5015 45.8053 49.1134 45.7996 48.7424 45.8795ZM36.5088 45.9038C36.1749 46.0778 36.1635 46.6429 36.5316 46.7841C36.8584 46.8783 37.218 46.8697 37.5504 46.7984C37.9799 46.7199 38.0155 46.0008 37.5946 45.8752C37.2394 45.8167 36.8541 45.7796 36.5088 45.9038ZM43.0408 41.6247C42.8154 41.736 42.764 42.0157 42.6599 42.2211C42.1334 43.5367 41.5926 44.8479 41.0918 46.1734C40.9634 46.4873 41.1688 46.7955 41.2687 47.0866C41.818 48.3622 42.2689 49.6763 42.814 50.9533C42.9281 51.3628 43.5502 51.3214 43.6515 50.9219C44.2579 49.4295 44.8729 47.9384 45.4393 46.4331C44.9043 44.9221 44.2907 43.4311 43.6886 41.9429C43.6173 41.669 43.3048 41.4778 43.0408 41.6247ZM42.9238 39.503C42.6213 39.8226 42.7055 40.3192 42.7769 40.713C42.8454 41.1296 43.4732 41.1524 43.6415 40.8C43.7414 40.4619 43.74 40.0952 43.69 39.7484C43.6358 39.4032 43.1749 39.2876 42.9238 39.503ZM41.5184 39.1306C43.4403 38.6541 45.5421 39.0479 47.1929 40.1308C50.0951 41.9272 51.3521 45.8752 50.0779 49.0328C49.2204 51.2715 47.2257 53.0622 44.8771 53.5929C42.9752 54.041 40.8977 53.6942 39.2569 52.6298C37.5932 51.6168 36.3818 49.9046 35.9766 48.0012C35.4173 45.6626 36.0822 43.0487 37.7587 41.3137C38.7504 40.2207 40.093 39.4845 41.5184 39.1306Z" fill="#26272D"/>
<path d="M42.2461 46.8498C42.9053 46.844 43.5659 46.8498 44.2251 46.8483C43.8941 47.6545 43.5616 48.4592 43.2392 49.2697C42.9096 48.4621 42.5586 47.663 42.2461 46.8498Z" fill="#26272D"/>
<path d="M9.85012 48.7574C10.0813 50.9676 9.96997 53.1963 9.94001 55.4136C10.866 55.3893 11.792 55.3979 12.718 55.4107C12.825 53.192 13.0847 50.9804 13.0419 48.7546C11.9789 48.7731 10.9131 48.7688 9.85012 48.7574ZM8.53887 44.7566C8.52888 45.7454 8.55028 46.7342 8.53744 47.723C10.4052 47.7615 12.2729 47.7358 14.1406 47.7173C14.1406 46.737 14.1349 45.7568 14.152 44.7752C12.28 44.7766 10.4094 44.7509 8.53887 44.7566ZM26.5411 42.6192C26.4983 46.894 26.5483 51.1716 26.5368 55.4478C30.2152 55.4521 33.895 55.4792 37.5733 55.4378C34.8381 53.6357 32.862 50.6066 32.618 47.3063C32.6308 46.8298 32.0744 46.6828 31.7833 46.4046C30.5006 45.4515 29.2264 44.4855 27.9194 43.5652C27.4571 43.2513 27.0462 42.8646 26.5411 42.6192ZM2.92574 38.4058C2.97282 39.8041 2.93858 41.2052 2.95142 42.6049C3.67625 41.4863 4.5195 40.4462 5.49402 39.5358C4.54804 39.4146 3.63915 39.0436 2.92574 38.4058ZM8.29774 38.7254C8.6844 40.3977 9.10246 42.067 9.33504 43.7721C10.6063 43.7692 11.8776 43.7664 13.1504 43.7878C13.022 41.4806 12.7808 39.1535 12.1159 36.9319C10.7875 37.3928 9.45061 37.9021 8.29774 38.7254ZM41.8124 36.8363C38.9559 37.213 36.3463 38.9808 34.8695 41.4421C33.8165 43.2684 33.3756 45.4372 33.631 47.5275C33.8907 49.4138 34.6669 51.2415 35.9225 52.6798C37.5691 54.5589 39.9419 55.8231 42.4459 56.0057C44.1938 56.087 45.983 55.7831 47.5454 54.9712C49.8968 53.7527 51.726 51.5383 52.418 48.9757C52.8518 47.382 52.9146 45.6769 52.5093 44.0717C51.8944 41.5291 50.2007 39.2733 47.9207 37.9863C46.0943 36.9162 43.8999 36.5267 41.8124 36.8363ZM37.0097 37.6967C37.4164 37.427 37.8601 37.2187 38.271 36.9533C38.3367 36.628 37.7388 36.6437 37.5405 36.4796C37.3493 36.8791 37.1738 37.2857 37.0097 37.6967ZM13.1504 36.598C13.7354 38.9509 14.0507 41.3622 14.162 43.7835C14.4944 43.8149 15.0338 43.7393 15.118 44.1745C15.1593 45.3088 15.1051 46.4474 15.1337 47.5831C15.118 47.8999 15.1779 48.2452 15.0324 48.5405C14.7941 48.8045 14.4131 48.7189 14.0978 48.746C14.0321 50.9804 13.9294 53.2134 13.7225 55.4407C17.6577 55.4692 21.5929 55.4321 25.5281 55.4621C25.5695 51.1745 25.5409 46.884 25.5381 42.5964C25.0644 42.8247 24.6663 43.17 24.2382 43.4696C23.0083 44.3428 21.7884 45.2303 20.5499 46.0907C19.9535 46.4959 19.4227 46.9996 18.7578 47.2963C18.5866 47.1394 18.3982 46.991 18.3083 46.7727C16.7659 43.3212 15.2321 39.864 13.6412 36.4354C13.4771 36.4882 13.313 36.5424 13.1504 36.598ZM33.6196 39.0422C32.969 39.6771 32.0744 40.0538 31.1598 40.0024C30.5862 41.2523 29.3662 42.0685 28.0735 42.4337C29.5517 43.5424 31.0713 44.5982 32.5466 45.7097C32.7335 43.9233 33.2287 42.1427 34.2132 40.6245C34.6426 39.8783 35.3503 39.3118 35.6443 38.4857C35.9239 37.7323 36.2507 37.0004 36.5474 36.2542C36.1665 36.1471 35.7869 36.0344 35.4103 35.916C35.0393 37.0646 34.5342 38.2189 33.6196 39.0422ZM14.6657 36.1985C14.9182 36.8948 15.2592 37.554 15.5588 38.2317C16.7331 40.8014 17.886 43.3811 19.0546 45.9551C20.6997 44.7723 22.3591 43.6094 23.9857 42.4038C22.6973 42.077 21.4631 41.258 20.9323 40.001C20.1818 40.0723 19.4198 39.8512 18.8234 39.3917C17.6449 38.5442 17.0042 37.1673 16.609 35.8104C15.9527 35.9003 15.3134 36.0729 14.6657 36.1985ZM43.0409 35.6463C42.971 35.8475 43.4533 35.8646 43.4048 35.6606C43.3149 35.6563 43.1322 35.6506 43.0409 35.6463ZM42.65 32.3718C41.821 32.7228 41.6484 33.9869 42.4502 34.4692C43.2707 35.194 44.7431 34.2637 44.4078 33.2179C44.2252 32.4716 43.3491 32.0436 42.65 32.3718ZM23.2551 31.978C21.9139 32.6757 20.5756 33.3791 19.2529 34.1096C18.6907 34.4178 18.12 34.7289 17.4836 34.8473C17.6063 35.7876 17.9445 36.6979 18.4239 37.514C18.8719 38.2745 19.6253 38.8923 20.5213 39.0065C20.4914 38.567 20.6255 38.1376 21.045 37.9364C21.6143 38.0819 21.5815 38.6926 21.7056 39.1535C21.9082 39.9882 22.5289 40.6873 23.2965 41.0597C24.5635 41.6761 26.0417 41.8345 27.4158 41.5377C28.3974 41.3023 29.4476 40.8913 29.9969 39.9882C30.3607 39.4403 30.4321 38.7739 30.5819 38.1504C30.7973 38.0748 31.0713 37.875 31.2867 38.0548C31.6306 38.2431 31.5122 38.6669 31.5379 38.9879C32.0258 38.8481 32.5338 38.6926 32.9076 38.3302C33.8878 37.4427 34.3173 36.1172 34.5756 34.8587C33.738 34.7731 33.0532 34.2552 32.3255 33.8828C30.8587 33.0652 29.3705 32.2876 27.8923 31.49C27.2431 31.1247 26.5625 30.7923 26.0118 30.2815C25.2199 31.0305 24.1826 31.4301 23.2551 31.978ZM4.84339 30.1131C3.80323 30.4755 2.91004 31.2817 2.51053 32.319C1.79426 33.9983 2.13813 36.0858 3.37661 37.4313C4.15709 38.2588 5.36561 38.7368 6.4928 38.4429C7.66851 38.089 8.66586 37.1787 9.07535 36.0144C9.77593 34.2809 9.35358 32.1221 7.95672 30.8565C7.12631 30.1245 5.91922 29.7578 4.84339 30.1131ZM8.45611 29.939C8.8813 30.3742 9.33646 30.7951 9.63752 31.3345C10.5992 32.9311 10.672 34.99 9.89863 36.6793C12.0046 35.7605 14.2604 35.2582 16.4977 34.7845C16.0183 34.5063 15.5046 34.238 15.185 33.7658C14.4117 32.6671 14.2761 31.1989 14.707 29.9404C12.6239 29.9975 10.5393 29.9761 8.45611 29.939ZM16.5462 25.2647C16.2066 27.151 15.8513 29.0358 15.5432 30.9292C15.4433 31.7397 15.5432 32.6386 16.1053 33.2735C16.4849 33.7372 17.1854 34.0069 17.7433 33.703C19.2715 32.8968 20.8167 32.1235 22.3206 31.2717C23.2865 30.7309 24.3338 30.3128 25.2085 29.6251C25.5566 29.3455 25.4582 28.5835 26.0375 28.6321C26.5725 28.6677 26.4769 29.3868 26.8507 29.6494C27.6284 30.2458 28.5387 30.6325 29.3905 31.1104C30.9857 31.9951 32.5951 32.854 34.2089 33.703C34.9037 34.0625 35.7955 33.6559 36.1437 32.9924C36.536 32.2505 36.6017 31.3644 36.3962 30.5568C36.1251 28.8161 35.7684 27.0911 35.503 25.3504C34.9351 26.6901 34.3202 28.0114 33.7623 29.3554C33.5254 29.3997 33.2401 29.5338 33.0332 29.3426C32.7963 28.993 32.6408 28.5907 32.3597 28.2711C31.7433 27.532 30.8045 27.1396 29.8728 26.9955C28.7798 26.8671 27.6155 26.9256 26.6324 27.4635C26.3556 27.5933 26.046 27.8573 25.7492 27.6276C24.4794 26.8485 22.8799 26.7758 21.473 27.1838C20.5856 27.4549 19.6952 27.9714 19.2943 28.8461C19.1516 29.0473 19.0717 29.4082 18.7678 29.4011C18.4396 29.4824 18.2784 29.1429 18.1642 28.9032C17.632 27.6875 17.0413 26.4961 16.5462 25.2647ZM14.7598 20.3322C13.9579 21.5793 14.3889 23.5269 15.7957 24.1347C15.8713 22.5552 15.82 20.9743 15.8385 19.3948C15.4019 19.6031 15.001 19.9042 14.7598 20.3322ZM36.2335 19.3777C36.2578 20.9358 36.195 22.4981 36.2992 24.0534C38.2097 23.27 38.1312 20.131 36.2335 19.3777ZM16.8344 15.0558C16.853 17.7711 16.8173 20.4877 16.8416 23.203C16.843 23.3799 16.8658 23.5625 16.9486 23.7238C17.5735 25.0593 18.1485 26.4162 18.7678 27.7546C20.5199 25.7499 23.7231 25.3903 26.0203 26.6174C27.2545 25.9296 28.7327 25.7941 30.111 26.0038C31.3381 26.235 32.5552 26.8086 33.3271 27.8188C33.875 26.5475 34.4343 25.2804 35.0293 24.0305C35.1206 23.8051 35.2362 23.5768 35.2376 23.3285C35.2348 20.5676 35.2205 17.8053 35.2276 15.0444C29.0966 15.0373 22.9655 15.0144 16.8344 15.0558ZM15.3363 11.045C13.4514 11.5515 11.548 11.9881 9.66321 12.4961C8.92839 12.6702 8.40189 13.3308 8.24494 14.0485C20.1047 14.0256 31.9645 14.0642 43.8228 14.0299C43.6202 13.1867 42.9282 12.5375 42.0636 12.4262C40.2486 11.9368 38.4223 11.4902 36.6017 11.0279C35.8583 10.8181 35.0821 10.9194 34.323 10.9023C28.8497 10.908 23.3764 10.9109 17.9031 10.9023C17.047 10.9252 16.171 10.7982 15.3363 11.045ZM17.331 9.87358C23.1396 9.85075 28.9467 9.85646 34.7554 9.8693C34.5271 9.34138 34.3673 8.78919 34.1261 8.2684C33.8122 8.31121 33.4527 8.22132 33.1801 8.41822C32.9904 8.2313 32.705 8.31121 32.471 8.2898C27.6112 8.29837 22.7515 8.29123 17.8903 8.29266C17.7376 8.83057 17.5207 9.34851 17.331 9.87358ZM19.9335 2.09167C19.3342 3.81528 18.7478 5.54459 18.1657 7.2739C23.4078 7.26819 28.65 7.2682 33.8921 7.2682C33.3057 5.54031 32.7535 3.80101 32.1357 2.08454C31.9502 1.53807 31.4651 1.11715 30.8915 1.02869C30.2095 0.890289 29.6074 1.3326 29.0366 1.63366C28.0065 2.24292 26.8365 2.77655 25.6108 2.62674C24.6805 2.54541 23.8444 2.09739 23.0525 1.63509C22.5589 1.36399 22.0595 1.03868 21.4845 0.99445C20.8138 1.01157 20.1518 1.44675 19.9335 2.09167ZM18.9133 1.92616C19.28 0.684826 20.6241 -0.186966 21.9082 0.0398979C23.0611 0.276752 23.9315 1.17137 25.0558 1.49098C26.0089 1.80346 27.0619 1.5823 27.9166 1.09433C28.5772 0.759022 29.1964 0.328117 29.9056 0.0984001C30.9357 -0.21265 32.1029 0.239655 32.7378 1.09004C33.1231 1.57944 33.2657 2.19726 33.4627 2.77512C34.2317 5.13937 35.0507 7.48793 35.8198 9.85361C38.1027 10.3059 40.33 10.9908 42.5915 11.5344C43.907 11.8255 44.8872 13.1581 44.833 14.4922C44.8273 14.7719 44.6033 15.0458 44.3079 15.0244C41.617 15.0444 38.9245 15.0059 36.235 15.0472C36.2464 16.1473 36.1993 17.2474 36.245 18.3461C37.8002 18.7042 38.7918 20.3579 38.6963 21.8974C38.6492 23.2829 37.7745 24.607 36.4704 25.1121C36.8414 26.9298 37.0839 28.7705 37.4378 30.5911C37.6918 31.7468 37.4535 33.0367 36.7058 33.9655C36.3876 34.3979 35.8355 34.5291 35.4702 34.9058C36.9113 35.3039 38.3609 35.6891 39.7492 36.2527C40.4926 36.1015 41.2203 35.8703 41.9808 35.799C42.0949 35.2925 41.4928 35.1341 41.3016 34.7503C40.5483 33.683 40.9934 32.0108 42.2005 31.4914C43.2122 30.9778 44.5634 31.3559 45.1284 32.3475C45.6948 33.2478 45.5165 34.5648 44.6561 35.2169C44.4364 35.3296 44.3722 35.5464 44.3593 35.7776C47.0175 36.0986 49.5572 37.4085 51.2694 39.4831C54.0346 42.672 54.5526 47.576 52.5664 51.2915C51.4835 53.3889 49.6942 55.1182 47.5369 56.087C45.2796 57.0944 42.6671 57.2756 40.29 56.5935C40.0674 56.5308 39.8434 56.4566 39.6108 56.4523C28.1434 56.4765 16.6746 56.4509 5.2058 56.4637C4.93899 56.5008 4.71498 56.351 4.49525 56.2297C4.50951 55.9301 4.52806 55.4578 4.93471 55.4564C6.25024 55.4193 7.56863 55.4606 8.88559 55.435C8.97833 53.1991 9.01115 50.9562 8.81139 48.726C8.429 48.6946 7.96671 48.8345 7.65424 48.5491C7.53866 48.3465 7.56863 48.0997 7.55721 47.8771C7.56863 46.8284 7.57862 45.7782 7.55864 44.7309C7.56863 44.4627 7.53295 44.1688 7.68848 43.9348C7.89394 43.8235 8.13222 43.7992 8.35766 43.7464C8.04947 42.2525 7.77552 40.7486 7.36602 39.279C5.58819 40.6659 4.05007 42.3881 3.06985 44.4327C2.11958 46.3304 1.69439 48.4649 1.71151 50.5809C1.70865 52.4629 1.73862 54.3463 1.69011 56.2268C1.47751 56.6806 0.674206 56.5293 0.729852 56.0071C0.71273 54.1037 0.731279 52.1989 0.722718 50.2955C0.709877 48.6262 1.04661 46.9653 1.60592 45.3973C1.73862 44.9906 1.98689 44.6039 1.9612 44.1616C1.93124 41.8302 2.00401 39.4945 1.92981 37.1645C1.09084 35.6991 0.863974 33.8714 1.4504 32.2733C2.0568 30.4969 3.7005 29.003 5.63528 28.9631C8.71151 28.9488 11.7892 28.9559 14.8654 28.946C15.0794 27.6632 15.3106 26.3819 15.566 25.1064C13.7953 24.4529 12.9149 22.267 13.5613 20.5305C13.9009 19.4832 14.7498 18.6129 15.8328 18.3489C15.8414 17.2431 15.8214 16.1388 15.8371 15.0344C13.1518 15.0144 10.4665 15.0444 7.78265 15.033C7.51869 15.0658 7.26757 14.8917 7.23332 14.6249C7.08636 13.2309 8.10796 11.8084 9.47914 11.5116C11.7464 10.9779 13.9751 10.2774 16.2666 9.84932C17.1141 7.19685 18.0472 4.57293 18.9133 1.92616Z" fill="white"/>
<path d="M20.8338 18.5529C21.4416 18.2733 22.2192 18.7984 22.1593 19.4704C22.1579 20.1938 21.1676 20.696 20.6169 20.1881C20.0333 19.7872 20.1517 18.7798 20.8338 18.5529Z" fill="white"/>
<path d="M30.5376 18.5572C31.1797 18.2847 31.983 18.9154 31.8132 19.6088C31.699 20.3008 30.7331 20.6789 30.2251 20.1539C29.7 19.713 29.8884 18.7713 30.5376 18.5572Z" fill="white"/>
<path d="M5.41404 32.8141C4.48518 33.3691 4.48661 34.8715 5.26993 35.5593C5.54531 35.8033 5.99334 35.7633 6.25016 35.5108C6.9065 34.8844 6.91792 33.7358 6.32721 33.0623C6.11033 32.8026 5.73223 32.6685 5.41404 32.8141ZM5.38265 31.7782C6.16313 31.5998 6.98926 32.055 7.37593 32.7313C7.9595 33.7258 7.89957 35.087 7.18331 35.9987C6.67821 36.6408 5.72794 36.969 4.97458 36.5723C3.90018 36.0358 3.49211 34.6746 3.75036 33.5589C3.93014 32.7399 4.52941 31.9494 5.38265 31.7782Z" fill="white"/>
<path d="M41.5185 39.1306C40.0931 39.4845 38.7505 40.2207 37.7589 41.3137C36.0823 43.0487 35.4174 45.6626 35.9768 48.0012C36.382 49.9046 37.5933 51.6168 39.257 52.6298C40.8979 53.6942 42.9753 54.0409 44.8773 53.5929C47.2258 53.0621 49.2205 51.2715 50.0781 49.0328C51.3522 45.8752 50.0952 41.9272 47.193 40.1308C45.5422 39.0479 43.4405 38.6541 41.5185 39.1306ZM41.8995 38.0534C43.9812 37.7409 46.1914 38.2203 47.9321 39.4146C49.7756 40.7158 51.1268 42.7519 51.4478 45.0006C51.7517 46.7641 51.4364 48.6062 50.636 50.1985C49.5516 52.4044 47.4242 54.0623 45.0214 54.5746C43.2507 54.9926 41.363 54.7529 39.7065 54.0295C38.0471 53.2919 36.6959 51.9506 35.807 50.3811C34.4686 47.9313 34.4301 44.8023 35.7898 42.351C36.9912 40.0581 39.3384 38.4158 41.8995 38.0534Z" fill="white"/>
<path d="M42.9238 39.503C43.1749 39.2876 43.6358 39.4031 43.69 39.7484C43.7399 40.0952 43.7414 40.4618 43.6415 40.8C43.4731 41.1524 42.8453 41.1296 42.7768 40.713C42.7055 40.3192 42.6213 39.8226 42.9238 39.503Z" fill="white"/>
<path d="M42.2462 46.8498C42.5587 47.6631 42.9097 48.4621 43.2393 49.2697C43.5617 48.4592 43.8942 47.6545 44.2252 46.8483C43.566 46.8498 42.9054 46.8441 42.2462 46.8498ZM43.225 43.5738C42.9325 44.3571 42.6457 45.1447 42.3018 45.9081C42.9253 45.9223 43.5503 45.9195 44.1738 45.9466C43.8613 45.1533 43.5703 44.3528 43.225 43.5738ZM43.0409 41.6247C43.3049 41.4778 43.6174 41.669 43.6887 41.9429C44.2908 43.4311 44.9044 44.9221 45.4394 46.4331C44.873 47.9384 44.258 49.4295 43.6516 50.9219C43.5503 51.3214 42.9282 51.3628 42.8141 50.9533C42.269 49.6763 41.8181 48.3622 41.2688 47.0866C41.1689 46.7955 40.9635 46.4873 41.0919 46.1734C41.5927 44.8479 42.1335 43.5367 42.66 42.2211C42.7641 42.0157 42.8155 41.736 43.0409 41.6247Z" fill="white"/>
<path d="M9.55474 45.7996C10.5664 45.6769 11.6108 45.7796 12.6353 45.7382C13.0619 45.6369 13.3872 46.1977 13.1218 46.5273C12.942 46.777 12.6024 46.6956 12.3399 46.7128C11.4867 46.6771 10.6334 46.7228 9.7816 46.6971C9.31931 46.6857 9.17235 46.035 9.55474 45.7996Z" fill="white"/>
<path d="M36.5089 45.9038C36.8542 45.7796 37.2395 45.8167 37.5947 45.8752C38.0157 46.0008 37.98 46.7199 37.5505 46.7984C37.2181 46.8697 36.8585 46.8783 36.5318 46.7841C36.1636 46.6429 36.1751 46.0778 36.5089 45.9038Z" fill="white"/>
<path d="M48.7425 45.8795C49.1135 45.7996 49.5016 45.8053 49.8768 45.8652C50.1708 45.9965 50.2236 46.3832 50.068 46.6414C49.7484 46.9197 49.2776 46.8483 48.8909 46.8055C48.4372 46.7627 48.3658 46.0778 48.7425 45.8795Z" fill="white"/>
<path d="M23.8302 47.1194C24.2411 46.8626 24.779 47.3748 24.5607 47.8029C24.4194 48.2095 23.7973 48.2737 23.6004 47.8813C23.3978 47.6245 23.5434 47.2364 23.8302 47.1194Z" fill="white"/>
<path d="M27.6741 47.2036C28.0508 46.8069 28.787 47.3135 28.5245 47.7986C28.3946 48.1924 27.7825 48.2751 27.5856 47.8956C27.4158 47.6759 27.5143 47.3934 27.6741 47.2036Z" fill="white"/>
<path d="M16.3579 50.1728C17.0628 50.0915 17.7747 50.18 18.4839 50.16C19.6253 50.1814 20.7697 50.1115 21.9097 50.1586C22.4476 50.2042 22.4647 51.0746 21.924 51.1402C20.1133 51.1445 18.2984 51.1388 16.4877 51.1288C15.9855 51.1003 15.907 50.3555 16.3579 50.1728Z" fill="white"/>
<path d="M23.7959 51.0289C24.2425 50.7535 24.8474 51.3414 24.5236 51.7723C24.3481 52.1461 23.7445 52.1119 23.5804 51.748C23.442 51.5012 23.5576 51.1673 23.7959 51.0289Z" fill="white"/>
<path d="M27.6797 51.0774C27.9579 50.8249 28.4744 50.9776 28.55 51.3571C28.7141 51.8279 28.0535 52.2688 27.6854 51.9235C27.4028 51.7224 27.4 51.2815 27.6797 51.0774Z" fill="white"/>
<path d="M43.0836 51.7709C43.3148 51.6867 43.6273 51.8037 43.68 52.0648C43.7471 52.4001 43.7628 52.7625 43.68 53.0978C43.5531 53.5401 42.8054 53.5045 42.7726 53.0308C42.7655 52.6184 42.5928 51.9706 43.0836 51.7709Z" fill="white"/>
<path d="M19.9335 2.09166C20.1518 1.44674 20.8138 1.01156 21.4844 0.994435C22.0595 1.03867 22.5588 1.36398 23.0525 1.63508C23.8444 2.09737 24.6805 2.54539 25.6108 2.62672C26.8365 2.77654 28.0065 2.2429 29.0366 1.63365C29.6074 1.33259 30.2095 0.890276 30.8915 1.02868C31.4651 1.11714 31.9502 1.53805 32.1357 2.08453C32.7535 3.801 33.3057 5.5403 33.8921 7.26818C28.65 7.26818 23.4078 7.26818 18.1656 7.27389C18.7478 5.54458 19.3342 3.81527 19.9335 2.09166Z" fill="#26272D"/>
<path d="M17.3309 9.87357C17.5207 9.3485 17.7376 8.83057 17.8902 8.29265C22.7514 8.29123 27.6112 8.29836 32.471 8.2898C32.705 8.3112 32.9903 8.2313 33.1801 8.41821C33.4526 8.22131 33.8122 8.3112 34.1261 8.26839C34.3672 8.78919 34.527 9.34137 34.7553 9.8693C28.9467 9.85645 23.1395 9.85074 17.3309 9.87357Z" fill="#26272D"/>
<path d="M15.3363 11.045C16.171 10.7982 17.0471 10.9251 17.9032 10.9023C23.3765 10.9109 28.8498 10.908 34.3231 10.9023C35.0822 10.9194 35.8583 10.8181 36.6017 11.0279C38.4223 11.4902 40.2487 11.9368 42.0636 12.4262C42.9283 12.5375 43.6203 13.1867 43.8229 14.0299C31.9645 14.0642 20.1048 14.0256 8.245 14.0485C8.40195 13.3308 8.92845 12.6702 9.66326 12.4961C11.5481 11.9881 13.4515 11.5515 15.3363 11.045Z" fill="#26272D"/>
<path d="M16.5462 25.2647C17.0413 26.4961 17.632 27.6875 18.1642 28.9032C18.2784 29.1429 18.4396 29.4824 18.7678 29.4011C19.0717 29.4082 19.1516 29.0473 19.2943 28.8461C19.6952 27.9714 20.5856 27.4549 21.473 27.1838C22.8799 26.7758 24.4794 26.8485 25.7492 27.6276C26.046 27.8573 26.3556 27.5933 26.6324 27.4635C27.6155 26.9256 28.7798 26.8671 29.8728 26.9955C30.8045 27.1396 31.7433 27.532 32.3597 28.2711C32.6408 28.5907 32.7963 28.993 33.0332 29.3426C33.2401 29.5338 33.5254 29.3997 33.7623 29.3555C34.3202 28.0114 34.9351 26.6901 35.503 25.3504C35.7684 27.0911 36.1251 28.8161 36.3962 30.5568C36.6017 31.3644 36.536 32.2505 36.1437 32.9924C35.7955 33.6559 34.9037 34.0626 34.2089 33.703C32.5951 32.854 30.9857 31.9951 29.3905 31.1104C28.5387 30.6325 27.6284 30.2458 26.8507 29.6494C26.4769 29.3868 26.5725 28.6677 26.0375 28.6321C25.4582 28.5835 25.5566 29.3455 25.2085 29.6251C24.3338 30.3128 23.2865 30.7309 22.3206 31.2717C20.8167 32.1235 19.2715 32.8968 17.7433 33.703C17.1854 34.0069 16.4849 33.7372 16.1053 33.2735C15.5432 32.6386 15.4433 31.7397 15.5432 30.9292C15.8513 29.0358 16.2066 27.151 16.5462 25.2647Z" fill="#87ED82"/>
<path d="M8.45605 29.939C10.5392 29.9761 12.6238 29.9975 14.707 29.9405C14.2761 31.1989 14.4116 32.6671 15.185 33.7658C15.5046 34.2381 16.0182 34.5063 16.4976 34.7845C14.2604 35.2582 12.0046 35.7605 9.89858 36.6794C10.6719 34.99 10.5991 32.9311 9.63747 31.3345C9.33641 30.7951 8.88125 30.3742 8.45605 29.939Z" fill="#26272D"/>
<path d="M5.38267 31.7782C4.52943 31.9494 3.93016 32.7399 3.75038 33.5589C3.49212 34.6746 3.9002 36.0358 4.9746 36.5723C5.72796 36.969 6.67823 36.6408 7.18332 35.9987C7.89959 35.087 7.95952 33.7258 7.37594 32.7313C6.98927 32.055 6.16314 31.5998 5.38267 31.7782ZM4.84333 30.1131C5.91916 29.7578 7.12625 30.1245 7.95666 30.8565C9.35352 32.1221 9.77586 34.2808 9.07529 36.0144C8.66579 37.1787 7.66844 38.089 6.49274 38.4429C5.36555 38.7368 4.15703 38.2588 3.37655 37.4313C2.13807 36.0858 1.7942 33.9983 2.51047 32.319C2.90998 31.2817 3.80317 30.4755 4.84333 30.1131Z" fill="#26272D"/>
<path d="M23.2552 31.9779C24.1826 31.43 25.2199 31.0305 26.0118 30.2814C26.5625 30.7922 27.2431 31.1247 27.8923 31.49C29.3705 32.2876 30.8587 33.0652 32.3255 33.8828C33.0532 34.2552 33.738 34.7731 34.5756 34.8587C34.3173 36.1172 33.8879 37.4427 32.9076 38.3302C32.5338 38.6926 32.0258 38.8481 31.5379 38.9879C31.5122 38.6669 31.6306 38.2431 31.2867 38.0548C31.0713 37.875 30.7973 38.0748 30.5819 38.1504C30.4321 38.7739 30.3607 39.4402 29.9969 39.9881C29.4476 40.8913 28.3974 41.3022 27.4158 41.5377C26.0417 41.8345 24.5635 41.6761 23.2965 41.0597C22.5289 40.6873 21.9082 39.9881 21.7056 39.1534C21.5815 38.6926 21.6143 38.0819 21.045 37.9364C20.6255 38.1375 20.4914 38.567 20.5214 39.0065C19.6253 38.8923 18.8719 38.2745 18.4239 37.514C17.9445 36.6979 17.6063 35.7876 17.4836 34.8473C18.12 34.7289 18.6907 34.4178 19.2529 34.1096C20.5756 33.3791 21.9139 32.6757 23.2552 31.9779Z" fill="white"/>
<path d="M42.6499 32.3717C43.3491 32.0436 44.2251 32.4716 44.4078 33.2179C44.7431 34.2637 43.2706 35.194 42.4502 34.4692C41.6483 33.9869 41.8209 32.7227 42.6499 32.3717Z" fill="#26272D"/>
<path d="M5.4141 32.8141C5.73228 32.6685 6.11039 32.8027 6.32726 33.0623C6.91797 33.7358 6.90656 34.8844 6.25022 35.5108C5.99339 35.7633 5.54536 35.8033 5.26998 35.5593C4.48666 34.8716 4.48523 33.3691 5.4141 32.8141Z" fill="#26272D"/>
<path d="M43.0409 35.6463C43.1322 35.6506 43.3148 35.6563 43.4047 35.6606C43.4532 35.8646 42.971 35.8475 43.0409 35.6463Z" fill="#26272D"/>
<path d="M14.6656 36.1985C15.3134 36.073 15.9526 35.9003 16.609 35.8104C17.0042 37.1673 17.6449 38.5442 18.8234 39.3917C19.4198 39.8512 20.1818 40.0723 20.9323 40.001C21.463 41.258 22.6973 42.077 23.9857 42.4038C22.3591 43.6094 20.6997 44.7723 19.0546 45.9551C17.886 43.3811 16.7331 40.8014 15.5588 38.2317C15.2592 37.554 14.9182 36.8948 14.6656 36.1985Z" fill="#26272D"/>
<path d="M33.6196 39.0422C34.5341 38.2189 35.0392 37.0646 35.4102 35.916C35.7869 36.0344 36.1664 36.1471 36.5474 36.2541C36.2506 37.0004 35.9239 37.7323 35.6442 38.4857C35.3503 39.3118 34.6426 39.8783 34.2131 40.6245C33.2286 42.1427 32.7335 43.9233 32.5466 45.7097C31.0712 44.5982 29.5517 43.5424 28.0735 42.4337C29.3662 42.0685 30.5861 41.2523 31.1597 40.0024C32.0743 40.0538 32.9689 39.6771 33.6196 39.0422Z" fill="#26272D"/>
<path d="M23.7959 51.0289C23.5576 51.1673 23.4421 51.5012 23.5805 51.748C23.7446 52.1119 24.3481 52.1461 24.5236 51.7723C24.8475 51.3414 24.2425 50.7535 23.7959 51.0289ZM16.3579 50.1728C15.907 50.3555 15.9855 51.1003 16.4877 51.1288C18.2984 51.1388 20.1133 51.1445 21.9239 51.1402C22.4647 51.0746 22.4476 50.2042 21.9097 50.1586C20.7696 50.1115 19.6253 50.1814 18.4839 50.16C17.7747 50.18 17.0627 50.0915 16.3579 50.1728ZM23.8302 47.1194C23.5434 47.2364 23.3978 47.6245 23.6005 47.8813C23.7974 48.2737 24.4195 48.2095 24.5607 47.8029C24.779 47.3748 24.2411 46.8626 23.8302 47.1194ZM13.1504 36.598C13.313 36.5424 13.4771 36.4881 13.6412 36.4354C15.2321 39.864 16.766 43.3212 18.3084 46.7727C18.3983 46.991 18.5866 47.1394 18.7578 47.2963C19.4227 46.9996 19.9535 46.4959 20.5499 46.0907C21.7884 45.2303 23.0083 44.3428 24.2382 43.4696C24.6663 43.17 25.0644 42.8247 25.5381 42.5964C25.5409 46.884 25.5695 51.1745 25.5281 55.4621C21.5929 55.4321 17.6577 55.4692 13.7225 55.4407C13.9294 53.2134 14.0322 50.9804 14.0978 48.746C14.4131 48.7189 14.7941 48.8045 15.0324 48.5405C15.1779 48.2452 15.118 47.8999 15.1337 47.5831C15.1051 46.4474 15.1594 45.3088 15.118 44.1745C15.0338 43.7393 14.4945 43.8149 14.162 43.7835C14.0507 41.3622 13.7354 38.9508 13.1504 36.598Z" fill="#26272D"/>
<path d="M37.0098 37.6967C37.1739 37.2857 37.3494 36.8791 37.5405 36.4796C37.7389 36.6437 38.3367 36.628 38.2711 36.9533C37.8602 37.2187 37.4164 37.427 37.0098 37.6967Z" fill="#26272D"/>
<path d="M41.8994 38.0534C39.3383 38.4158 36.9911 40.058 35.7898 42.351C34.43 44.8022 34.4685 47.9313 35.8069 50.3811C36.6958 51.9506 38.047 53.2918 39.7064 54.0295C41.3629 54.7529 43.2506 54.9926 45.0213 54.5746C47.4241 54.0623 49.5515 52.4044 50.6359 50.1985C51.4363 48.6062 51.7516 46.7641 51.4477 45.0006C51.1267 42.7519 49.7755 40.7158 47.932 39.4145C46.1913 38.2203 43.9812 37.7409 41.8994 38.0534ZM41.8124 36.8363C43.8998 36.5267 46.0943 36.9162 47.9206 37.9863C50.2007 39.2733 51.8943 41.5291 52.5093 44.0717C52.9145 45.6769 52.8517 47.3819 52.418 48.9757C51.726 51.5383 49.8968 53.7527 47.5454 54.9712C45.983 55.7831 44.1938 56.087 42.4459 56.0057C39.9418 55.823 37.569 54.5589 35.9225 52.6797C34.6668 51.2415 33.8907 49.4137 33.631 47.5275C33.3756 45.4372 33.8165 43.2684 34.8695 41.4421C36.3462 38.9808 38.9559 37.213 41.8124 36.8363Z" fill="#26272D"/>
<path d="M8.29785 38.7254C9.45073 37.9021 10.7877 37.3927 12.116 36.9319C12.7809 39.1535 13.0221 41.4806 13.1505 43.7878C11.8778 43.7664 10.6065 43.7692 9.33515 43.7721C9.10258 42.067 8.68452 40.3976 8.29785 38.7254Z" fill="#26272D"/>
<path d="M2.92578 38.4058C3.63919 39.0436 4.54808 39.4146 5.49407 39.5358C4.51955 40.4462 3.67629 41.4863 2.95146 42.6049C2.93862 41.2052 2.97287 39.8041 2.92578 38.4058Z" fill="#26272D"/>
<path d="M3.0698 44.4327C4.05003 42.3881 5.58815 40.6659 7.36597 39.279C7.77547 40.7487 8.04942 42.2525 8.35762 43.7464C8.13218 43.7992 7.8939 43.8235 7.68844 43.9348C7.53291 44.1688 7.56858 44.4627 7.5586 44.7309C7.57857 45.7782 7.56858 46.8284 7.55717 47.8771C7.56858 48.0997 7.53862 48.3465 7.65419 48.5491C7.96667 48.8345 8.42896 48.6946 8.81135 48.726C9.0111 50.9562 8.97829 53.1991 8.88554 55.435C7.56858 55.4607 6.2502 55.4193 4.93466 55.4564C4.52802 55.4578 4.50947 55.9301 4.4952 56.2297C3.56063 56.2911 2.62463 56.2625 1.69006 56.2269C1.73858 54.3463 1.70861 52.4629 1.71147 50.5809C1.69434 48.4649 2.11954 46.3304 3.0698 44.4327Z" fill="#26272D"/>
<path d="M27.6797 51.0774C27.4 51.2815 27.4029 51.7224 27.6854 51.9235C28.0535 52.2688 28.7142 51.8279 28.5501 51.3571C28.4744 50.9776 27.9579 50.8249 27.6797 51.0774ZM27.674 47.2036C27.5142 47.3934 27.4157 47.6759 27.5855 47.8956C27.7824 48.2751 28.3945 48.1924 28.5244 47.7986C28.7869 47.3135 28.0507 46.8069 27.674 47.2036ZM26.5411 42.6192C27.0462 42.8646 27.4571 43.2513 27.9194 43.5652C29.2264 44.4855 30.5005 45.4515 31.7833 46.4046C32.0743 46.6828 32.6308 46.8298 32.6179 47.3063C32.8619 50.6066 34.8381 53.6357 37.5733 55.4378C33.895 55.4792 30.2152 55.4521 26.5368 55.4478C26.5482 51.1716 26.4983 46.894 26.5411 42.6192Z" fill="#26272D"/>
<path d="M43.2249 43.5737C43.5702 44.3528 43.8613 45.1532 44.1738 45.9466C43.5502 45.9195 42.9253 45.9223 42.3018 45.908C42.6456 45.1447 42.9324 44.3571 43.2249 43.5737Z" fill="#26272D"/>
<path d="M9.55478 45.7996C9.17239 46.035 9.31936 46.6857 9.78165 46.6971C10.6335 46.7228 11.4867 46.6771 12.3399 46.7128C12.6025 46.6956 12.9421 46.777 13.1218 46.5273C13.3872 46.1977 13.0619 45.6369 12.6353 45.7382C11.6108 45.7796 10.5664 45.6769 9.55478 45.7996ZM8.53888 44.7566C10.4095 44.7509 12.28 44.7766 14.152 44.7751C14.1349 45.7568 14.1406 46.737 14.1406 47.7173C12.2729 47.7358 10.4052 47.7615 8.53746 47.723C8.5503 46.7342 8.5289 45.7454 8.53888 44.7566Z" fill="#26272D"/>
<path d="M9.84998 48.7574C10.913 48.7688 11.9788 48.7731 13.0418 48.7546C13.0846 50.9804 12.8249 53.192 12.7179 55.4107C11.7919 55.3978 10.8659 55.3893 9.93987 55.4135C9.96983 53.1963 10.0811 50.9676 9.84998 48.7574Z" fill="#26272D"/>
</svg>
