<svg width="43" height="68" viewBox="0 0 43 68" fill="none" xmlns="http://www.w3.org/2000/svg">
<path d="M38.8086 22.5913C36.2703 22.0403 33.8226 22.9932 31.6973 24.3273C31.8598 19.5446 33.4968 14.9834 35.0187 10.4293C35.6869 8.4297 36.6154 5.39853 35.1164 3.53545C34.4334 2.68655 33.3127 2.15991 32.3402 1.73016C31.2913 1.26674 30.1953 0.926201 29.0752 0.683887C26.6208 0.152733 24.0837 0.0383339 21.5798 0.00519562C18.9935 -0.0290031 16.3938 0.0998459 13.8479 0.579437C11.5224 1.0174 8.83119 1.70815 6.9123 3.16693C4.89704 4.69876 5.44556 7.07948 5.98719 9.21974C7.35849 14.639 9.7746 19.7148 10.2335 25.2707C8.84179 25.4082 7.63275 24.604 6.35874 24.1451C5.25375 23.7471 4.01408 23.6255 2.87569 23.962C0.799984 24.5755 -0.534067 26.6981 0.20666 28.8036C1.99737 33.8942 8.77631 34.6682 13.303 35.2039C19.3128 35.915 25.4228 35.9295 31.4317 35.1966C34.0741 34.8742 36.7599 34.3456 39.0593 32.9354C40.8786 31.8197 42.7152 30.0004 42.9723 27.7773C43.2667 25.2334 41.1672 23.1033 38.8086 22.5913Z" fill="white"/>
<path d="M35.9001 44.989C35.216 47.4686 33.372 49.3356 29.9504 49.3356C25.9776 49.3356 24.3017 46.7758 23.836 44.2453C23.5122 42.4854 24.1676 41.5734 25.2699 41.202C26.8969 40.6536 28.0359 40.5099 29.5929 40.4708C35.6246 40.3194 37.361 39.694 35.9001 44.989ZM19.249 43.8979C18.799 46.3555 17.3708 49.0634 13.3999 49.0634C9.98012 49.0634 7.64779 47.0758 7.19113 44.6195C6.08879 38.6887 7.49283 39.5253 13.6226 40.1967C15.5452 40.4073 19.843 40.6536 19.249 43.8979ZM39.3675 39.9097C39.3228 39.47 34.6575 39.4809 29.7589 39.6277C27.6282 39.6916 25.9737 39.8662 24.7876 40.2305L24.7881 40.2298C24.7881 40.2298 23.3678 40.4486 21.5955 40.6819C20.8384 40.7815 18.9212 40.459 18.082 40.3059C16.3369 39.6174 14.1265 39.3924 13.2629 39.3284C8.33576 38.9632 3.66632 38.8417 3.62125 39.2827C3.57591 39.7269 3.89537 42.0701 4.76362 41.8874C5.40387 41.7526 5.39048 42.5695 5.90599 44.1008C6.59144 46.137 8.80116 49.6555 13.0765 49.6555C18.8377 49.6555 19.4387 46.3232 20.3381 43.5244C20.3382 43.5241 20.3382 43.5238 20.3384 43.5236C20.3431 43.5173 21.2831 42.3218 22.6276 43.5514L22.6279 43.5511C22.6683 43.7383 22.7207 43.9336 22.786 44.138C23.6783 46.9281 24.2744 50.2503 29.9887 50.2503C34.2295 50.2503 36.4213 46.7427 37.1012 44.7129C37.6126 43.1862 37.6562 42.2815 38.6874 42.3483C39.4997 42.4009 39.4126 40.3524 39.3675 39.9097Z" fill="white"/>
<path d="M25.9849 59.2366C25.5965 59.5351 24.1576 59.7642 22.5555 59.8433C22.4689 59.686 22.3919 59.5142 22.3552 59.3505C22.2439 58.853 22.1733 58.3554 22.1733 58.3554C22.1733 58.3554 20.8989 58.1579 20.7371 58.3736C20.5752 58.5894 20.6831 59.0208 20.4673 59.5602C20.4256 59.6649 20.3734 59.7612 20.3168 59.8488C18.9139 59.7795 17.708 59.5593 17.3389 59.1287C16.5683 58.2296 16.7319 56.0827 17.5181 55.4275C18.5795 54.5431 25.1601 54.7597 25.9309 55.7306C26.5673 56.5321 26.6164 58.7512 25.9849 59.2366ZM21.5079 53.3034C21.5079 53.3034 21.4961 53.2912 21.5001 53.2701C21.5041 53.2912 21.5079 53.3034 21.5079 53.3034ZM36.3951 53.6809C36.3951 53.6809 35.9096 55.6767 34.3455 55.9463C32.7812 56.2161 30.4618 55.6767 29.3831 54.8136C28.3042 53.9505 26.8479 51.847 23.9891 52.0089C21.9479 52.1243 21.557 52.7347 21.5001 53.0745C21.4432 52.7347 21.0523 52.1243 19.0111 52.0089C16.1522 51.847 14.696 53.9505 13.6172 54.8136C12.5383 55.6767 10.219 56.2161 8.65483 55.9463C7.09053 55.6767 6.60511 53.6809 6.60511 53.6809C6.22745 56.9173 7.8457 59.7985 7.8457 59.7985C7.8457 59.7985 7.8457 57.8881 8.49297 59.4524C9.14025 61.0166 10.9202 62.0953 10.9202 62.0953C10.9202 62.0953 11.2438 61.2324 11.8911 62.5809C12.5383 63.9293 14.5341 64.8463 14.5341 64.8463L14.696 64.0911C14.696 64.0911 14.9116 64.4148 15.6668 65.4396C16.422 66.4644 18.094 67.2196 18.094 67.2196C18.094 67.2196 17.6626 66.5184 18.5795 66.9498C19.4485 67.3589 21.3002 67.5739 21.4915 67.5953V67.5971C21.4915 67.5971 21.4949 67.5968 21.5001 67.5962C21.5053 67.5968 21.5087 67.5971 21.5087 67.5971V67.5953C21.7 67.5739 23.5517 67.3589 24.4207 66.9498C25.3376 66.5184 24.9061 67.2196 24.9061 67.2196C24.9061 67.2196 26.5782 66.4644 27.3334 65.4396C28.0885 64.4148 28.3042 64.0911 28.3042 64.0911L28.4661 64.8463C28.4661 64.8463 30.4618 63.9293 31.1091 62.5809C31.7564 61.2324 32.08 62.0953 32.08 62.0953C32.08 62.0953 33.8599 61.0166 34.5072 59.4524C35.1545 57.8881 35.1545 59.7985 35.1545 59.7985C35.1545 59.7985 36.7726 56.9173 36.3951 53.6809Z" fill="#87ED82"/>
</svg>
