<svg width="25" height="34" viewBox="0 0 25 34" fill="none" xmlns="http://www.w3.org/2000/svg">
<path d="M21.4827 7.96415C21.4424 8.80355 21.2162 9.99914 20.3688 10.9263C19.7737 11.5777 18.9268 12.0538 18.0307 12.5577C17.7368 12.7229 17.4331 12.8937 17.1374 13.0719L17.099 13.095C15.8161 13.8742 15.0502 15.2358 15.0502 16.7378C15.0502 18.2398 15.8161 19.6017 17.099 20.3807L17.1374 20.4039C17.4331 20.5822 17.7368 20.7529 18.0307 20.918C18.9268 21.4222 19.7737 21.8983 20.3688 22.5495C21.2162 23.4767 21.4424 24.6722 21.4827 25.5119C21.5201 26.2842 21.5132 27.8055 21.5034 28.8067H3.49639C3.48655 27.8055 3.47976 26.2842 3.51713 25.5119C3.55771 24.6722 3.78396 23.4767 4.63122 22.5495C5.22626 21.8983 6.07302 21.4222 6.9695 20.918C7.26314 20.7529 7.56684 20.5822 7.86343 20.4034L7.90091 20.3807C9.18386 19.6017 9.94978 18.2398 9.94978 16.7378C9.94978 15.2358 9.18386 13.8742 7.90091 13.095L7.86272 13.0719C7.56681 12.8937 7.26312 12.7229 6.96944 12.5577C6.07299 12.0538 5.22623 11.5777 4.63122 10.9263C3.78396 9.99914 3.55771 8.80355 3.51713 7.96388C3.47976 7.19157 3.48655 5.67029 3.49639 4.66911H21.5034C21.5132 5.67029 21.5201 7.19157 21.4827 7.96415ZM25 4.24078V0.428307C25 0.191734 24.8082 -1.52588e-05 24.5717 -1.52588e-05H0.428404C0.191805 -1.52588e-05 0 0.191734 0 0.428307V4.24078C0 4.47735 0.191805 4.66911 0.428404 4.66911H1.81164C1.80164 5.68806 1.79517 7.22923 1.83463 8.0453C1.91202 9.64641 2.44908 11.0353 3.38771 12.0628C4.16505 12.9133 5.17102 13.479 6.14388 14.0262C6.4397 14.1925 6.71916 14.3495 6.99366 14.515L7.0266 14.5349C7.80225 15.0059 8.26531 15.8294 8.26531 16.7378C8.26531 17.6464 7.80225 18.4699 7.02657 18.941L6.99345 18.961C6.71919 19.1263 6.43975 19.2835 6.14388 19.4497C5.17104 19.9969 4.16505 20.5624 3.38771 21.4132C2.44908 22.4405 1.91202 23.8296 1.83463 25.4305C1.79517 26.2466 1.80164 27.788 1.81164 28.8067H0.428404C0.191805 28.8067 0 28.9985 0 29.2351V33.0474C0 33.2842 0.191805 33.4758 0.428404 33.4758H24.5717C24.8082 33.4758 25 33.2842 25 33.0474V29.2351C25 28.9985 24.8082 28.8067 24.5717 28.8067H23.1883C23.1984 27.788 23.2048 26.2466 23.1652 25.4305C23.0881 23.8296 22.551 22.4405 21.6124 21.4132C20.8348 20.5624 19.8288 19.9969 18.856 19.4497C18.56 19.2835 18.2808 19.1263 18.0071 18.9615L17.9734 18.941C17.1979 18.4699 16.7346 17.6464 16.7346 16.7378C16.7346 15.8294 17.1979 15.0059 17.9734 14.5349L18.0065 14.5147C18.2808 14.3495 18.56 14.1925 18.856 14.0262C19.8288 13.479 20.8348 12.9133 21.6124 12.0628C22.551 11.0353 23.0881 9.64641 23.1652 8.0453C23.2048 7.22923 23.1984 5.68806 23.1883 4.66911H24.5717C24.8082 4.66911 25 4.47735 25 4.24078Z" fill="#27AAE1"/>
<path d="M11.2487 21.1148C9.35421 21.9185 7.25262 22.8198 6.37418 23.7945C5.90736 24.3126 5.77513 25.0377 5.74987 25.5585C5.72565 26.0598 5.72291 26.7043 5.72734 27.549H19.2726C19.2771 26.7043 19.2742 26.0598 19.2501 25.5585C19.2247 25.0377 19.0924 24.3126 18.6258 23.7945C17.7472 22.8198 15.6456 21.9185 13.7512 21.1148C12.9515 20.7756 12.0484 20.7756 11.2487 21.1148Z" fill="#87ED82"/>
<path d="M11.8616 13.3974C11.996 13.6429 12.1733 13.8404 12.3977 13.8404C12.6125 13.8404 12.7811 13.6661 12.9091 13.4444C13.2619 12.8345 13.8259 12.3757 14.4918 12.1452C15.5654 11.7737 17.0519 11.1517 17.8174 10.3592C16.6838 10.5188 15.4892 10.2474 14.3897 9.8696C13.0181 9.39824 11.6835 8.76137 10.2443 8.58214C8.88137 8.41257 7.34911 8.75305 6.49109 9.80348C7.74923 10.9419 9.29086 11.6649 10.3344 12.0652C10.985 12.315 11.5267 12.7861 11.8616 13.3974Z" fill="#87ED82"/>
</svg>
