<svg width="48" height="31" viewBox="0 0 48 31" fill="none" xmlns="http://www.w3.org/2000/svg">
<path d="M24 20.6898C21.4904 20.6898 19.4484 18.6478 19.4484 16.1378C19.4484 13.6282 21.4904 11.5862 24 11.5862C26.51 11.5862 28.5517 13.6282 28.5517 16.1378C28.5517 18.6478 26.51 20.6898 24 20.6898ZM27.4232 21.3105C29.099 20.198 30.2069 18.2957 30.2069 16.1378C30.2069 12.715 27.4225 9.93092 24 9.93092C20.5772 9.93092 17.7931 12.715 17.7931 16.1378C17.7931 18.2957 18.9011 20.198 20.5766 21.3105C16.785 22.7096 14.0688 26.3491 14.0688 30.6207H15.7244C15.7244 26.0573 19.4366 22.3447 24 22.3447C28.5638 22.3447 32.276 26.0573 32.276 30.6207H33.9313C33.9313 26.3491 31.2151 22.7096 27.4232 21.3105Z" fill="#27AAE1"/>
<path d="M35.6994 17.1727C37.3749 16.0599 38.4829 14.1579 38.4829 12C38.4829 8.57724 35.6987 5.79313 32.276 5.79313C30.6178 5.79313 29.1129 6.4504 27.9984 7.51333C27.5856 7.90692 27.2292 8.35662 26.9368 8.85039C27.4531 9.05926 27.9446 9.31709 28.3999 9.62582C28.6926 9.14967 29.0689 8.73194 29.5108 8.39286C30.278 7.80314 31.2352 7.44838 32.276 7.44838C34.7856 7.44838 36.8276 9.49005 36.8276 12C36.8276 14.0835 35.4187 15.8402 33.505 16.3784C33.1134 16.4884 32.7022 16.5517 32.276 16.5517C32.1294 16.5517 31.9852 16.5432 31.8422 16.5298C31.8129 17.1257 31.7189 17.7037 31.5635 18.2575C31.8001 18.2373 32.0338 18.2069 32.276 18.2069C32.6121 18.2069 32.9417 18.2331 33.2674 18.2722C37.3641 18.7644 40.5519 22.2554 40.5519 26.4826H42.2069C42.2069 22.2113 39.491 18.5718 35.6994 17.1727Z" fill="#27AAE1"/>
<path d="M15.7243 18.2069C15.9658 18.2069 16.1998 18.2373 16.4361 18.2575C16.2808 17.7037 16.1874 17.1257 16.1577 16.5298C16.0148 16.5432 15.8706 16.5517 15.7243 16.5517C15.2978 16.5517 14.8866 16.4884 14.495 16.3784C12.5812 15.8402 11.1724 14.0835 11.1724 12C11.1724 9.49005 13.214 7.44838 15.7243 7.44838C16.7644 7.44838 17.722 7.80314 18.4892 8.39286C18.9311 8.73194 19.3074 9.14967 19.6001 9.62582C20.0554 9.31709 20.5469 9.05926 21.0632 8.85039C20.7711 8.35662 20.4144 7.90692 20.0012 7.51333C18.8867 6.4504 17.3822 5.79313 15.7243 5.79313C12.3012 5.79313 9.51712 8.57724 9.51712 12C9.51712 14.1579 10.6254 16.0599 12.3006 17.1727C8.50901 18.5718 5.79309 22.2113 5.79309 26.4826H7.44804C7.44804 22.2554 10.6358 18.7644 14.7329 18.2722C15.0586 18.2331 15.3879 18.2069 15.7243 18.2069Z" fill="#27AAE1"/>
<path d="M41.4925 11.3794C43.168 10.2668 44.276 8.36482 44.276 6.20698C44.276 2.78419 41.4918 7.05719e-05 38.0691 7.05719e-05C36.4109 7.05719e-05 34.9064 0.657345 33.7919 1.72028C33.3787 2.11386 33.0223 2.56391 32.7299 3.05735C33.2462 3.26622 33.7377 3.52403 34.193 3.83276C34.4857 3.35661 34.862 2.93888 35.3039 2.5998C36.0711 2.01008 37.0283 1.65501 38.0691 1.65501C40.5787 1.65501 42.6207 3.697 42.6207 6.20698C42.6207 8.04108 41.5281 9.61966 39.9609 10.3389C40.0308 10.7315 40.0739 11.1333 40.0739 11.5455C40.0739 11.9217 40.0334 12.2876 39.975 12.6476C43.6206 13.5114 46.345 16.7834 46.345 20.6899H48C48 16.4182 45.2841 12.7788 41.4925 11.3794Z" fill="#87ED82"/>
<path d="M7.92614 11.5455C7.92614 11.1333 7.96921 10.7315 8.03872 10.3389C6.4719 9.61966 5.37928 8.04108 5.37928 6.20698C5.37928 3.697 7.42093 1.65501 9.93092 1.65501C10.9713 1.65501 11.9285 2.01008 12.6961 2.5998C13.1377 2.93888 13.5143 3.35661 13.807 3.83276C14.2623 3.52403 14.7538 3.26622 15.2701 3.05735C14.978 2.56391 14.6209 2.11386 14.2081 1.72028C13.0936 0.657345 11.5891 7.05719e-05 9.93092 7.05719e-05C6.50845 7.05719e-05 3.72401 2.78419 3.72401 6.20698C3.72401 8.36482 4.83199 10.2668 6.50781 11.3794C2.71591 12.7788 0 16.4182 0 20.6899H1.65493C1.65493 16.7834 4.379 13.5114 8.02502 12.6476C7.9666 12.2876 7.92614 11.9217 7.92614 11.5455Z" fill="#87ED82"/>
<path d="M24.0001 1.65492C26.2131 1.65492 28.0426 3.25015 28.4483 5.34631C29.3545 4.8 30.0085 4.67761 30.0085 4.67761C29.3248 1.99336 26.8942 -1.19209e-05 24.0001 -1.19209e-05C21.106 -1.19209e-05 18.6756 1.99336 17.9916 4.67761C17.9916 4.67761 18.6456 4.8 19.5515 5.34631C19.9575 3.25015 21.7871 1.65492 24.0001 1.65492Z" fill="#87ED82"/>
</svg>
