<svg width="30" height="30" viewBox="0 0 30 30" fill="none" xmlns="http://www.w3.org/2000/svg">
<path d="M15 29.5C23.0082 29.5 29.5 23.0076 29.5 15C29.5 6.99179 23.0082 0.500032 15 0.5C6.99189 0.5 0.500001 6.99177 0.5 15C0.5 23.0076 6.99191 29.5 15 29.5Z" stroke="#87ED82"/>
<path d="M15.4518 6.67441C15.4516 6.42449 15.2491 6.22324 14.9996 6.22324C14.7502 6.22341 14.5477 6.42514 14.5475 6.67441V6.82578C14.6944 6.79866 14.845 6.78087 14.9996 6.78085C15.1543 6.78085 15.3051 6.79872 15.4518 6.82578V6.67441ZM12.4059 9.89316H17.5934C17.8429 9.89316 18.0455 9.69056 18.0455 9.44101C18.0454 9.19102 17.8429 8.98886 17.5934 8.98886H17.3385L17.3297 8.93222C17.1942 7.98604 16.4963 7.22346 15.5856 6.98984V7.71249C15.5854 8.03556 15.3227 8.29745 14.9996 8.29745C14.6767 8.29728 14.4148 8.03545 14.4147 7.71249V6.98984C13.504 7.22337 12.8059 7.98595 12.6705 8.93222L12.6617 8.98886H12.4069C12.1572 8.98886 11.9548 9.19102 11.9547 9.44101C11.9547 9.69042 12.1564 9.89291 12.4059 9.89316ZM14.9996 13.524C16.1089 13.524 17.0084 12.6254 17.0084 11.5162V11.0641H12.9918V11.5162L13.0016 11.7213C13.1043 12.734 13.9599 13.5239 14.9996 13.524ZM19.6022 16.4635V16.1236C19.6021 15.1025 18.9912 14.192 18.0631 13.7984L17.8737 13.7271L17.4186 13.5758C16.835 14.2594 15.9671 14.6949 14.9996 14.6949C14.0318 14.6948 13.164 14.2596 12.5807 13.5758L12.1256 13.7271C11.0923 14.0718 10.3982 15.0347 10.3981 16.1236V16.4635H19.6022ZM9.46643 23.7955H20.5328C20.7823 23.7955 20.9849 23.5928 20.985 23.3434V22.8219H20.7057C19.5253 22.8218 18.5642 21.8612 18.5641 20.6803C18.5641 19.4998 19.5252 18.5387 20.7057 18.5387H20.985V18.0865C20.985 17.8369 20.7829 17.6344 20.5328 17.6344H9.46643C9.21695 17.6346 9.01428 17.8371 9.01428 18.0865V18.5387H9.29358C10.4745 18.5387 11.4352 19.4998 11.4352 20.6803C11.435 21.8613 10.4745 22.8219 9.29358 22.8219H9.01428V23.3434C9.01436 23.5927 9.21695 23.7953 9.46643 23.7955ZM8.77502 21.651H9.29358C9.82967 21.651 10.2641 21.2167 10.2643 20.6803C10.2643 20.1443 9.82973 19.7096 9.29358 19.7096H8.77502C8.52549 19.7097 8.32288 19.9122 8.32288 20.1617V21.1988C8.32294 21.4483 8.52547 21.6509 8.77502 21.651ZM20.7057 21.651H21.2242C21.4738 21.651 21.6763 21.4483 21.6764 21.1988V20.1617C21.6764 19.9122 21.4738 19.7096 21.2242 19.7096H20.7057C20.1698 19.7096 19.735 20.1444 19.735 20.6803C19.7351 21.2166 20.1699 21.6509 20.7057 21.651Z" fill="#27AAE1" stroke="#87ED82" stroke-width="0.133333"/>
</svg>
