<svg width="31" height="34" viewBox="0 0 31 34" fill="none" xmlns="http://www.w3.org/2000/svg">
<path d="M10.0214 3.00417C9.57956 2.70372 9.04187 2.56349 8.50858 2.57966C8.37541 2.58378 8.24224 2.59759 8.11112 2.62141C7.84889 2.66844 7.5943 2.75488 7.3597 2.87982C7.24211 2.94214 7.12981 3.01417 7.02427 3.0959L7.02398 3.09619C6.9499 3.15352 6.88139 3.21614 6.81495 3.2817C6.80084 3.29522 6.78703 3.30903 6.77351 3.32285C6.70854 3.39047 6.64621 3.46102 6.58918 3.53569C6.588 3.53746 6.58682 3.53922 6.58535 3.54098C6.5245 3.62094 6.46864 3.70532 6.41779 3.79175C6.41661 3.79351 6.41544 3.79557 6.41426 3.79733C6.03297 4.44615 5.92801 5.26225 6.18172 5.97368C5.69283 5.98779 5.21364 6.12714 4.78149 6.35556C4.76414 6.36468 4.74591 6.3735 4.72827 6.3829C4.66154 6.41994 4.59657 6.45934 4.53249 6.50049C4.49397 6.52519 4.45693 6.55135 4.4193 6.57752C4.3655 6.61515 4.31141 6.6519 4.26055 6.69276C4.17706 6.75861 4.09768 6.82887 4.02095 6.90237C3.99097 6.93147 3.96275 6.96293 3.93364 6.99321C3.87543 7.05377 3.81958 7.11668 3.76637 7.18165C3.74226 7.21134 3.71786 7.24074 3.69493 7.27132C3.62261 7.36716 3.55382 7.46534 3.49296 7.56912C3.49296 7.56912 3.49267 7.56941 3.49267 7.56971C3.43093 7.67554 3.37801 7.78578 3.32951 7.89808C3.31451 7.93277 3.30158 7.96805 3.28806 8.00303C3.25631 8.08447 3.2278 8.16708 3.20281 8.25116C3.19134 8.28937 3.17958 8.3273 3.16988 8.3661C3.14401 8.46576 3.12314 8.5666 3.10697 8.66802C3.10374 8.68801 3.09873 8.70741 3.09579 8.72741C3.07933 8.84323 3.07081 8.96053 3.06669 9.07783C3.06493 9.12369 3.0661 9.16926 3.0664 9.21541C3.06698 9.29185 3.06993 9.36829 3.07522 9.44443C3.07904 9.49411 3.08286 9.54291 3.08874 9.5923C3.09873 9.6755 3.11285 9.75781 3.12931 9.84012C3.18781 10.1373 3.28335 10.4272 3.42535 10.6959C3.02583 10.8741 2.66276 11.1189 2.33938 11.4091C2.30675 11.4376 2.27382 11.4656 2.24207 11.4955C2.19356 11.5414 2.14771 11.5896 2.10155 11.6378C2.06745 11.6731 2.03305 11.7078 2.00042 11.7442C1.9572 11.7919 1.91575 11.841 1.8743 11.8906C1.84137 11.9306 1.80875 11.9706 1.7767 12.0115C1.73849 12.0609 1.70085 12.1111 1.6644 12.1623C1.63294 12.2064 1.60295 12.2508 1.57297 12.2958C1.53916 12.3466 1.50565 12.3978 1.47361 12.4498C1.44391 12.4989 1.41599 12.5489 1.38777 12.5989C1.35954 12.6491 1.33014 12.6991 1.30368 12.7505C1.27311 12.8102 1.24518 12.8711 1.21696 12.9319C1.19668 12.976 1.17462 13.0189 1.15522 13.0636C1.11142 13.1665 1.07115 13.2712 1.0344 13.377C1.01999 13.4191 1.00823 13.4617 0.995003 13.504C0.973249 13.5731 0.951498 13.6422 0.932683 13.7125C0.920336 13.7592 0.910337 13.8062 0.899459 13.8533C0.883878 13.9203 0.869181 13.9873 0.856833 14.0549C0.84772 14.1032 0.840369 14.1514 0.833019 14.1996C0.82273 14.2675 0.814208 14.3357 0.807152 14.4039C0.802155 14.4515 0.797445 14.4994 0.794212 14.5471C0.789214 14.6182 0.786574 14.6894 0.785104 14.7602C0.784222 14.8055 0.78275 14.8507 0.783338 14.896C0.783926 14.9745 0.788626 15.0527 0.793917 15.1312C0.796269 15.1688 0.797151 15.2065 0.800973 15.2444C0.81185 15.3602 0.82714 15.476 0.848013 15.591C0.872413 15.7236 0.902697 15.857 0.932683 15.9899C0.949734 16.0655 0.966489 16.141 0.982364 16.2169C0.989126 16.2492 1.00059 16.3104 1.01323 16.3874H3.28071C3.25572 16.3112 3.23485 16.2389 3.21604 16.1666L3.19898 16.0931C3.17605 15.9899 3.16165 15.91 3.15018 15.83L3.43711 15.7586L3.14636 15.8L3.13725 15.7342C3.1252 15.6216 3.11755 15.5107 3.11755 15.3996C3.11755 13.6757 4.51984 12.2728 6.24404 12.2728C7.96795 12.2728 9.37053 13.6757 9.37053 15.3996C9.37053 15.511 9.3626 15.6222 9.35054 15.7321C9.3476 15.7592 9.34379 15.7862 9.33967 15.8138C9.32585 15.9103 9.31145 15.9908 9.29381 16.0702L9.27235 16.1634C9.25295 16.2398 9.23149 16.3142 9.20738 16.3874H14.4379V10.0785C14.4379 9.83131 14.5831 9.60494 14.8077 9.50176C15.0341 9.39916 15.3001 9.43737 15.4868 9.59847C15.8252 9.89069 16.2544 10.0512 16.6948 10.0512C17.719 10.0512 18.5525 9.21806 18.5525 8.19383C18.5525 7.1696 17.719 6.33645 16.6948 6.33645C16.2541 6.33645 15.8252 6.49726 15.4865 6.78919C15.3001 6.95117 15.0341 6.9888 14.8089 6.8862C14.5831 6.78242 14.4379 6.55606 14.4379 6.30911V0.770794C14.1854 0.50621 13.8917 0.285435 13.5639 0.13521C13.5019 0.106693 13.439 0.0805244 13.3749 0.0573006C13.3158 0.0358391 13.2555 0.0170269 13.1946 -2.47955e-05H11.9438C11.4469 0.138735 10.9904 0.431837 10.6411 0.818422C10.1031 1.41344 9.8171 2.22306 10.0214 3.00417Z" fill="#27AAE1"/>
<path d="M29.3864 15.9899C29.4167 15.857 29.4467 15.7235 29.4714 15.5909C29.4922 15.476 29.5075 15.3602 29.5184 15.2443C29.5219 15.2064 29.5228 15.1688 29.5254 15.1312C29.5307 15.0527 29.5351 14.9745 29.536 14.896C29.5366 14.8507 29.5349 14.8054 29.534 14.7602C29.5328 14.6893 29.5301 14.6182 29.5251 14.547C29.5216 14.4994 29.5172 14.4515 29.5122 14.4038C29.5052 14.3356 29.4963 14.2674 29.4861 14.1995C29.479 14.1513 29.4716 14.1031 29.4625 14.0549C29.4499 13.9873 29.4352 13.9202 29.4199 13.8532C29.409 13.8062 29.3987 13.7591 29.3861 13.7124C29.3679 13.6421 29.3461 13.5731 29.3244 13.504C29.3111 13.4616 29.2994 13.419 29.285 13.377C29.2482 13.2711 29.2079 13.1665 29.1641 13.0636C29.1447 13.0186 29.1224 12.9757 29.1021 12.9313C29.0739 12.8707 29.0463 12.8102 29.0157 12.7508C28.9889 12.699 28.9598 12.6488 28.9313 12.5982C28.9034 12.5485 28.8755 12.4985 28.8458 12.45C28.8137 12.3977 28.7802 12.3466 28.7464 12.2957C28.7164 12.2507 28.6864 12.2063 28.655 12.1622C28.6182 12.1111 28.5809 12.0608 28.5424 12.0114C28.5106 11.9706 28.478 11.9306 28.4448 11.8906C28.4036 11.8409 28.3622 11.7918 28.3189 11.7442C28.286 11.7077 28.2516 11.673 28.2178 11.6378C28.1717 11.5896 28.1252 11.5413 28.077 11.4955C28.0455 11.4655 28.0126 11.4376 27.98 11.4091C27.6563 11.1189 27.2932 10.874 26.894 10.6959C27.0354 10.4272 27.1316 10.1373 27.1901 9.84007C27.2062 9.75776 27.2203 9.67544 27.2303 9.59225C27.2362 9.54286 27.2403 9.49406 27.2436 9.44437C27.2494 9.36823 27.2524 9.2918 27.253 9.21536C27.2533 9.16921 27.2541 9.12364 27.2527 9.07778C27.2486 8.96048 27.24 8.84318 27.2236 8.72735C27.2206 8.70736 27.2156 8.68796 27.2124 8.66797C27.1962 8.56654 27.1754 8.46571 27.1495 8.36605C27.1398 8.32725 27.128 8.28932 27.1166 8.2511C27.0916 8.16703 27.0631 8.08441 27.0313 8.00298C27.0178 7.968 27.0048 7.93272 26.9899 7.89803C26.9413 7.78573 26.8881 7.67549 26.8264 7.56965C26.8264 7.56936 26.8261 7.56907 26.8258 7.56907C26.7652 7.46529 26.6968 7.3671 26.6244 7.27127C26.6015 7.24069 26.5771 7.21129 26.553 7.1816C26.4995 7.11663 26.4439 7.05372 26.3854 6.99316C26.3566 6.96288 26.3284 6.93142 26.2981 6.90232C26.2217 6.82882 26.142 6.75856 26.0588 6.69271C26.0074 6.65184 25.9536 6.6151 25.8998 6.57747C25.8624 6.5513 25.8251 6.52514 25.7869 6.50044C25.7228 6.45928 25.6578 6.41989 25.5905 6.38285C25.5735 6.37344 25.5552 6.36492 25.5379 6.35581C25.1057 6.12709 24.6265 5.98774 24.1376 5.97363C24.3913 5.26219 24.2864 4.4461 23.9051 3.79728C23.9039 3.79552 23.9027 3.79375 23.9016 3.7917C23.8504 3.70527 23.7949 3.62089 23.7337 3.54093C23.7325 3.53917 23.7314 3.5374 23.7302 3.53564C23.6729 3.46097 23.6108 3.39041 23.5453 3.3228C23.5317 3.30898 23.5182 3.29517 23.5044 3.28164C23.438 3.21608 23.3695 3.15347 23.2954 3.09614L23.2951 3.09584C23.1893 3.01412 23.0773 2.94209 22.9597 2.87976C22.4905 2.62988 21.9407 2.53463 21.4116 2.59696C21.0144 2.64341 20.629 2.77893 20.2977 3.00412C20.5023 2.22301 20.2162 1.41339 19.6782 0.818369C19.4592 0.575834 19.1967 0.372107 18.9101 0.217178H16.6003C16.2919 0.384161 16.0132 0.607584 15.78 0.876577C15.7539 0.906563 15.7312 0.939194 15.7065 0.970356V5.22985C16.0252 5.12314 16.3604 5.06728 16.6949 5.06728C18.4188 5.06728 19.8214 6.46987 19.8214 8.19378C19.8214 9.91768 18.4188 11.3203 16.6949 11.3203C16.3604 11.3203 16.0252 11.2644 15.7065 11.1574V16.3873H22.0157C22.2629 16.3873 22.4896 16.5326 22.5925 16.7575C22.618 16.8139 22.6354 16.8724 22.6439 16.9321C22.6524 16.9921 22.6525 17.0526 22.6436 17.112C22.6269 17.2308 22.576 17.3431 22.4966 17.436C22.2041 17.7752 22.043 18.2044 22.043 18.6448C22.043 19.6691 22.8762 20.5022 23.9004 20.5022C24.9249 20.5022 25.7581 19.6691 25.7581 18.6448C25.7581 18.2041 25.5973 17.7749 25.305 17.4366C25.2257 17.344 25.1745 17.2319 25.1575 17.112C25.1489 17.0517 25.1489 16.9929 25.1569 16.9347C25.166 16.8715 25.1836 16.8124 25.2092 16.7566C25.3118 16.5326 25.5382 16.3873 25.7851 16.3873H29.3061C29.3161 16.3306 29.3249 16.2736 29.3367 16.2168C29.3529 16.141 29.3696 16.0654 29.3864 15.9899Z" fill="#1D91C2"/>
<path d="M14.2156 28.8781L14.1471 28.8942C14.0398 28.918 13.9595 28.9327 13.8781 28.9439C13.8378 28.9498 13.8099 28.9539 13.7814 28.9569C13.672 28.9689 13.5609 28.9766 13.4495 28.9766C11.7253 28.9766 10.323 27.5743 10.323 25.8504C10.323 24.1262 11.7253 22.7239 13.4495 22.7239C13.5609 22.7239 13.672 22.7315 13.782 22.7436C13.8099 22.7465 13.8378 22.7509 13.8658 22.7547C13.9604 22.7682 14.0401 22.7827 14.1201 22.8006L14.2138 22.822C14.29 22.8412 14.3647 22.8629 14.4379 22.887V17.6565H8.12871C7.88118 17.6565 7.65482 17.511 7.55193 17.2861C7.44903 17.0612 7.48666 16.7948 7.64806 16.6076C7.94057 16.2689 8.10137 15.84 8.10137 15.3996C8.10137 14.3751 7.26823 13.5419 6.244 13.5419C5.21948 13.5419 4.38604 14.3751 4.38604 15.3996C4.38604 15.84 4.54714 16.2689 4.83936 16.6073C5.00105 16.7948 5.03868 17.0612 4.93608 17.2861C4.83318 17.511 4.60652 17.6565 4.35928 17.6565H0.870901C0.795935 17.8279 0.71215 17.9963 0.627777 18.1633C0.517534 18.3823 0.415229 18.609 0.326152 18.8404C0.281761 18.9562 0.2409 19.0729 0.204153 19.1908C0.0568679 19.6626 -0.0245641 20.1495 0.00659794 20.6342C0.0142415 20.7557 0.0292282 20.8768 0.0515708 20.9973C0.063624 21.0614 0.0786174 21.1246 0.0959623 21.1878C0.0983142 21.1972 0.101549 21.2063 0.104195 21.2154C0.120364 21.2713 0.138005 21.3272 0.157996 21.3818C0.158584 21.3833 0.158879 21.3848 0.159467 21.3862C0.453154 22.1909 1.16194 22.865 2.0089 22.8897C1.56558 23.8313 1.57204 24.9625 1.98538 25.9141C1.99009 25.9253 1.99479 25.9362 1.99949 25.9471C2.05035 26.0611 2.10709 26.1728 2.17 26.2813C2.18 26.2984 2.19058 26.3151 2.20087 26.3319C2.26584 26.4401 2.33522 26.5456 2.41224 26.6462C2.41224 26.6465 2.41254 26.6465 2.41254 26.6467C2.4875 26.7446 2.56952 26.8364 2.65448 26.9251C2.66918 26.9404 2.683 26.9557 2.6977 26.9704C2.78472 27.0583 2.87644 27.1412 2.97199 27.2194C2.97845 27.2247 2.98551 27.23 2.99197 27.2353C3.80572 27.8903 4.90433 28.1951 5.93532 28.0096C5.71307 28.6273 5.72012 29.3114 5.9118 29.9382C5.92209 29.9729 5.93209 30.0072 5.94355 30.0416C5.96678 30.1096 5.99147 30.1766 6.01969 30.243C6.05056 30.3168 6.08496 30.3888 6.12141 30.4603C6.14875 30.5132 6.17609 30.5655 6.20637 30.6167C6.25694 30.7031 6.31191 30.7869 6.371 30.868C6.39393 30.8989 6.41657 30.9289 6.44038 30.9589C6.51975 31.0588 6.60324 31.1561 6.69614 31.2446L6.69644 31.2449C6.78963 31.3343 6.89076 31.414 6.99483 31.4892C7.02776 31.5127 7.06097 31.5354 7.09449 31.5577C7.17122 31.6083 7.25001 31.6547 7.33085 31.6976C7.36848 31.7182 7.40523 31.7406 7.44374 31.7591C7.54193 31.8061 7.64277 31.8476 7.74537 31.8843C7.81769 31.9105 7.89118 31.9317 7.96526 31.9525C7.99995 31.9622 8.03523 31.9713 8.07021 31.9799C8.69551 32.1339 9.36609 32.1072 9.96228 31.8623C10.3515 32.9186 11.3311 33.6323 12.4179 33.8916C12.4488 33.8993 12.4793 33.9081 12.5102 33.9146C12.5814 33.9298 12.6531 33.941 12.7254 33.9522C12.7795 33.961 12.8336 33.9695 12.888 33.9757C12.9474 33.9828 13.0068 33.9866 13.0664 33.9907C13.1346 33.9954 13.2031 33.9986 13.2713 33.9998C13.3216 34.0004 13.3716 33.9995 13.4219 33.9983C13.5003 33.9963 13.5782 33.9916 13.6564 33.9845C13.6982 33.9807 13.7399 33.9766 13.7814 33.9713C13.8687 33.9601 13.9551 33.9451 14.041 33.9272C14.0739 33.9207 14.1068 33.9146 14.1392 33.9069C14.2362 33.884 14.3314 33.8555 14.4261 33.8237C14.4299 33.8225 14.4337 33.8214 14.4379 33.8199V28.8137C14.3614 28.8387 14.2888 28.8595 14.2156 28.8781Z" fill="#167FAC"/>
<path d="M15.893 33.8237C15.9874 33.8555 16.0827 33.884 16.18 33.9069C16.2123 33.9146 16.2452 33.9207 16.2782 33.9272C16.364 33.9451 16.4504 33.9601 16.5374 33.9713C16.5792 33.9766 16.6209 33.9807 16.6627 33.9845C16.7409 33.9916 16.8185 33.9963 16.8973 33.9983C16.9476 33.9995 16.9975 34.0004 17.0478 33.9998C17.116 33.9986 17.1845 33.9954 17.2527 33.9907C17.3124 33.9866 17.3715 33.9828 17.4309 33.9757C17.4855 33.9695 17.5396 33.961 17.5937 33.9522C17.6658 33.941 17.7372 33.9298 17.8089 33.9146C17.8398 33.9081 17.8704 33.8993 17.9012 33.8916C18.9878 33.6323 19.9673 32.9186 20.3569 31.8623C20.9531 32.1072 21.6236 32.1339 22.2489 31.9799C22.2839 31.9713 22.3186 31.9622 22.3539 31.9525C22.428 31.9317 22.5015 31.9105 22.5738 31.8843C22.6764 31.8476 22.7772 31.8061 22.8754 31.7591C22.9139 31.7406 22.9504 31.7182 22.9883 31.6976C23.0691 31.6547 23.1479 31.6083 23.2244 31.5577C23.2582 31.5354 23.2914 31.5127 23.324 31.4892C23.4284 31.414 23.5295 31.3343 23.6227 31.2449C23.6227 31.2449 23.6227 31.2446 23.623 31.2446C23.7156 31.1561 23.7994 31.0588 23.8788 30.9589C23.9026 30.9289 23.9252 30.8989 23.9478 30.868C24.0072 30.7869 24.0619 30.7031 24.1128 30.6167C24.143 30.5655 24.1704 30.5132 24.1977 30.4603C24.2339 30.3888 24.2686 30.3168 24.2994 30.243C24.3274 30.1766 24.3521 30.1096 24.3756 30.0416C24.3871 30.0072 24.397 29.9729 24.4073 29.9382C24.5987 29.3114 24.6061 28.6273 24.3838 28.0096C25.4148 28.1951 26.5134 27.8903 27.3272 27.2353C27.3336 27.23 27.3404 27.2247 27.3472 27.2194C27.4427 27.1412 27.5341 27.0583 27.6214 26.9704C27.6358 26.9557 27.65 26.9404 27.6646 26.9251C27.7496 26.8364 27.8313 26.7446 27.9066 26.6467C27.9066 26.6465 27.9069 26.6465 27.9069 26.6462C27.9839 26.5456 28.053 26.4401 28.1183 26.3319C28.1286 26.3151 28.1391 26.2984 28.1488 26.2813C28.2117 26.1728 28.2688 26.0611 28.3196 25.9471C28.3243 25.9362 28.329 25.9253 28.3335 25.9141C28.7471 24.9625 28.7536 23.8313 28.3099 22.8897C29.1572 22.865 29.8657 22.1909 30.1594 21.3862C30.1597 21.3848 30.1606 21.3833 30.1611 21.3818C30.1811 21.3272 30.1988 21.2713 30.2146 21.2154C30.2176 21.2063 30.2205 21.1972 30.2232 21.1878C30.2405 21.1246 30.2552 21.0614 30.2676 20.9973C30.2899 20.8768 30.3043 20.7557 30.3122 20.6342C30.3278 20.392 30.3155 20.1489 30.2805 19.9078C30.2285 19.5456 30.1259 19.1876 29.9927 18.8404C29.9039 18.609 29.8016 18.3823 29.6914 18.1633C29.6067 17.9963 29.5229 17.8279 29.4479 17.6565H26.8638C26.9711 17.9752 27.0267 18.3103 27.0267 18.6449C27.0267 20.3688 25.6244 21.7714 23.9002 21.7714C22.1763 21.7714 20.774 20.3688 20.774 18.6449C20.774 18.3103 20.8296 17.9752 20.9366 17.6565H15.7064V23.9656C15.7064 24.2129 15.5611 24.4395 15.3359 24.5421C15.1105 24.6453 14.845 24.6068 14.658 24.446C14.3191 24.1535 13.8901 23.9927 13.4495 23.9927C12.4249 23.9927 11.5918 24.8258 11.5918 25.8504C11.5918 26.8746 12.4249 27.7077 13.4495 27.7077C13.8904 27.7077 14.3194 27.5469 14.6577 27.2547C14.8453 27.0933 15.1113 27.056 15.3357 27.158C15.5611 27.2612 15.7064 27.4875 15.7064 27.7351V33.7508C15.7478 33.7676 15.7878 33.7884 15.8298 33.8034C15.8504 33.8111 15.8722 33.8167 15.893 33.8237Z" fill="#87ED82"/>
<path d="M11.949 9.48615H7.38636C6.9986 9.48615 6.6814 9.16894 6.6814 8.78088C6.6814 8.39312 6.9986 8.07592 7.38636 8.07592H11.949C12.3367 8.07592 12.6539 8.39312 12.6539 8.78088C12.6539 9.16894 12.3367 9.48615 11.949 9.48615Z" fill="white"/>
<path d="M8.96289 11.0622V6.49959C8.96289 6.11183 9.2801 5.79462 9.66786 5.79462C10.0559 5.79462 10.3731 6.11183 10.3731 6.49959V11.0622C10.3731 11.4499 10.0559 11.7672 9.66786 11.7672C9.2801 11.7672 8.96289 11.4499 8.96289 11.0622Z" fill="white"/>
</svg>
