<svg width="45" height="40" viewBox="0 0 45 40" fill="none" xmlns="http://www.w3.org/2000/svg">
<path d="M42.5183 19.2503C42.4119 15.6268 40.1507 12.799 36.4385 11.6081C36.4385 11.6079 36.4385 11.6079 36.4385 11.6079C36.4564 6.5768 32.0213 2.47838 26.5682 2.47838C22.8296 2.47838 19.4259 4.42366 17.7564 7.47268C17.1917 7.36189 16.6115 7.30545 16.0258 7.30545C15.33 7.30545 14.6272 7.38516 13.9366 7.54093C11.8808 8.00788 10.0837 9.11476 8.87575 10.6592C8.00001 11.7791 7.49364 13.0465 7.39726 14.3504C4.479 15.2479 2.47937 17.8796 2.47937 20.9014C2.47937 24.6964 5.65881 27.7842 9.56828 27.7842H14.9644V25.7769C14.9644 24.529 15.5844 23.3626 16.6186 22.6645L17.9377 21.7742C17.5383 20.4448 17.336 19.0704 17.336 17.6785C17.336 13.7404 18.9902 9.93875 21.8745 7.24832L22.5007 6.66415L23.1269 7.24832C26.0111 9.93875 27.6651 13.7406 27.6651 17.6785C27.6651 19.0704 27.4628 20.4448 27.0633 21.7742L28.3823 22.6645C29.4166 23.3626 30.0366 24.529 30.0366 25.7769V27.7842H30.793C30.8937 27.7842 31.0248 27.7882 31.1915 27.7928L31.2339 27.7939C31.4855 27.8012 31.7691 27.809 32.0478 27.809C32.55 27.809 32.9156 27.7842 33.2205 27.7296C36.0322 27.6555 38.6306 26.5865 40.3558 24.7917C41.8313 23.2577 42.5793 21.3411 42.5183 19.2503Z" fill="#27AAE1"/>
<path d="M41.2165 25.6194C39.3049 27.6062 36.4478 28.8089 33.3757 28.9192L33.3022 28.9265C32.9589 28.9779 32.5604 29.0017 32.0481 29.0017C31.7615 29.0017 31.4825 28.9944 31.1979 28.9871L31.073 28.9834C30.9593 28.9798 30.8674 28.9779 30.792 28.9779H29.1175V26.1525C29.1175 24.9751 28.5328 23.8747 27.5574 23.2157L25.9756 22.147C26.4713 20.7496 26.7468 19.2475 26.7468 17.6794C26.7468 13.8251 25.1125 10.3564 22.4995 7.91967C19.8885 10.3564 18.2542 13.8251 18.2542 17.6794C18.2542 19.2475 18.5296 20.7496 19.0254 22.147L17.4427 23.2157C16.4666 23.8747 15.8817 24.9755 15.8817 26.153V28.9779H9.5687C5.00194 28.9779 1.28539 25.3549 1.28539 20.9021C1.28539 17.7327 3.09782 14.936 6.01382 13.6029L6.30209 13.4707L6.37172 13.1604C6.63446 12.0035 7.16133 10.9147 7.93444 9.92486C9.31169 8.16401 11.3499 6.90432 13.6709 6.37728C14.4531 6.20102 15.2446 6.11106 16.025 6.11106C16.2766 6.11106 16.5317 6.12201 16.7833 6.14041L17.1433 6.16611L17.3545 5.87229C19.4 3.00039 22.8447 1.28539 26.5688 1.28539C32.1894 1.28539 36.914 5.19851 37.5586 10.3896L37.6045 10.753L37.9407 10.8999C41.4975 12.4479 43.6018 15.4795 43.7119 19.2145C43.7817 21.6347 42.9187 23.8492 41.2165 25.6194ZM22.4995 16.4105C21.6788 16.4105 21.0122 15.744 21.0122 14.9214C21.0122 14.0986 21.6788 13.4322 22.4995 13.4322C23.3223 13.4322 23.9888 14.0986 23.9888 14.9214C23.9888 15.744 23.3223 16.4105 22.4995 16.4105ZM44.9954 19.1779C44.8744 15.0407 42.6156 11.6675 38.7834 9.86981C37.891 4.21788 32.7073 -3.8147e-06 26.5688 -3.8147e-06C22.5565 -3.8147e-06 18.8271 1.80131 16.5189 4.83661C15.4703 4.79268 14.4256 4.88993 13.3881 5.12314C10.777 5.71618 8.48162 7.13927 6.92273 9.13161C6.09822 10.1857 5.51786 11.3407 5.19469 12.5691C2.02915 14.1464 0 17.3838 0 20.9021C0 26.0638 4.29326 30.2633 9.5687 30.2633H15.8817V32.2922L16.4015 30.4524C16.4197 30.3881 16.44 30.3256 16.4621 30.2633C16.6291 29.7803 16.9026 29.3415 17.2644 28.9815C17.2663 28.9798 17.2663 28.9798 17.2682 28.9779C17.5858 28.6639 17.9567 28.4178 18.3606 28.2489C18.7665 28.0818 19.2053 27.9919 19.6533 27.9919H21.2694C21.1573 28.3168 21.0655 28.6455 20.9901 28.9779C20.8948 29.4038 20.8267 29.8335 20.7845 30.2633C20.3273 34.7639 22.4995 39.3197 22.4995 39.3197C22.4995 39.3197 24.6737 34.7621 24.2164 30.2633C24.1742 29.8317 24.1063 29.4021 24.0108 28.9779C23.9355 28.6455 23.8438 28.3168 23.7318 27.9919H25.3476C26.2419 27.9919 27.0994 28.3461 27.7329 28.9779C27.7347 28.9798 27.7347 28.9798 27.7366 28.9815C28.0983 29.3415 28.372 29.7803 28.539 30.2633C28.5611 30.3256 28.5812 30.3881 28.5996 30.4524L29.1175 32.2922V30.2633H30.792C30.8582 30.2633 30.9372 30.265 31.0364 30.2688L31.1612 30.2725C31.455 30.2797 31.745 30.287 32.0481 30.287C32.6081 30.287 33.058 30.2613 33.4583 30.2026C36.848 30.0722 40.0101 28.7262 42.1419 26.5099C44.0901 24.4846 45.0763 21.9506 44.9954 19.1779Z" fill="#87ED82"/>
<path d="M15.8817 39.6627C15.6924 39.6627 15.5387 39.509 15.5387 39.3195V33.8105C15.5387 33.6211 15.6924 33.4675 15.8817 33.4675C16.0711 33.4675 16.2248 33.6211 16.2248 33.8105V39.3195C16.2248 39.509 16.0711 39.6627 15.8817 39.6627Z" fill="#87ED82"/>
<path d="M18.2118 39.6627C18.0223 39.6627 17.8687 39.509 17.8687 39.3195V30.4369C17.8687 30.2476 18.0223 30.094 18.2118 30.094C18.4012 30.094 18.5548 30.2476 18.5548 30.4369V39.3195C18.5548 39.509 18.4012 39.6627 18.2118 39.6627Z" fill="#87ED82"/>
<path d="M26.1025 39.6627C25.9131 39.6627 25.7594 39.509 25.7594 39.3195V30.4369C25.7594 30.2476 25.9131 30.094 26.1025 30.094C26.292 30.094 26.4455 30.2476 26.4455 30.4369V39.3195C26.4455 39.509 26.292 39.6627 26.1025 39.6627Z" fill="#87ED82"/>
<path d="M29.1044 39.6627C28.9152 39.6627 28.7615 39.509 28.7615 39.3195V33.8105C28.7615 33.6211 28.9152 33.4675 29.1044 33.4675C29.2939 33.4675 29.4476 33.6211 29.4476 33.8105V39.3195C29.4476 39.509 29.2939 39.6627 29.1044 39.6627Z" fill="#87ED82"/>
</svg>
