<svg width="28" height="28" viewBox="0 0 28 28" fill="none" xmlns="http://www.w3.org/2000/svg">
<path fill-rule="evenodd" clip-rule="evenodd" d="M15.5831 13.1274C15.3741 13.1274 15.165 13.049 14.9995 12.8835C14.6772 12.5612 14.6772 12.0473 14.9995 11.725L18.6928 8.03174C19.0151 7.70945 19.529 7.70945 19.8513 8.03174C20.1736 8.35403 20.1736 8.86795 19.8513 9.19024L16.158 12.8835C16.0013 13.049 15.7922 13.1274 15.5831 13.1274ZM14.0675 16.2458L20.853 23.0313L24.6683 19.2161L24.2414 18.0663L23.5533 16.1848L22.9 14.4079L22.2119 12.5264L21.3495 10.1832L22.9349 7.98819C22.177 6.75129 21.1143 5.72344 19.86 5.00047L17.7172 6.55095L14.8863 5.50568L13.0048 4.80883L11.2279 4.15554L9.34639 3.4587L8.47534 3.13641L4.7298 6.88195L11.6547 13.8068L10.4352 15.035H6.80291L4.9824 16.8555L8.01368 19.8868L11.0449 22.9181L12.8655 21.0976V17.4653L14.0675 16.2458Z" fill="#87ED82"/>
<path fill-rule="evenodd" clip-rule="evenodd" d="M16.1666 12.8835L19.8599 9.19021C20.1822 8.86792 20.1822 8.354 19.8599 8.03171C19.5376 7.70942 19.0237 7.70942 18.7014 8.03171L15.0081 11.725C14.6858 12.0473 14.6858 12.5612 15.0081 12.8835C15.1649 13.0403 15.3827 13.1274 15.5917 13.1274C15.7921 13.1274 16.0011 13.049 16.1666 12.8835Z" fill="#27AAE1"/>
<path fill-rule="evenodd" clip-rule="evenodd" d="M4.72107 6.89935L8.46661 3.15381L6.19315 2.3176L3.17059 5.34016L4.72107 6.89935Z" fill="#27AAE1"/>
<path fill-rule="evenodd" clip-rule="evenodd" d="M9.33765 3.47613L11.2191 4.17297L11.5327 3.46742C11.5937 3.33676 11.6198 3.19739 11.6198 3.05802C11.6198 2.67476 11.402 2.30892 11.0275 2.14341C10.5223 1.91694 9.92996 2.14341 9.70349 2.64863L9.33765 3.47613Z" fill="#87ED82"/>
<path fill-rule="evenodd" clip-rule="evenodd" d="M13.3619 3.99871L12.9961 4.8175L14.8776 5.51434L15.1912 4.8175C15.2521 4.68684 15.2783 4.54747 15.2783 4.4081C15.2783 4.02484 15.0605 3.659 14.6859 3.4935C14.1807 3.26702 13.5884 3.4935 13.3619 3.99871Z" fill="#87ED82"/>
<path fill-rule="evenodd" clip-rule="evenodd" d="M26.4103 0.270627L19.8513 5.00917C21.1056 5.73214 22.1683 6.75999 22.9261 7.99689L27.6211 1.4901L26.4103 0.270627Z" fill="#27AAE1"/>
<path fill-rule="evenodd" clip-rule="evenodd" d="M24.4069 12.6658C24.2414 12.2913 23.8756 12.0648 23.4923 12.0648C23.3616 12.0648 23.2223 12.0909 23.0916 12.1519L22.2031 12.5351L22.8913 14.4166L23.8843 13.9811C24.3982 13.7633 24.6247 13.171 24.4069 12.6658Z" fill="#87ED82"/>
<path fill-rule="evenodd" clip-rule="evenodd" d="M25.7222 16.333C25.5567 15.9584 25.1909 15.7319 24.8076 15.7319C24.6769 15.7319 24.5376 15.7581 24.4069 15.819L23.5446 16.1936L24.2327 18.0751L25.1996 17.657C25.7135 17.4218 25.94 16.8382 25.7222 16.333Z" fill="#87ED82"/>
<path fill-rule="evenodd" clip-rule="evenodd" d="M25.5741 21.6986L24.6595 19.2161L20.853 23.0226L22.5516 24.7211L25.5741 21.6986Z" fill="#27AAE1"/>
<path d="M22.5516 24.9999C22.4819 24.9999 22.4122 24.9737 22.3599 24.9215L13.8846 16.4461C13.7801 16.3416 13.7801 16.1674 13.8846 16.0629C13.9891 15.9583 14.1633 15.9583 14.2678 16.0629L22.5516 24.3466L25.2606 21.6376L21.0795 10.2965C21.0447 10.2094 21.0621 10.1135 21.1143 10.0439L27.264 1.52494L26.3842 0.627754L17.8653 6.7774C17.7956 6.82967 17.6998 6.84709 17.6127 6.81224L6.27156 2.63118L3.56258 5.34016L11.8463 13.6239C11.9508 13.7284 11.9508 13.9026 11.8463 14.0072C11.7418 14.1117 11.5676 14.1117 11.463 14.0072L2.97897 5.5405C2.87444 5.43598 2.87444 5.26177 2.97897 5.15724L6.01024 2.12597C6.08864 2.04757 6.19316 2.03015 6.29769 2.06499L17.665 6.25477L26.2536 0.0528564C26.3581 -0.0255375 26.5149 -0.0168266 26.602 0.078989L27.8128 1.28975C27.9086 1.38557 27.9173 1.53365 27.8389 1.63818L21.637 10.2268L25.8267 21.5941C25.8616 21.6899 25.8355 21.8031 25.7658 21.8815L22.7345 24.9128C22.691 24.965 22.6213 24.9999 22.5516 24.9999Z" fill="#ACA79E"/>
<path d="M2.09919 6.68158C2.02951 6.68158 1.95982 6.65545 1.90756 6.60318C1.80303 6.49866 1.80303 6.32445 1.90756 6.21992L7.67394 0.453534C7.77847 0.349008 7.95268 0.349008 8.05721 0.453534C8.16173 0.558061 8.16173 0.732272 8.05721 0.836799L2.29082 6.60318C2.23856 6.65545 2.16887 6.68158 2.09919 6.68158Z" fill="#ACA79E"/>
<path d="M21.7676 25.7751C21.698 25.7751 21.6283 25.749 21.576 25.6968C21.4715 25.5922 21.4715 25.418 21.576 25.3135L26.7675 20.122C26.872 20.0175 27.0462 20.0175 27.1508 20.122C27.2553 20.2265 27.2553 20.4007 27.1508 20.5053L21.9593 25.6968C21.907 25.749 21.8373 25.7751 21.7676 25.7751Z" fill="#ACA79E"/>
<path d="M20.853 23.3014C20.7834 23.3014 20.7137 23.2753 20.6614 23.223C20.5569 23.1185 20.5569 22.9443 20.6614 22.8397L24.4766 19.0245C24.5812 18.92 24.7554 18.92 24.8599 19.0245C24.9644 19.129 24.9644 19.3032 24.8599 19.4078L21.0447 23.223C20.9924 23.2753 20.9227 23.3014 20.853 23.3014Z" fill="#ACA79E"/>
<path d="M4.72108 7.16943C4.65139 7.16943 4.58171 7.1433 4.52944 7.09104C4.42492 6.98651 4.42492 6.8123 4.52944 6.70777L8.27498 2.96224C8.37951 2.85771 8.55372 2.85771 8.65825 2.96224C8.76277 3.06676 8.76277 3.24097 8.65825 3.3455L4.91271 7.09104C4.86045 7.1433 4.79076 7.16943 4.72108 7.16943Z" fill="#ACA79E"/>
<path d="M11.0449 23.1794C10.9752 23.1794 10.9055 23.1533 10.8532 23.101L4.79068 17.0384C4.68615 16.9339 4.68615 16.7597 4.79068 16.6552L6.61118 14.8347C6.66344 14.7824 6.73313 14.7563 6.80281 14.7563H10.3219L13.266 11.8121C13.3706 11.7076 13.5448 11.7076 13.6493 11.8121C13.7538 11.9166 13.7538 12.0908 13.6493 12.1954L10.618 15.2266C10.5658 15.2789 10.4961 15.305 10.4264 15.305H6.90734L5.36557 16.8468L11.0361 22.5174L12.5779 20.9756V17.4565C12.5779 17.3869 12.604 17.3172 12.6563 17.2649L15.6876 14.2336C15.7921 14.1291 15.9663 14.1291 16.0708 14.2336C16.1754 14.3382 16.1754 14.5124 16.0708 14.6169L13.1267 17.5611V21.0801C13.1267 21.1498 13.1005 21.2195 13.0483 21.2718L11.2278 23.0923C11.1842 23.1533 11.1145 23.1794 11.0449 23.1794Z" fill="#ACA79E"/>
<path d="M6.19318 21.9686C6.1235 21.9686 6.05382 21.9425 6.00155 21.8902C5.89703 21.7857 5.89703 21.6115 6.00155 21.507L9.63385 17.8747C9.73838 17.7701 9.91259 17.7701 10.0171 17.8747C10.1216 17.9792 10.1216 18.1534 10.0171 18.2579L6.38482 21.8902C6.33255 21.9425 6.26287 21.9686 6.19318 21.9686Z" fill="#ACA79E"/>
<path d="M19.2764 8.06654C19.1371 8.06654 18.9977 8.1188 18.8844 8.22333L15.1912 11.9166C15.0866 12.0211 15.0344 12.1605 15.0344 12.3086C15.0344 12.4567 15.0954 12.596 15.1912 12.7006C15.2957 12.8051 15.4351 12.8573 15.5831 12.8573C15.7312 12.8573 15.8706 12.7964 15.9751 12.7006L19.6684 9.00728C19.8774 8.78952 19.8774 8.44981 19.6684 8.23204C19.5552 8.1188 19.4158 8.06654 19.2764 8.06654ZM15.5831 13.3974C15.287 13.3974 15.017 13.2842 14.8079 13.0751C14.3811 12.6483 14.3811 11.9514 14.8079 11.5333L18.5012 7.84007C18.928 7.41325 19.6248 7.41325 20.0429 7.84007C20.4698 8.26688 20.4698 8.96373 20.0429 9.38183L16.3497 13.0751C16.1493 13.2842 15.8793 13.3974 15.5831 13.3974Z" fill="#ACA79E"/>
<path d="M1.75074 20.3572C1.68106 20.3572 1.61137 20.331 1.55911 20.2788C1.45458 20.1743 1.45458 20 1.55911 19.8955L4.79072 16.6639C4.89525 16.5594 5.06946 16.5594 5.17399 16.6639C5.27851 16.7684 5.27851 16.9426 5.17399 17.0472L1.94237 20.2788C1.89011 20.331 1.82042 20.3572 1.75074 20.3572Z" fill="#ACA79E"/>
<path d="M7.80457 26.411C7.73489 26.411 7.6652 26.3849 7.61294 26.3326C7.50841 26.2281 7.50841 26.0539 7.61294 25.9494L10.8446 22.709C10.9491 22.6045 11.1233 22.6045 11.2278 22.709C11.3323 22.8136 11.3323 22.9878 11.2278 23.0923L7.99621 26.3326C7.94394 26.3849 7.87426 26.411 7.80457 26.411Z" fill="#ACA79E"/>
<path d="M0.270088 27.9005C0.200369 27.9005 0.130684 27.8744 0.0784211 27.8221C-0.0261404 27.7176 -0.0261404 27.5434 0.0784211 27.4389L4.59049 22.9268C4.69501 22.8223 4.86922 22.8223 4.97375 22.9268C5.07828 23.0313 5.07828 23.2055 4.97375 23.3101L0.461685 27.8221C0.409387 27.8744 0.339738 27.9005 0.270088 27.9005Z" fill="#ACA79E"/>
<path d="M22.9261 8.26691C22.8303 8.26691 22.7432 8.22335 22.691 8.13625C21.9593 6.9429 20.9227 5.94119 19.7119 5.24434C19.5813 5.16595 19.5377 5.00045 19.6161 4.86979C19.6945 4.73913 19.86 4.69558 19.9907 4.77397C21.2798 5.51437 22.3774 6.58577 23.1613 7.8488C23.2397 7.97946 23.1962 8.14496 23.0742 8.22335C23.022 8.24949 22.9697 8.26691 22.9261 8.26691Z" fill="#ACA79E"/>
<path d="M11.2191 4.44299C11.1843 4.44299 11.1407 4.43428 11.1059 4.41686C10.9665 4.35589 10.9056 4.19039 10.9665 4.05973L11.2801 3.35417C11.3237 3.25836 11.3411 3.16254 11.3411 3.05802C11.3411 2.77057 11.1756 2.50925 10.9143 2.39601C10.5484 2.23051 10.1216 2.39601 9.95611 2.76186L9.58156 3.58936C9.52059 3.72873 9.35509 3.7897 9.22443 3.72873C9.08506 3.66775 9.02408 3.50225 9.08506 3.3716L9.45961 2.54409C9.74706 1.90822 10.4962 1.62077 11.1407 1.89951C11.5937 2.10857 11.8899 2.56151 11.8899 3.05802C11.8899 3.24094 11.855 3.41515 11.7766 3.58065L11.463 4.2862C11.4282 4.38202 11.3237 4.44299 11.2191 4.44299Z" fill="#ACA79E"/>
<path d="M14.8776 5.78442C14.8427 5.78442 14.7992 5.77571 14.7643 5.75829C14.6249 5.69732 14.564 5.53182 14.6249 5.40116L14.9385 4.70432C14.9821 4.6085 14.9995 4.51268 14.9995 4.40816C14.9995 4.12071 14.834 3.85939 14.5727 3.74615C14.2068 3.58065 13.78 3.74615 13.6145 4.112L13.2487 4.93079C13.1877 5.07016 13.0222 5.13113 12.8915 5.07016C12.7609 5.00918 12.6912 4.84368 12.7522 4.71303L13.118 3.89423C13.4055 3.25836 14.1546 2.97092 14.7992 3.24965C15.2521 3.45871 15.5483 3.91165 15.5483 4.40816C15.5483 4.59108 15.5134 4.76529 15.435 4.93079L15.1214 5.62763C15.0779 5.72345 14.9821 5.78442 14.8776 5.78442Z" fill="#ACA79E"/>
<path d="M24.2414 18.3363C24.1369 18.3363 24.0324 18.2753 23.9888 18.1708C23.9278 18.0314 23.9888 17.8746 24.1282 17.8137L25.0951 17.3956C25.2693 17.3172 25.4086 17.1778 25.4783 16.9949C25.548 16.812 25.548 16.6203 25.4696 16.4374C25.3564 16.1761 25.0951 16.0019 24.7989 16.0019C24.7031 16.0019 24.5986 16.0193 24.5114 16.0628L23.6491 16.4374C23.5097 16.4984 23.3529 16.4374 23.292 16.298C23.231 16.1587 23.292 16.0019 23.4313 15.9409L24.2937 15.5663C24.4592 15.4967 24.6247 15.4618 24.7989 15.4618C25.3041 15.4618 25.7658 15.758 25.9661 16.2284C26.1055 16.5419 26.1055 16.8816 25.9835 17.2039C25.8616 17.5175 25.6177 17.7701 25.3041 17.9008L24.3372 18.3189C24.3111 18.3276 24.2763 18.3363 24.2414 18.3363Z" fill="#ACA79E"/>
<path d="M22.8913 14.6866C22.7868 14.6866 22.6823 14.6256 22.6387 14.5211C22.5777 14.3817 22.6387 14.2249 22.7781 14.164L23.7711 13.7284C23.9453 13.65 24.0847 13.5107 24.1544 13.3277C24.224 13.1448 24.224 12.9532 24.1456 12.7703C24.0324 12.5089 23.7711 12.3347 23.4749 12.3347C23.3791 12.3347 23.2746 12.3522 23.1875 12.3957L22.299 12.779C22.1596 12.8399 22.0028 12.779 21.9419 12.6396C21.8809 12.5002 21.9419 12.3434 22.0812 12.2825L22.9697 11.8992C23.1352 11.8295 23.3007 11.7947 23.4749 11.7947C23.9801 11.7947 24.4418 12.0908 24.6421 12.5612C24.7815 12.8748 24.7815 13.2145 24.6596 13.5368C24.5376 13.8504 24.2937 14.103 23.9801 14.2336L22.9871 14.6692C22.9697 14.6779 22.9262 14.6866 22.8913 14.6866Z" fill="#ACA79E"/>
<path d="M2.02955 12.2041C1.95986 12.2041 1.89018 12.178 1.83792 12.1257C1.73339 12.0212 1.73339 11.847 1.83792 11.7424L4.12008 9.46028C4.22461 9.35575 4.39882 9.35575 4.50335 9.46028C4.60787 9.5648 4.60787 9.73902 4.50335 9.84354L2.22118 12.1257C2.16892 12.178 2.09923 12.2041 2.02955 12.2041Z" fill="#ACA79E"/>
<path d="M3.97193 14.1466C3.90225 14.1466 3.83256 14.1205 3.7803 14.0682C3.67577 13.9637 3.67577 13.7895 3.7803 13.6849L6.06246 11.4028C6.16699 11.2983 6.3412 11.2983 6.44573 11.4028C6.55026 11.5073 6.55026 11.6815 6.44573 11.786L4.16356 14.0682C4.1113 14.1205 4.04162 14.1466 3.97193 14.1466Z" fill="#ACA79E"/>
<path d="M13.7365 23.9111C13.6668 23.9111 13.5971 23.885 13.5449 23.8327C13.4404 23.7282 13.4404 23.554 13.5449 23.4495L15.8271 21.1673C15.9316 21.0628 16.1058 21.0628 16.2103 21.1673C16.3148 21.2718 16.3148 21.446 16.2103 21.5506L13.9282 23.8327C13.8759 23.885 13.8062 23.9111 13.7365 23.9111Z" fill="#ACA79E"/>
<path d="M15.6702 25.8535C15.6006 25.8535 15.5309 25.8274 15.4786 25.7751C15.3741 25.6706 15.3741 25.4964 15.4786 25.3919L17.7608 23.1097C17.8653 23.0052 18.0395 23.0052 18.144 23.1097C18.2486 23.2142 18.2486 23.3884 18.144 23.493L15.8619 25.7751C15.8096 25.8274 15.7399 25.8535 15.6702 25.8535Z" fill="#ACA79E"/>
</svg>
