<svg width="30" height="36" viewBox="0 0 30 36" fill="none" xmlns="http://www.w3.org/2000/svg">
<path fill-rule="evenodd" clip-rule="evenodd" d="M29.8486 0C29.9473 0.709009 30 1.43367 30 2.17061C30 7.02294 27.776 11.3457 24.31 14.1425L29.2827 36H18.1319V29.7073C18.1319 27.9531 16.7224 26.519 14.9997 26.519C13.2768 26.519 11.8677 27.9531 11.8677 29.7073V36H0.716941L5.68979 14.1425C2.22341 11.3457 0 7.02294 0 2.17061C0 1.43367 0.0521553 0.709009 0.151406 0H6.64474V4.46741H11.5357V0H18.4641V4.46741H23.3555V0H29.8486ZM15.4012 8.62242V13.9149L18.8438 16.0423L18.4299 16.7383L14.5982 14.3704V8.62242H15.4012ZM14.9997 20.2994C18.3402 20.2994 21.0478 17.5426 21.0478 14.1425C21.0478 10.7423 18.3402 7.98552 14.9997 7.98552C11.6594 7.98552 8.95164 10.7423 8.95164 14.1425C8.95164 17.5426 11.6594 20.2994 14.9997 20.2994Z" fill="#27AAE1"/>
</svg>
