<svg width="46" height="35" viewBox="0 0 46 35" fill="none" xmlns="http://www.w3.org/2000/svg">
<path d="M3.13075 18.8914C3.11456 18.8944 3.09855 18.8981 3.08221 18.9007C3.09855 18.8977 3.11456 18.8944 3.13075 18.8914ZM24.5511 26.9409L24.5526 26.9402L24.5507 26.9409H24.5511ZM39.3346 27.9881L33.1121 30.5022L25.6274 33.5264C25.6244 33.5275 25.6215 33.5286 25.6185 33.5297L25.5786 33.546C25.5587 33.5537 25.5383 33.5593 25.518 33.567C25.4585 33.5892 25.3997 33.6107 25.3387 33.6291C25.3047 33.6391 25.27 33.6472 25.2356 33.6561C25.1842 33.6694 25.1325 33.6827 25.08 33.6931C25.0397 33.7008 24.9998 33.7068 24.9588 33.713C24.9118 33.7201 24.8645 33.7271 24.8172 33.7315C24.7732 33.736 24.7304 33.7378 24.6864 33.74C24.6413 33.7426 24.5962 33.7448 24.5511 33.7448H24.5507C24.4742 33.7448 24.3977 33.7404 24.3212 33.7341C24.3094 33.7334 24.2979 33.7326 24.2861 33.7315C24.2195 33.7252 24.153 33.7149 24.0861 33.7034C24.0647 33.7001 24.0432 33.6971 24.0218 33.6931C24.0122 33.6912 24.0033 33.6883 23.9933 33.6864C23.9434 33.6761 23.8935 33.6635 23.8436 33.6502C23.8167 33.6435 23.7897 33.6373 23.7631 33.6291C23.7028 33.6107 23.6429 33.5892 23.5842 33.567C23.5638 33.5593 23.5435 33.5537 23.5232 33.546L2.81886 25.1808C1.41721 24.6142 0.657941 23.0319 1.19862 21.6199C1.74901 20.1814 3.3697 19.4806 4.79183 20.0546L23.1931 27.4894L23.5017 27.614C24.1748 27.886 24.927 27.886 25.6004 27.614L42.2361 20.8929L45.7023 19.4924C46.1148 19.3287 46.0749 18.8471 45.7282 18.6612L26.5459 10.0118C25.2777 9.44001 23.8244 9.44001 22.5559 10.0118L2.49545 19.0574C1.5024 19.4108 0.686219 20.1711 0.274023 21.1908C-0.503057 23.1147 0.429371 25.3124 2.35326 26.0901L23.0508 34.4523C23.2948 34.558 23.5513 34.6382 23.8163 34.6903C23.8329 34.6936 23.8492 34.6962 23.8662 34.6995C23.9564 34.7158 24.0477 34.7291 24.1404 34.7391C24.1674 34.7424 24.194 34.7457 24.221 34.748C24.3301 34.7576 24.4395 34.7639 24.5503 34.7639H24.5507H24.5511C25.0345 34.7639 25.5088 34.6715 25.9601 34.4892L44.9202 26.8315C45.8395 26.4601 45.998 26.1282 45.998 25.2991L39.3346 27.9881Z" fill="#87ED82"/>
<path d="M24.5497 32.4594C24.2566 32.4594 23.9635 32.4165 23.6737 32.3311C23.6633 32.3281 23.6541 32.3244 23.6441 32.3207L3.68696 24.2446C3.52407 24.1789 3.44553 23.9937 3.51154 23.831C3.57722 23.668 3.76288 23.5897 3.92533 23.6555L23.8677 31.7257C24.3253 31.8576 24.7733 31.8576 25.2349 31.7253L44.4904 23.9611C44.6531 23.895 44.8386 23.9745 44.904 24.1371C44.9695 24.3001 44.8911 24.4853 44.7281 24.5511L25.4574 32.3207C25.4482 32.3248 25.4382 32.3281 25.4282 32.3315C25.1362 32.4168 24.8428 32.4594 24.5497 32.4594Z" fill="#87ED82"/>
<path d="M24.55 30.2442C24.2565 30.2442 23.9638 30.2017 23.6736 30.1159C23.6633 30.1126 23.6537 30.1093 23.644 30.1056L3.68691 22.0295C3.52391 21.9637 3.44548 21.7785 3.51164 21.6159C3.57717 21.4529 3.76298 21.3749 3.92528 21.44L23.8677 29.5101C24.326 29.6425 24.7736 29.6425 25.2345 29.5101L44.4904 21.746C44.653 21.6795 44.8382 21.7593 44.904 21.9219C44.9698 22.0846 44.891 22.2701 44.728 22.3355L25.4574 30.1056C25.4481 30.1097 25.4382 30.1126 25.4282 30.1159C25.1366 30.2017 24.8431 30.2442 24.55 30.2442Z" fill="#87ED82"/>
<path d="M23.1204 0.146394L8.99631 6.59582C8.64104 6.75771 8.64104 7.26261 8.99631 7.42487L23.1204 13.8743C23.547 14.0691 24.0375 14.0691 24.464 13.8743L38.5881 7.42487C38.9433 7.26261 38.9433 6.75771 38.5881 6.59582L24.464 0.146394C24.0375 -0.0487633 23.547 -0.0487633 23.1204 0.146394Z" fill="#27AAE1"/>
<path d="M23.7166 21.5079C17.5052 21.5079 12.821 19.3941 12.821 16.5909V9.26331L22.7667 13.8048C23.0908 13.953 23.436 14.0277 23.7923 14.0277C24.1483 14.0277 24.4939 13.953 24.8184 13.8048L34.6121 9.33243V16.5909C34.6121 19.3941 29.9283 21.5079 23.7166 21.5079Z" fill="white"/>
<path d="M25.1474 14.5251C24.7186 14.7207 24.2629 14.8201 23.7924 14.8201C23.3219 14.8201 22.8657 14.7207 22.4377 14.5251L13.6128 10.4959V16.5909C13.6128 18.8689 18.1365 20.7158 23.7162 20.7158C29.2967 20.7158 33.8201 18.8689 33.8201 16.5909V10.5651L25.1474 14.5251Z" fill="#27AAE1"/>
</svg>
