<svg width="35" height="35" viewBox="0 0 35 35" fill="none" xmlns="http://www.w3.org/2000/svg">
<circle cx="17.5" cy="17.5" r="17" stroke="#27AAE1"/>
<path d="M7.54395 16.3987H10.0098C10.2735 16.3987 10.4873 16.1848 10.4873 15.9211C10.4873 15.6574 10.2735 15.4436 10.0098 15.4436H7.54395L7.44824 15.4534C7.23061 15.4979 7.06644 15.6904 7.06641 15.9211L7.07617 16.0178C7.12081 16.2351 7.31349 16.3985 7.54395 16.3987ZM8.33105 17.8655H10.7969C11.0606 17.8655 11.2742 17.6517 11.2744 17.3879L11.2646 17.2913C11.22 17.0737 11.0276 16.9094 10.7969 16.9094H8.33105L8.23438 16.9192C8.01677 16.9638 7.85257 17.1572 7.85254 17.3879L7.8623 17.4836C7.90676 17.7015 8.10004 17.8655 8.33105 17.8655Z" fill="#87ED82" stroke="#27AAE1" stroke-width="0.133333"/>
<path d="M29.0948 24.9337V24.5665C29.0948 23.654 28.3519 22.9112 27.4396 22.9112H8.93567C8.02333 22.9112 7.2804 23.654 7.2804 24.5665V24.9337H29.0948Z" fill="#87ED82" stroke="#27AAE1" stroke-width="0.133333"/>
<path d="M24.7142 13.0433C24.8208 13.139 24.881 13.274 24.889 13.4193L24.8842 13.5297C24.8684 13.6383 24.8205 13.7408 24.7455 13.8236V13.8246L22.2943 16.5248L22.2347 16.5785C22.0866 16.6868 21.8777 16.681 21.7357 16.5541L19.5385 14.5863L19.4623 14.5297C19.3814 14.482 19.2887 14.4607 19.1927 14.4662L19.099 14.4808C19.0086 14.5046 18.9278 14.5548 18.8646 14.6263L18.0365 15.5638L18.0199 15.5912C18.0164 15.6013 18.0153 15.6123 18.016 15.6234L18.0248 15.6556C18.0297 15.6654 18.0364 15.6741 18.0443 15.681L21.0658 18.2982L21.1312 18.3607C21.2749 18.5125 21.3609 18.7081 21.3744 18.9193L21.3754 19.0092C21.368 19.2172 21.2888 19.4153 21.1488 19.5726L19.1058 21.8676L19.0228 21.9437C18.8162 22.0971 18.5206 22.0901 18.3217 21.9125L18.2474 21.8324C18.1821 21.7457 18.1435 21.641 18.1371 21.5306L18.141 21.4213C18.156 21.3137 18.2024 21.212 18.2758 21.1293H18.2767L20.1185 19.058H20.1195C20.1366 19.0393 20.1412 19.0163 20.14 18.9974V18.9965L20.1332 18.9681C20.1289 18.9587 20.1228 18.949 20.1136 18.9408L20.1127 18.9398L17.309 16.5111L17.307 16.5101L17.2845 16.4974C17.2757 16.4939 17.2655 16.4906 17.2543 16.4906C17.2338 16.4907 17.2104 16.4985 17.1927 16.5179V16.5189L12.4574 21.8656L12.3754 21.9418C12.1691 22.0963 11.8736 22.09 11.6732 21.9135L11.598 21.8334C11.5322 21.7471 11.4925 21.6429 11.4857 21.5326L11.4896 21.4232C11.5042 21.3152 11.551 21.2132 11.6244 21.1302L18.3051 13.5804L18.3217 13.5531C18.3322 13.5232 18.3246 13.4879 18.2982 13.4642L15.7982 11.2386L15.7699 11.222C15.7596 11.2185 15.7487 11.2174 15.7377 11.2181V11.2172C15.713 11.2187 15.6927 11.2314 15.6801 11.2465V11.2474L13.3539 13.933L13.2738 14.0082C13.1877 14.075 13.0838 14.1155 12.973 14.1234L12.8636 14.1205C12.7556 14.107 12.6536 14.0622 12.5697 13.9896L12.4926 13.9076C12.3363 13.7032 12.3386 13.4069 12.5131 13.2054L15.0355 10.2933L15.098 10.2289C15.2497 10.0853 15.4455 9.99953 15.6566 9.98572L15.7474 9.98376C15.9558 9.99111 16.1544 10.0714 16.3119 10.2123L21.8793 15.1908V15.1918L21.9076 15.2074C21.9277 15.2143 21.9497 15.2135 21.9691 15.2045L21.9955 15.1859V15.1849L23.9232 13.0736L24.0072 12.9994C24.2165 12.8475 24.5141 12.8551 24.7084 13.0385L24.7103 13.0404M24.7142 13.0433C24.7128 13.0423 24.7112 13.0412 24.7103 13.0404M24.7142 13.0433C24.7128 13.0423 24.7112 13.0412 24.7103 13.0404M24.7142 13.0433C24.7132 13.0424 24.7123 13.0413 24.7113 13.0404L24.7552 12.9906L24.7103 13.0404" fill="#87ED82" stroke="#27AAE1" stroke-width="0.133333"/>
<path d="M21.5099 12.2773C22.6712 12.2773 23.6154 11.3322 23.6154 10.1719C23.6153 9.01054 22.6712 8.06649 21.5099 8.06641L21.295 8.07715C20.2351 8.18508 19.4044 9.08313 19.4044 10.1719L19.4152 10.3867C19.516 11.376 20.3057 12.1658 21.295 12.2666L21.5099 12.2773Z" fill="#87ED82" stroke="#27AAE1" stroke-width="0.133333"/>
</svg>
