<svg width="147" height="32" viewBox="0 0 147 32" fill="none" xmlns="http://www.w3.org/2000/svg">
<path d="M143 0H4C1.79086 0 0 1.79086 0 4V28C0 30.2091 1.79086 32 4 32H143C145.209 32 147 30.2091 147 28V4C147 1.79086 145.209 0 143 0Z" fill="#88EC81"/>
<path d="M28.8135 20V18.9015H30.783C31.4677 18.9015 31.9812 18.7152 32.3235 18.3425C32.6702 17.9698 32.8435 17.4368 32.8435 16.7435V14.9365C32.8435 14.2388 32.6702 13.7058 32.3235 13.3375C31.9812 12.9648 31.4677 12.7785 30.783 12.7785H28.807V11.693H30.8285C31.9292 11.693 32.759 11.9725 33.318 12.5315C33.877 13.0862 34.1565 13.8857 34.1565 14.93V16.75C34.1565 17.7943 33.877 18.5982 33.318 19.1615C32.759 19.7205 31.9292 20 30.8285 20H28.8135ZM27.923 20V11.693H29.21V20H27.923ZM38.364 20.1495C37.35 20.1495 36.5895 19.909 36.0825 19.428C35.5799 18.9427 35.3285 18.245 35.3285 17.335V16.295C35.3285 15.398 35.5625 14.7047 36.0305 14.215C36.5029 13.721 37.1897 13.474 38.091 13.474C38.702 13.474 39.2112 13.5867 39.6185 13.812C40.0259 14.033 40.3314 14.3472 40.535 14.7545C40.7387 15.1618 40.8405 15.645 40.8405 16.204V16.4445C40.8405 16.5918 40.834 16.7413 40.821 16.893C40.808 17.0447 40.7907 17.1898 40.769 17.3285H39.599C39.6077 17.1032 39.612 16.8908 39.612 16.6915C39.6164 16.4922 39.6185 16.3102 39.6185 16.1455C39.6185 15.7945 39.5622 15.4977 39.4495 15.255C39.3369 15.0123 39.1679 14.8282 38.9425 14.7025C38.7172 14.5725 38.4334 14.5075 38.091 14.5075C37.584 14.5075 37.207 14.6527 36.96 14.943C36.713 15.229 36.5895 15.6385 36.5895 16.1715V16.7695L36.596 16.919V17.4845C36.596 17.7228 36.6307 17.9395 36.7 18.1345C36.7737 18.3295 36.8885 18.4985 37.0445 18.6415C37.2049 18.7802 37.4107 18.8885 37.662 18.9665C37.9134 19.0402 38.2189 19.077 38.5785 19.077C38.9859 19.077 39.3672 19.025 39.7225 18.921C40.0822 18.817 40.4202 18.6783 40.7365 18.505L40.6195 19.5905C40.3335 19.7595 39.9999 19.896 39.6185 20C39.2415 20.0997 38.8234 20.1495 38.364 20.1495ZM36.0045 17.3285V16.373H40.509V17.3285H36.0045ZM45.4602 20.143C45.0832 20.143 44.7582 20.0845 44.4852 19.9675C44.2165 19.8462 43.9977 19.6772 43.8287 19.4605C43.6597 19.2395 43.5362 18.9838 43.4582 18.6935H43.0357L43.3932 17.491C43.4062 17.8463 43.482 18.1432 43.6207 18.3815C43.7594 18.6155 43.95 18.791 44.1927 18.908C44.4397 19.025 44.7235 19.0835 45.0442 19.0835C45.5339 19.0835 45.9087 18.9427 46.1687 18.661C46.4287 18.375 46.5587 17.9568 46.5587 17.4065V16.191C46.5587 15.6493 46.4287 15.2377 46.1687 14.956C45.913 14.6743 45.5382 14.5335 45.0442 14.5335C44.7495 14.5335 44.4874 14.5898 44.2577 14.7025C44.028 14.8152 43.8374 14.969 43.6857 15.164C43.5384 15.3547 43.4344 15.5735 43.3737 15.8205L43.0747 14.9495H43.4452C43.5189 14.6808 43.6359 14.4382 43.7962 14.2215C43.9565 14.0005 44.1754 13.825 44.4527 13.695C44.7344 13.565 45.0875 13.5 45.5122 13.5C46.2705 13.5 46.8469 13.7383 47.2412 14.215C47.6399 14.6917 47.8392 15.3872 47.8392 16.3015V17.309C47.8392 18.232 47.6399 18.9362 47.2412 19.4215C46.8425 19.9025 46.2489 20.143 45.4602 20.143ZM42.1517 22.236V13.643H43.4257L43.3737 15.1315L43.3932 15.5085V18.1735L43.3867 18.4205L43.4192 20.221V22.236H42.1517ZM49.2363 20V11.394H50.5103V20H49.2363ZM54.7559 20.1625C53.8199 20.1625 53.1092 19.9133 52.6239 19.415C52.1386 18.9167 51.8959 18.1995 51.8959 17.2635V16.36C51.8959 15.4283 52.1386 14.7155 52.6239 14.2215C53.1092 13.7232 53.8199 13.474 54.7559 13.474C55.6919 13.474 56.4004 13.7232 56.8814 14.2215C57.3667 14.7155 57.6094 15.4283 57.6094 16.36V17.2635C57.6094 18.1995 57.3667 18.9167 56.8814 19.415C56.4004 19.9133 55.6919 20.1625 54.7559 20.1625ZM54.7559 19.129C55.2716 19.129 55.6637 18.9752 55.9324 18.6675C56.2011 18.3598 56.3354 17.9178 56.3354 17.3415V16.282C56.3354 15.71 56.2011 15.2723 55.9324 14.969C55.6637 14.6613 55.2716 14.5075 54.7559 14.5075C54.2402 14.5075 53.8481 14.6613 53.5794 14.969C53.3107 15.2723 53.1764 15.71 53.1764 16.282V17.3415C53.1764 17.9178 53.3107 18.3598 53.5794 18.6675C53.8481 18.9752 54.2402 19.129 54.7559 19.129ZM61.8057 18.8755L61.1297 19.168L62.9172 13.643H64.2237L61.3312 22.236H60.0442L61.0517 19.2525L61.6237 19.7335H60.1872L58.1917 13.643H59.5112L61.0972 18.8755H61.8057ZM69.9331 20.1235C69.4868 20.1235 69.1249 20.0585 68.8476 19.9285C68.5746 19.7942 68.3731 19.5927 68.2431 19.324C68.1131 19.051 68.0481 18.7108 68.0481 18.3035V14.033H68.5616V18.2515C68.5616 18.7325 68.6721 19.0878 68.8931 19.3175C69.1184 19.5472 69.4954 19.662 70.0241 19.662C70.2884 19.662 70.5463 19.6317 70.7976 19.571C71.0533 19.506 71.2959 19.4085 71.5256 19.2785L71.4671 19.7595C71.2678 19.8678 71.0316 19.9545 70.7586 20.0195C70.4899 20.0888 70.2148 20.1235 69.9331 20.1235ZM66.9106 14.241V13.8185H71.4476L71.3956 14.241H66.9106ZM68.0546 13.8965V12.0375L68.5746 11.927L68.5486 13.8965H68.0546ZM74.9892 20.156C74.1442 20.156 73.5029 19.9177 73.0652 19.441C72.6319 18.9643 72.4152 18.2797 72.4152 17.387V16.2755C72.4152 15.3828 72.634 14.7003 73.0717 14.228C73.5094 13.7557 74.1485 13.5195 74.9892 13.5195C75.8299 13.5195 76.469 13.7557 76.9067 14.228C77.3487 14.7003 77.5697 15.3828 77.5697 16.2755V17.387C77.5697 18.2797 77.3487 18.9643 76.9067 19.441C76.469 19.9177 75.8299 20.156 74.9892 20.156ZM74.9892 19.7205C75.6565 19.7205 76.1657 19.5233 76.5167 19.129C76.872 18.7303 77.0497 18.1562 77.0497 17.4065V16.256C77.0497 15.5107 76.8742 14.9408 76.5232 14.5465C76.1722 14.1522 75.6609 13.955 74.9892 13.955C74.3175 13.955 73.8062 14.1522 73.4552 14.5465C73.1042 14.9408 72.9287 15.5107 72.9287 16.256V17.4065C72.9287 18.1562 73.1042 18.7303 73.4552 19.129C73.8062 19.5233 74.3175 19.7205 74.9892 19.7205ZM83.9902 20.13C83.5872 20.13 83.221 20.0932 82.8917 20.0195C82.5623 19.9458 82.272 19.8548 82.0207 19.7465C81.7693 19.6382 81.5635 19.5298 81.4032 19.4215L81.3382 18.869C81.6632 19.0857 82.0467 19.2698 82.4887 19.4215C82.9307 19.5732 83.4247 19.649 83.9707 19.649C84.6813 19.649 85.2165 19.5038 85.5762 19.2135C85.9402 18.9232 86.1222 18.4985 86.1222 17.9395V17.7965C86.1222 17.4238 86.055 17.1205 85.9207 16.8865C85.7863 16.6482 85.5567 16.4553 85.2317 16.308C84.911 16.1563 84.4712 16.0263 83.9122 15.918C83.2665 15.7793 82.7595 15.6147 82.3912 15.424C82.0228 15.2333 81.7628 14.995 81.6112 14.709C81.4595 14.423 81.3837 14.072 81.3837 13.656V13.6105C81.3837 12.9648 81.5873 12.4643 81.9947 12.109C82.4063 11.7493 83.0412 11.5695 83.8992 11.5695C84.4798 11.5695 84.976 11.6388 85.3877 11.7775C85.7993 11.9118 86.1243 12.0592 86.3627 12.2195L86.4212 12.733C86.1265 12.5423 85.7755 12.3798 85.3682 12.2455C84.9652 12.1068 84.4885 12.0375 83.9382 12.0375C83.4658 12.0375 83.0802 12.1003 82.7812 12.226C82.4865 12.3517 82.2677 12.5337 82.1247 12.772C81.986 13.006 81.9167 13.2898 81.9167 13.6235V13.656C81.9167 13.9897 81.9795 14.2713 82.1052 14.501C82.2352 14.7263 82.4605 14.917 82.7812 15.073C83.1062 15.229 83.5655 15.3698 84.1592 15.4955C84.7918 15.6298 85.288 15.788 85.6477 15.97C86.0117 16.152 86.2717 16.3882 86.4277 16.6785C86.5837 16.9688 86.6617 17.3393 86.6617 17.79V17.946C86.6617 18.6567 86.4363 19.1983 85.9857 19.571C85.535 19.9437 84.8698 20.13 83.9902 20.13ZM90.3472 20.1235C89.9008 20.1235 89.539 20.0585 89.2617 19.9285C88.9887 19.7942 88.7872 19.5927 88.6572 19.324C88.5272 19.051 88.4622 18.7108 88.4622 18.3035V14.033H88.9757V18.2515C88.9757 18.7325 89.0862 19.0878 89.3072 19.3175C89.5325 19.5472 89.9095 19.662 90.4382 19.662C90.7025 19.662 90.9603 19.6317 91.2117 19.571C91.4673 19.506 91.71 19.4085 91.9397 19.2785L91.8812 19.7595C91.6818 19.8678 91.4457 19.9545 91.1727 20.0195C90.904 20.0888 90.6288 20.1235 90.3472 20.1235ZM87.3247 14.241V13.8185H91.8617L91.8097 14.241H87.3247ZM88.4687 13.8965V12.0375L88.9887 11.927L88.9627 13.8965H88.4687ZM97.0955 20L97.128 18.375L97.102 18.2905V16.23L97.1085 15.736C97.1085 15.1597 96.9633 14.7242 96.673 14.4295C96.3827 14.1348 95.9298 13.9875 95.3145 13.9875C94.8465 13.9875 94.424 14.0612 94.047 14.2085C93.6743 14.3558 93.3537 14.5227 93.085 14.709L93.1435 14.228C93.2865 14.124 93.4642 14.02 93.6765 13.916C93.8932 13.8077 94.1423 13.7188 94.424 13.6495C94.7057 13.5802 95.022 13.5455 95.373 13.5455C95.763 13.5455 96.0988 13.5953 96.3805 13.695C96.6665 13.7947 96.9005 13.9398 97.0825 14.1305C97.2645 14.3168 97.3988 14.5443 97.4855 14.813C97.5722 15.0817 97.6155 15.3872 97.6155 15.7295V20H97.0955ZM94.84 20.13C94.2117 20.13 93.7263 19.9827 93.384 19.688C93.046 19.389 92.877 18.9557 92.877 18.388V18.2255C92.877 17.6968 93.0417 17.2938 93.371 17.0165C93.7003 16.7348 94.242 16.5398 94.996 16.4315L97.2255 16.1L97.2515 16.503L95.0675 16.8215C94.4738 16.9082 94.0448 17.0577 93.7805 17.27C93.5205 17.4823 93.3905 17.7922 93.3905 18.1995V18.336C93.3905 18.778 93.5248 19.1138 93.7935 19.3435C94.0622 19.5732 94.4543 19.688 94.97 19.688C95.3903 19.688 95.75 19.61 96.049 19.454C96.3523 19.2937 96.595 19.0792 96.777 18.8105C96.9633 18.5375 97.0847 18.232 97.141 17.894L97.2775 18.297H97.1605C97.1172 18.6177 97.0045 18.9188 96.8225 19.2005C96.6405 19.4778 96.3848 19.7032 96.0555 19.8765C95.7262 20.0455 95.321 20.13 94.84 20.13ZM101.595 20.1235C101.149 20.1235 100.787 20.0585 100.51 19.9285C100.237 19.7942 100.035 19.5927 99.9052 19.324C99.7752 19.051 99.7102 18.7108 99.7102 18.3035V14.033H100.224V18.2515C100.224 18.7325 100.334 19.0878 100.555 19.3175C100.781 19.5472 101.158 19.662 101.686 19.662C101.951 19.662 102.208 19.6317 102.46 19.571C102.715 19.506 102.958 19.4085 103.188 19.2785L103.129 19.7595C102.93 19.8678 102.694 19.9545 102.421 20.0195C102.152 20.0888 101.877 20.1235 101.595 20.1235ZM98.5727 14.241V13.8185H103.11L103.058 14.241H98.5727ZM99.7167 13.8965V12.0375L100.237 11.927L100.211 13.8965H99.7167ZM106.716 20.13C105.867 20.13 105.215 19.909 104.76 19.467C104.305 19.0207 104.077 18.388 104.077 17.569V16.2235C104.077 15.3482 104.287 14.6787 104.708 14.215C105.128 13.7513 105.741 13.5195 106.547 13.5195C107.085 13.5195 107.535 13.6257 107.899 13.838C108.268 14.046 108.545 14.3472 108.731 14.7415C108.922 15.1315 109.017 15.6038 109.017 16.1585V16.386C109.017 16.4943 109.015 16.6048 109.011 16.7175C109.006 16.8258 108.998 16.9428 108.985 17.0685H108.51C108.515 16.8952 108.517 16.7327 108.517 16.581C108.517 16.425 108.517 16.282 108.517 16.152C108.517 15.6797 108.441 15.281 108.289 14.956C108.142 14.631 107.921 14.384 107.626 14.215C107.336 14.0417 106.976 13.955 106.547 13.955C105.906 13.955 105.418 14.1457 105.085 14.527C104.751 14.9083 104.584 15.463 104.584 16.191V16.815V16.893V17.6015C104.584 17.9265 104.632 18.2168 104.727 18.4725C104.823 18.7282 104.961 18.947 105.143 19.129C105.33 19.3067 105.559 19.4432 105.832 19.5385C106.105 19.6338 106.422 19.6815 106.781 19.6815C107.189 19.6815 107.568 19.6208 107.919 19.4995C108.27 19.3782 108.599 19.2048 108.907 18.9795L108.848 19.48C108.584 19.6793 108.27 19.8375 107.906 19.9545C107.546 20.0715 107.15 20.13 106.716 20.13ZM104.337 17.0685V16.6525H108.855V17.0685H104.337ZM118.61 20V15.9895C118.61 15.5735 118.558 15.216 118.454 14.917C118.354 14.618 118.187 14.3883 117.953 14.228C117.719 14.0677 117.407 13.9875 117.017 13.9875C116.658 13.9875 116.344 14.0633 116.075 14.215C115.806 14.3667 115.587 14.5747 115.418 14.839C115.254 15.099 115.145 15.3958 115.093 15.7295L114.944 15.3005H115.035C115.083 14.9972 115.195 14.7112 115.373 14.4425C115.551 14.1738 115.787 13.9572 116.081 13.7925C116.38 13.6278 116.74 13.5455 117.16 13.5455C117.637 13.5455 118.018 13.6408 118.304 13.8315C118.595 14.0222 118.805 14.2973 118.935 14.657C119.065 15.0123 119.13 15.4413 119.13 15.944V20H118.61ZM110.634 20V13.6755H111.148L111.115 15.294L111.148 15.3135V20H110.634ZM114.625 20V15.996C114.625 15.5757 114.573 15.216 114.469 14.917C114.365 14.618 114.199 14.3883 113.969 14.228C113.739 14.0677 113.429 13.9875 113.039 13.9875C112.671 13.9875 112.35 14.0655 112.077 14.2215C111.809 14.3775 111.592 14.592 111.427 14.865C111.267 15.1337 111.159 15.4413 111.102 15.788L110.946 15.372H111.089C111.133 15.0427 111.239 14.7393 111.408 14.462C111.581 14.1847 111.815 13.9637 112.11 13.799C112.405 13.63 112.762 13.5455 113.182 13.5455C113.759 13.5455 114.201 13.695 114.508 13.994C114.82 14.293 115.015 14.7372 115.093 15.3265C115.111 15.4218 115.122 15.5172 115.126 15.6125C115.135 15.7078 115.139 15.8053 115.139 15.905V20H114.625ZM123.373 20.13C122.523 20.13 121.871 19.909 121.416 19.467C120.961 19.0207 120.734 18.388 120.734 17.569V16.2235C120.734 15.3482 120.944 14.6787 121.364 14.215C121.784 13.7513 122.398 13.5195 123.204 13.5195C123.741 13.5195 124.192 13.6257 124.556 13.838C124.924 14.046 125.201 14.3472 125.388 14.7415C125.578 15.1315 125.674 15.6038 125.674 16.1585V16.386C125.674 16.4943 125.671 16.6048 125.667 16.7175C125.663 16.8258 125.654 16.9428 125.641 17.0685H125.167C125.171 16.8952 125.173 16.7327 125.173 16.581C125.173 16.425 125.173 16.282 125.173 16.152C125.173 15.6797 125.097 15.281 124.946 14.956C124.798 14.631 124.577 14.384 124.283 14.215C123.992 14.0417 123.633 13.955 123.204 13.955C122.562 13.955 122.075 14.1457 121.741 14.527C121.407 14.9083 121.241 15.463 121.241 16.191V16.815V16.893V17.6015C121.241 17.9265 121.288 18.2168 121.384 18.4725C121.479 18.7282 121.618 18.947 121.8 19.129C121.986 19.3067 122.216 19.4432 122.489 19.5385C122.762 19.6338 123.078 19.6815 123.438 19.6815C123.845 19.6815 124.224 19.6208 124.575 19.4995C124.926 19.3782 125.255 19.2048 125.563 18.9795L125.505 19.48C125.24 19.6793 124.926 19.8375 124.562 19.9545C124.202 20.0715 123.806 20.13 123.373 20.13ZM120.994 17.0685V16.6525H125.511V17.0685H120.994ZM129.091 20.13C128.584 20.13 128.147 20.0693 127.778 19.948C127.41 19.8223 127.109 19.688 126.875 19.545L126.81 19.0315C127.122 19.2135 127.46 19.3673 127.824 19.493C128.188 19.6187 128.608 19.6815 129.085 19.6815C129.644 19.6815 130.077 19.5775 130.385 19.3695C130.692 19.1615 130.846 18.856 130.846 18.453V18.349C130.846 18.089 130.794 17.8745 130.69 17.7055C130.586 17.5322 130.4 17.3848 130.131 17.2635C129.863 17.1422 129.479 17.0317 128.981 16.932C128.448 16.828 128.027 16.7045 127.72 16.5615C127.412 16.4185 127.193 16.2365 127.063 16.0155C126.933 15.7902 126.868 15.5085 126.868 15.1705V15.112C126.868 14.6093 127.046 14.2237 127.401 13.955C127.757 13.6863 128.292 13.552 129.007 13.552C129.496 13.552 129.917 13.6127 130.268 13.734C130.619 13.851 130.903 13.9853 131.119 14.137L131.178 14.618C130.905 14.436 130.593 14.2865 130.242 14.1695C129.895 14.0482 129.492 13.9875 129.033 13.9875C128.651 13.9875 128.339 14.033 128.097 14.124C127.854 14.215 127.674 14.345 127.557 14.514C127.44 14.6787 127.382 14.878 127.382 15.112V15.1705C127.382 15.4392 127.434 15.658 127.538 15.827C127.646 15.9917 127.832 16.1282 128.097 16.2365C128.365 16.3405 128.732 16.4402 129.195 16.5355C129.746 16.6395 130.177 16.7652 130.489 16.9125C130.805 17.0598 131.028 17.2483 131.158 17.478C131.288 17.7033 131.353 17.9872 131.353 18.3295V18.4595C131.353 19.0055 131.156 19.4215 130.762 19.7075C130.372 19.9892 129.815 20.13 129.091 20.13ZM137.18 20V15.996C137.18 15.58 137.124 15.2225 137.011 14.9235C136.898 14.6245 136.714 14.3948 136.458 14.2345C136.203 14.0698 135.86 13.9875 135.431 13.9875C135.033 13.9875 134.686 14.0655 134.391 14.2215C134.101 14.3775 133.867 14.5898 133.689 14.8585C133.516 15.1272 133.399 15.437 133.338 15.788L133.163 15.372H133.319C133.367 15.0427 133.481 14.7393 133.663 14.462C133.85 14.1847 134.101 13.9637 134.417 13.799C134.738 13.63 135.124 13.5455 135.574 13.5455C136.09 13.5455 136.502 13.643 136.809 13.838C137.121 14.0287 137.347 14.3038 137.485 14.6635C137.624 15.0188 137.693 15.4478 137.693 15.9505V20H137.18ZM132.864 20V11.368H133.377V13.5195L133.351 15.333L133.377 15.385V20H132.864Z" fill="black"/>
<path fill-rule="evenodd" clip-rule="evenodd" d="M15.4371 9.05691C15.3487 9.02024 15.2517 9 15.15 9C15.0483 9 14.9513 9.02024 14.8629 9.05691C14.7745 9.09351 14.6916 9.14776 14.6197 9.21967L14.6196 9.21969L11.4197 12.4197C11.1268 12.7126 11.1268 13.1874 11.4197 13.4803C11.7126 13.7732 12.1874 13.7732 12.4803 13.4803L14.4 11.5607V18.55C14.4 18.9642 14.7358 19.3 15.15 19.3C15.5642 19.3 15.9 18.9642 15.9 18.55V11.5607L17.8197 13.4803C18.1126 13.7732 18.5874 13.7732 18.8803 13.4803C19.1732 13.1874 19.1732 12.7126 18.8803 12.4197L15.6803 9.21967C15.6084 9.14776 15.5255 9.09351 15.4371 9.05691ZM8.75 17.8C9.16421 17.8 9.5 18.1358 9.5 18.55V20.95C9.5 21.5006 9.88425 21.8 10.174 21.8H20.126C20.4158 21.8 20.8 21.5006 20.8 20.95V18.55C20.8 18.1358 21.1358 17.8 21.55 17.8C21.9642 17.8 22.3 18.1358 22.3 18.55V20.95C22.3 22.1594 21.4043 23.3 20.126 23.3H10.174C8.89575 23.3 8 22.1594 8 20.95V18.55C8 18.1358 8.33579 17.8 8.75 17.8Z" fill="black"/>
</svg>
