<?xml version="1.0" encoding="UTF-8"?>
<svg id="Layer_2" data-name="Layer 2" xmlns="http://www.w3.org/2000/svg" viewBox="0 0 144.62 164.54">
  <defs>
    <style>
      .cls-1 {
        fill: #fff;
      }
    </style>
  </defs>
  <g id="Layer_1-2" data-name="Layer 1">
    <g>
      <path class="cls-1" d="M130.77,128.13c-1.62-5.74-3.74-11.33-6.32-16.7-3.36-6.98-7.49-13.6-12.31-19.67-.98-1.23-1.99-2.45-3.02-3.64-7.56-8.77-16.37-16.21-26.39-22.03,0,0-.02,0-.02-.01-.78-.45-.55-1.61.34-1.75,3.55-.54,7.04-1.48,10.38-2.74,5.38-2.04,10.42-5.06,14.74-8.86,2.93-2.58,5.63-5.5,7.91-8.7.5-.71.26-1.68-.51-2.08-3.6-1.83-7.5-3.24-11.63-4.16-1.77-.4-3.53-.69-5.29-.89-4.76-.54-9.59-.38-14.31.46-2.38.43-4.71,1.02-6.98,1.79-2.57.85-5.05,1.91-7.43,3.18-.87.45-1.73.94-2.58,1.45-4.89.12-9.76.96-14.41,2.5-3.94,1.3-7.71,3.09-11.2,5.31-.54.34-1.06.7-1.58,1.05-1.76,1.21-3.42,2.54-5.01,3.97-1.52,1.38-1.78,3.66-.62,5.36,1.4,2.05,2.94,3.98,4.31,5.47,1.93,2.1,4.01,4.08,6.27,5.83,1.93,1.5,3.91,2.76,5.83,3.65.63.29,1.33.84,1.34,1.6.04.57-.21,1.16-.84,1.51-.92.53-1.82,1.08-2.7,1.68-7.08,4.78-12.28,10.22-16.73,17.56-.48.8.26,1.79,1.17,1.53,0,0,.01,0,.03,0,.04-.01.08-.03.12-.03,5.62-1.62,11.33-2.84,17.14-3.45,3.19-.32,6.39-.5,9.6-.43,12.01.21,23.18,3.72,33.7,9.39,10.06,5.43,19.26,12.47,27.08,20.81,1.86,1.98,3.67,4,5.4,6.09,1.87,2.27,3.54,4.66,5.19,7.09.62.92,2.04.34,1.87-.76-.6-3.84-1.47-7.63-2.53-11.37M63.63,57.51c-2.9-.96-5.87-1.8-8.89-2.51-.06-.31-.09-.63-.09-.96,0-2.85,2.31-5.16,5.16-5.16s5.16,2.31,5.16,5.16c0,1.34-.51,2.55-1.35,3.47"/>
      <path class="cls-1" d="M59.65,3.9c1.14,0,2.29.63,3.34,2.22,2.02,3.06,3.16,6.56,4.69,9.85,1.47,3.17,2.3,5.42,4.16,8.39.77,1.24,1.51,2.5,2.34,3.7.35.5.73,1.01,1.13,1.49,1.51,1.81,3.73,2.79,6.03,2.79.5,0,1.01-.05,1.52-.14,3.35-.63,6.76-.96,10.19-.96,4.03,0,8.09.45,12.05,1.34,4.31.96,8.46,2.42,12.37,4.35.7.35,2.09,1.09,2.09,1.09,2.74,1.5,3.61,5.03,1.87,7.63-4.13,6.2-9.47,10.82-15.31,15.35-2.93,2.2-5.27,4.15-5.81,8.41-.22,1.76.73,3.06,1.99,4.21,5.07,4.01,9.66,8.64,13.78,13.56,16.37,19.48,25.38,44.99,24.59,70.45-.06,1.9-1.59,3-3.13,3-1.1,0-2.2-.56-2.76-1.81-6.78-15.23-17.4-28.75-30.58-38.96-6.59-5.13-13.83-9.41-21.49-12.74-4.25-1.91-8.7-3.28-13.26-4.1-.57-.1-1.14-.14-1.71-.14-4.45,0-9.02,2.7-12.25,5.3-4.57,3.67-7.18,8.6-11.27,12.74-1.18,1.2-2.47,1.73-3.64,1.73-1.95,0-3.6-1.46-4.01-3.76-.36-2.02-.67-4.25-.91-6.57-.3-2.81-2.67-4.8-5.3-4.8-.59,0-1.2.1-1.79.32-.78.28-1.55.57-2.32.88-.32.14-.64.2-.96.2-1.73,0-3.22-1.85-2.5-3.6,1.25-3.31,2.77-6.54,4.67-9.56,1.8-2.71,3.85-5.26,6.11-7.61,1.18-1.22,1.75-2.93,1.43-4.6-.61-3.16-2.64-5.63-5.14-7.55-2.51-1.92-5.36-3.29-8.05-4.95-4.15-2.57-8.14-5.42-11.97-8.45-2.61-2.07-5.2-4.65-5.86-8.05-1-5.12,7.14-6.29,10.55-6.74,7.35-.97,14.78-1.69,21.92-3.81,3.21-.96,6.36-2.53,8.05-5.55.33-.59.62-1.21.87-1.84,1.03-2.62,1.38-5.42,1.84-8.18.95-5.75,2.68-11.58,5.05-16.92,1.01-2.28,2.28-4.51,4.17-6.17,1-.88,2.1-1.47,3.21-1.47M59.65,0v3.9V0c-1.99,0-3.93.82-5.78,2.43-2.7,2.37-4.24,5.43-5.17,7.52-2.69,6.07-4.48,12.46-5.52,19.01-.36,2.25-.7,4.37-1.43,6.24-.19.49-.41.95-.64,1.36-.92,1.64-2.75,2.82-5.76,3.72-5.72,1.7-11.62,2.45-17.87,3.23-1.15.15-2.3.29-3.45.44-4.77.63-10,1.75-12.6,5.36-1.25,1.74-1.69,3.81-1.27,5.98.95,4.88,4.6,8.25,7.27,10.36,4.11,3.26,8.26,6.19,12.34,8.71.98.6,1.96,1.16,2.91,1.71,1.74.99,3.38,1.92,4.82,3.03,2.08,1.59,3.32,3.34,3.68,5.18.07.38-.08.82-.41,1.16-2.42,2.51-4.62,5.25-6.55,8.16l-.03.04-.03.04c-1.91,3.04-3.59,6.48-4.99,10.21-.78,1.95-.53,4.17.66,5.95,1.25,1.86,3.29,2.97,5.47,2.97.84,0,1.65-.16,2.43-.49.7-.28,1.43-.55,2.17-.82.16-.06.32-.08.47-.08.63,0,1.34.49,1.42,1.32.27,2.51.59,4.81.95,6.85.74,4.1,3.97,6.97,7.85,6.97,2.3,0,4.57-1.03,6.41-2.89,1.86-1.88,3.39-3.86,4.88-5.76,1.93-2.48,3.74-4.81,6.06-6.67,3.51-2.82,7.08-4.44,9.81-4.44.37,0,.72.03,1.06.09,4.23.75,8.38,2.04,12.31,3.81h.02s.02.02.02.02c7.41,3.22,14.36,7.34,20.65,12.24,12.71,9.85,22.88,22.8,29.41,37.47,1.14,2.54,3.56,4.12,6.32,4.12,3.83,0,6.92-2.98,7.03-6.78.81-26.18-8.48-52.82-25.5-73.07-4.5-5.37-9.29-10.09-14.23-14.02-.48-.45-.62-.69-.66-.76.33-2.58,1.5-3.69,4.28-5.77l.02-.02.02-.02c3.17-2.41,6.3-4.73,9.1-7.59.55-.56,1.11-1.15,1.69-1.79l.14-.15c1.94-2.15,3.7-4.41,5.22-6.71l.02-.02c1.43-2.15,1.9-4.81,1.28-7.32-.61-2.5-2.26-4.65-4.54-5.9h-.02c-.06-.04-1.45-.79-2.2-1.16-4.18-2.07-8.64-3.63-13.25-4.66-4.23-.95-8.57-1.43-12.9-1.43-3.65,0-7.32.34-10.91,1.02-.26.05-.53.07-.79.07-1.19,0-2.3-.51-3.04-1.39-.3-.36-.6-.76-.92-1.22-.54-.77-1.04-1.6-1.58-2.48-.22-.36-.44-.71-.66-1.07-1.25-2-1.98-3.63-2.9-5.69-.32-.72-.65-1.47-1.03-2.27-.44-.95-.85-1.92-1.28-2.95-1.03-2.45-2.09-4.99-3.69-7.41-2.16-3.28-4.78-3.97-6.59-3.97"/>
      <path class="cls-1" d="M142.83,95.29c.38,2.53-.23,4.78-1.83,6.76-.3.37-.63.7-1,1-1.98,1.58-4.22,2.19-6.73,1.81-.47-.07-.94-.19-1.39-.36-2.38-.92-4.03-2.56-4.97-4.93-.17-.44-.3-.91-.38-1.38-.4-2.53.2-4.8,1.81-6.82.3-.38.65-.72,1.02-1.02,2-1.59,4.25-2.19,6.77-1.8.47.07.93.2,1.36.37,2.37.92,4.03,2.58,4.96,4.97.17.45.3.92.37,1.4M140.43,97.83c.37-2.49-.46-4.49-2.48-5.99-.63-.47-1.38-.78-2.16-.9-2.49-.37-4.49.45-5.99,2.48-.47.63-.78,1.38-.89,2.16-.37,2.49.46,4.49,2.48,5.99.63.47,1.38.78,2.16.89,2.49.37,4.49-.46,5.99-2.48.47-.63.78-1.38.89-2.16M131.37,92.54h3.73c1.06,0,1.82.21,2.3.64.47.43.71,1,.71,1.71,0,.56-.18,1.04-.54,1.45-.36.41-.93.71-1.71.89.32.12.56.25.71.39.21.19.43.47.66.85.01.03.46.83,1.35,2.41h-2.45c-.8-1.59-1.33-2.54-1.61-2.85-.27-.31-.55-.47-.82-.47-.06,0-.15.01-.26.03v3.28h-2.08v-8.35ZM133.36,96.04h.95c.63,0,1.08-.1,1.34-.31.26-.21.39-.47.39-.8s-.12-.59-.37-.8c-.25-.21-.67-.31-1.27-.31h-1.04v2.21Z"/>
    </g>
  </g>
</svg>