<svg width="29" height="29" viewBox="0 0 29 29" fill="none" xmlns="http://www.w3.org/2000/svg">
<path fill-rule="evenodd" clip-rule="evenodd" d="M9.30143 1.59582C10.8175 3.11181 11.2529 5.29864 10.6088 7.20042L14.9807 11.5724L14.0034 12.7437L11.496 10.2364C11.1497 9.89004 10.5828 9.89004 10.2365 10.2364C9.89016 10.5827 9.89016 11.1495 10.2365 11.4959L12.8577 14.1172L11.8803 15.2885L7.20061 10.6086C5.29885 11.2529 3.11189 10.8171 1.596 9.30141C-0.531999 7.17358 -0.531999 3.72365 1.596 1.59582C3.72369 -0.532013 7.1736 -0.532013 9.30143 1.59582ZM18.6693 15.2607L21.7997 18.3914C23.7015 17.7474 25.8887 18.1826 27.4043 19.6986C28.7894 21.0836 29.2723 23.0283 28.8547 24.8042L25.7167 21.666L24.1191 22.0939L22.5223 22.5219L22.0941 24.1192L21.6662 25.7164L24.8042 28.8545C23.0284 29.2723 21.0838 28.789 19.6988 27.4042C18.1831 25.8883 17.7476 23.7015 18.3916 21.7996L15.2343 18.6426L16.3171 17.5764L16.9296 18.1889C17.2759 18.5353 17.8427 18.5353 18.1891 18.1889C18.5354 17.8426 18.5354 17.2758 18.1891 16.9291L17.5865 16.3269L18.6693 15.2607ZM7.78735 7.78707L6.18995 8.21495L4.59289 8.64317L3.42348 7.47386L2.25423 6.30455L2.68209 4.70735L3.1101 3.11015L4.7075 2.68194L6.30457 2.25405L7.47398 3.42336L8.64319 4.59267L8.2152 6.18987L7.78735 7.78707Z" fill="#27AAE1"/>
<path fill-rule="evenodd" clip-rule="evenodd" d="M9.30141 27.404C10.8173 25.8881 11.2529 23.7011 10.6088 21.7992L21.7997 10.6084C23.7016 11.2523 25.8885 10.8169 27.4044 9.30092C28.7891 7.91623 29.2723 5.97146 28.8548 4.19557L25.7166 7.33372L24.1192 6.90591L22.5221 6.47777L22.0943 4.88066L21.6661 3.28322L24.8043 0.145075C23.0284 -0.272509 21.0836 0.210714 19.6989 1.59541C18.183 3.11137 17.7476 5.29825 18.3914 7.20013L7.20056 18.3911C5.29884 17.7469 3.11186 18.1827 1.596 19.6983C-0.531836 21.8263 -0.531836 25.2761 1.596 27.404C3.72366 29.5318 7.17358 29.5318 9.30141 27.404ZM11.4959 18.7632L18.1889 12.0706C18.5352 11.724 18.5352 11.1573 18.1889 10.8109C17.8426 10.4646 17.2759 10.4646 16.9295 10.8109L10.2365 17.5038C9.89015 17.8502 9.89015 18.4172 10.2365 18.7632C10.5828 19.1099 11.1496 19.1099 11.4959 18.7632ZM7.78716 21.2126L6.18991 20.7846L4.59284 20.3567L3.42347 21.526L2.25407 22.6953L2.68204 24.2925L3.11005 25.8898L4.70746 26.3178L6.30453 26.7458L7.47394 25.5764L8.64317 24.4073L8.21516 22.8099L7.78716 21.2126Z" fill="#87ED82"/>
<path fill-rule="evenodd" clip-rule="evenodd" d="M4.92717 7.39514L6.87373 6.87346L7.39525 4.9269L5.97028 3.50203L4.02372 4.0237L3.5022 5.97026L4.92717 7.39514Z" fill="#87ED82"/>
<path fill-rule="evenodd" clip-rule="evenodd" d="M25.5139 6.57611L27.2976 4.79206L26.6447 2.35539L24.2077 1.70246L22.424 3.48651L23.0769 5.92318L25.5139 6.57611Z" fill="#27AAE1"/>
</svg>
