<svg width="29" height="31" viewBox="0 0 29 31" fill="none" xmlns="http://www.w3.org/2000/svg">
<path d="M29 15.899C29 7.89079 22.5082 1.39896 14.5 1.39896C6.49184 1.39896 0 7.89079 0 15.899C0 23.907 6.49184 30.399 14.5 30.399C22.5082 30.399 29 23.907 29 15.899Z" fill="#F0F2F2"/>
<path d="M21.2725 14.9204C18.9648 13.1811 18.2495 15.8562 14.5 15.8562C10.7506 15.8562 10.035 13.1811 7.72746 14.9204C4.87098 17.0733 3.06411 23.6876 5.74704 25.7609C8.41393 26.5016 8.40526 22.7669 14.5 22.7669C20.5949 22.7669 20.5859 26.5016 23.2531 25.7609C25.9359 23.6876 24.129 17.0733 21.2725 14.9204Z" fill="#87ED82"/>
<path d="M22.2171 15.8327C22.176 15.7998 22.1349 15.7681 22.0938 15.7363C19.7856 13.9979 19.0701 16.6725 15.3206 16.6725C11.5723 16.6725 10.8558 13.9979 8.54869 15.7363C5.98918 17.6652 4.27294 23.1755 5.87277 25.7926C5.83166 25.7832 5.78938 25.7727 5.74709 25.7609C3.06416 23.6876 4.8708 17.0732 7.72763 14.9199C10.0347 13.1815 10.75 15.8562 14.4996 15.8562C18.2491 15.8562 18.9644 13.1815 21.2727 14.9199C21.6028 15.169 21.9198 15.4779 22.2171 15.8327Z" fill="#87ED82"/>
<path d="M11.7353 18.6971H10.6071C10.527 18.6971 10.4622 18.6322 10.4622 18.5522V17.4239C10.4622 17.3439 10.3972 17.2789 10.3171 17.2789H9.49525C9.41519 17.2789 9.35033 17.3439 9.35033 17.4239V18.5522C9.35033 18.6322 9.28535 18.6971 9.20529 18.6971H8.07705C7.99699 18.6971 7.93213 18.7619 7.93213 18.842V19.664C7.93213 19.7441 7.99699 19.8089 8.07705 19.8089H9.20529C9.28535 19.8089 9.35033 19.8738 9.35033 19.9539V21.0821C9.35033 21.1622 9.41519 21.227 9.49525 21.227H10.3171C10.3972 21.227 10.4622 21.1622 10.4622 21.0821V19.9539C10.4622 19.8738 10.527 19.8089 10.6071 19.8089H11.7353C11.8154 19.8089 11.8803 19.7441 11.8803 19.664V18.842C11.8803 18.7619 11.8154 18.6971 11.7353 18.6971Z" fill="#27AAE1"/>
<path d="M17.3529 19.6969C16.7456 18.5428 17.8745 17.3451 19.0651 17.3797C20.2559 17.3423 21.3881 18.5436 20.7773 19.6969C20.4062 18.9963 19.842 18.584 19.0651 18.5898C18.2882 18.581 17.7216 18.9955 17.3529 19.6969Z" fill="#27AAE1"/>
<path d="M20.0258 20.5003C20.0258 21.0309 19.5956 21.4611 19.065 21.4611C18.5344 21.4611 18.1042 21.0309 18.1042 20.5003C18.1042 19.9697 18.5344 19.5396 19.065 19.5396C19.5956 19.5396 20.0258 19.9697 20.0258 20.5003Z" fill="#27AAE1"/>
<path d="M11.9081 24.2575V24.3926C11.9081 25.7431 13.013 26.8481 14.3635 26.8481H14.6365C15.987 26.8481 17.092 25.7431 17.092 24.3926V24.2575C15.4604 24.8129 13.5396 24.8129 11.9081 24.2575Z" fill="#87ED82"/>
<path d="M28.0733 8.73774C27.1818 10.3294 25.7463 11.5781 24.1147 12.4438C24.0737 14.4576 23.024 16.0934 22.9318 16.231C22.6992 15.8456 22.4455 15.4873 22.1764 15.1666C22.2035 14.5793 22.1718 13.9508 22.0755 13.3025C15.2468 15.5078 10.1885 11.7932 8.57623 10.5737C7.37577 11.6155 6.61221 13.6888 6.42773 15.5731C6.16462 15.9326 5.92027 16.3272 5.69945 16.7466C5.30959 15.9668 3.84684 12.3138 5.39285 9.19115C4.7501 8.81982 3.63849 8.07265 2.74402 6.67143C4.7027 7.1062 6.27034 7.1062 6.27034 7.1062C6.27034 7.1062 5.5765 5.53654 7.10553 2.32406C7.31531 4.7548 8.5406 5.74989 8.5406 5.74989C8.5406 5.74989 9.42437 1.43482 14.0325 0.241364C15.4152 -0.114523 16.9234 -0.0863724 18.3506 0.389372C17.3744 0.979031 16.5897 1.72727 15.9696 2.63184C21.8018 2.11262 26.6179 5.02113 28.0733 8.73774Z" fill="#27AAE1"/>
</svg>
