<svg width="51" height="34" viewBox="0 0 51 34" fill="none" xmlns="http://www.w3.org/2000/svg">
<path d="M24.5674 0.203556C23.0405 0.203556 21.5137 0.203857 19.9871 0.202347C19.8536 0.202347 19.7229 0.211105 19.5933 0.245533C18.8088 0.454205 18.029 0.677074 17.2822 1.00171C16.8265 1.19981 16.4572 1.49335 16.2349 1.94633C16.1857 2.04689 16.1178 2.08887 16.0148 2.11786C13.6242 2.79371 12.2366 4.87471 12.4996 7.37345C12.6986 9.26208 12.8889 11.1516 13.0891 13.0401C13.1036 13.1779 13.0713 13.2366 12.9448 13.3024C12.1273 13.7278 11.6556 14.4113 11.6378 15.3286C11.6051 17.0122 11.6067 18.6971 11.6305 20.381C11.6486 21.6587 12.6585 22.7414 13.9256 22.8884C14.1035 22.909 14.1358 22.9721 14.15 23.1231C14.269 24.3948 14.3976 25.6655 14.5133 26.9374C14.5281 27.1003 14.5858 27.2092 14.7063 27.3151C16.7568 29.1144 18.8036 30.9179 20.8523 32.7195C20.9952 32.8453 21.1413 32.9692 21.295 33.0814C21.5134 33.2403 21.7541 33.3391 22.0328 33.3391C24.0573 33.3395 26.0822 33.3448 28.1067 33.3447C28.3921 33.3447 28.6007 33.1653 28.7997 32.9923C29.9642 31.9808 31.1229 30.9627 32.286 29.9497C33.2928 29.0728 34.3015 28.1983 35.313 27.3271C35.4208 27.2342 35.4765 27.1395 35.4901 26.9937C35.6133 25.6811 35.7474 24.3695 35.871 23.0569C35.883 22.9297 35.9199 22.8995 36.0459 22.8889C37.3856 22.7761 38.4432 21.6588 38.4597 20.3008C38.4796 18.6666 38.4847 17.0317 38.4587 15.3976C38.4435 14.4427 37.982 13.7232 37.1195 13.2879C36.988 13.2215 36.9659 13.1495 36.979 13.0205C37.0893 11.9315 37.2113 10.8433 37.2953 9.75214C37.3427 9.13552 37.4805 8.54746 37.6453 7.95411C38.2612 5.73628 37.275 2.8686 34.0913 2.14625C33.6155 2.03844 33.1313 1.96324 32.6479 1.8956C32.431 1.8651 32.2664 1.7905 32.1156 1.62713C31.406 0.858265 30.5398 0.372364 29.4943 0.229828C29.3469 0.209896 29.1969 0.204765 29.048 0.204464C27.5543 0.202652 26.061 0.203556 24.5674 0.203556Z" fill="#11100F"/>
<path d="M3.24133 16.1462C4.12008 16.1462 4.9992 16.1468 5.87794 16.1455C5.97699 16.1453 6.07941 16.1482 6.17472 16.1264C6.36946 16.0816 6.46365 15.9377 6.47524 15.748C6.48682 15.552 6.39338 15.4111 6.20164 15.355C6.12389 15.3323 6.03792 15.3305 5.95606 15.3304C4.14849 15.3285 2.34091 15.3291 0.533329 15.3262C0.331117 15.3259 0.145721 15.3544 0.0481658 15.5545C-0.0961113 15.8505 0.097506 16.1364 0.455209 16.1412C1.07717 16.1495 1.69913 16.1433 2.32072 16.1433C2.62759 16.1432 2.93446 16.1432 3.24133 16.1432C3.24133 16.1442 3.24133 16.1452 3.24133 16.1462Z" fill="#11100F"/>
<path d="M46.8417 16.1449C47.7536 16.1449 48.6656 16.143 49.5775 16.1463C49.8059 16.1471 49.9905 16.0865 50.0626 15.8484C50.1378 15.6009 49.9906 15.3762 49.7336 15.3361C49.6767 15.3273 49.6178 15.3303 49.5598 15.3303C47.7526 15.3292 45.9452 15.3294 44.1379 15.3265C43.9538 15.3261 43.7888 15.3539 43.6885 15.5278C43.5194 15.8207 43.7154 16.1329 44.0809 16.1365C44.8271 16.1439 45.5733 16.1411 46.3195 16.1425C46.4935 16.1428 46.6675 16.1425 46.8417 16.1425C46.8417 16.1433 46.8417 16.1441 46.8417 16.1449Z" fill="#11100F"/>
<path d="M4.78021 17.9123C5.19383 17.9123 5.60745 17.9134 6.02107 17.9119C6.20219 17.9112 6.36699 17.8734 6.46163 17.6943C6.61084 17.4116 6.43008 17.1312 6.08132 17.1275C5.46107 17.1208 4.84046 17.1262 4.21986 17.1263C3.97991 17.1263 3.73996 17.1231 3.50001 17.1256C3.23348 17.1284 3.07292 17.2677 3.06512 17.4966C3.05697 17.7402 3.21327 17.9021 3.48973 17.9075C3.91965 17.9158 4.34993 17.9097 4.78021 17.9097C4.78021 17.9106 4.78021 17.9115 4.78021 17.9123Z" fill="#11100F"/>
<path d="M45.2499 17.1241C44.8526 17.1241 44.4554 17.1227 44.0583 17.1244C43.7693 17.1258 43.6073 17.2591 43.5986 17.4974C43.59 17.7295 43.7491 17.8994 44.0329 17.903C44.8684 17.9137 45.7043 17.9123 46.5399 17.9047C46.7941 17.9024 46.948 17.7321 46.9486 17.4985C46.9492 17.2811 46.7982 17.1323 46.5406 17.1272C46.1105 17.1186 45.68 17.1248 45.2499 17.1248C45.2499 17.1246 45.2499 17.1243 45.2499 17.1241Z" fill="#11100F"/>
<path d="M12.2434 31.5139C12.6539 31.5138 12.9828 31.184 12.9803 30.775C12.9779 30.3766 12.6288 30.0304 12.2331 30.0339C11.8219 30.0375 11.4774 30.3898 11.4822 30.8013C11.4868 31.2071 11.8147 31.514 12.2434 31.5139Z" fill="#11100F"/>
<path d="M37.6374 31.5111C38.0586 31.5084 38.3838 31.1868 38.38 30.7767C38.3763 30.362 38.0396 30.0286 37.636 30.0399C37.2158 30.0517 36.8761 30.3995 36.885 30.8089C36.8934 31.1971 37.2327 31.5138 37.6374 31.5111Z" fill="#11100F"/>
<path d="M11.3654 1.48556C11.7667 1.48956 12.1098 1.15075 12.116 0.744476C12.1222 0.350524 11.7692 1.07288e-06 11.3669 1.07288e-06C10.9563 0.00030911 10.6249 0.331427 10.624 0.742936C10.6228 1.15414 10.9496 1.48156 11.3654 1.48556Z" fill="#11100F"/>
<path d="M38.0858 0.745931C38.0851 1.15724 38.4374 1.49423 38.8608 1.48757C39.254 1.48138 39.5659 1.15036 39.5675 0.737445C39.569 0.344258 39.2416 0.0175948 38.8366 0.00818944C38.435 -0.000986457 38.0864 0.341503 38.0858 0.745931Z" fill="#11100F"/>
<path d="M14.8232 19.2682C14.8342 19.7206 14.7593 20.1837 15.0289 20.5928C15.1431 20.7657 15.2002 20.9762 15.2092 21.1819C15.2228 21.4878 15.3627 21.696 15.5883 21.894C16.5351 22.7258 17.4636 23.5782 18.4084 24.4121C18.7224 24.6893 18.8722 25.0023 18.8657 25.4318C18.8471 26.6259 18.8654 27.8207 18.8603 29.0151C18.8598 29.18 18.9118 29.2884 19.0345 29.3964C19.8682 30.1307 20.6997 30.8676 21.5228 31.6142C21.8668 31.9262 22.2477 32.0695 22.7178 32.0645C24.2689 32.0484 25.8206 32.052 27.3717 32.0619C27.7513 32.0643 28.0647 31.9502 28.3454 31.7011C29.2323 30.9142 30.1231 30.1314 31.0166 29.3522C31.1155 29.2658 31.1429 29.1776 31.1423 29.0516C31.1387 27.8157 31.1491 26.5797 31.137 25.3439C31.1336 24.9988 31.2523 24.7394 31.5035 24.5154C32.5188 23.6109 33.5272 22.6985 34.5443 21.7962C34.6972 21.6607 34.7804 21.5218 34.793 21.3123C34.8149 20.9485 34.8775 20.5951 35.0898 20.2745C35.2097 20.0934 35.1211 19.8523 35.1598 19.6404C35.1855 19.4994 35.1832 19.3534 35.1942 19.1991C35.1107 19.2223 35.1022 19.2761 35.0783 19.3159C33.6401 21.7155 30.4233 22.2466 28.2642 20.4462C27.6817 19.9605 27.2428 19.3639 26.8564 18.7204C26.656 18.3867 26.4571 18.0507 26.2338 17.7322C25.6145 16.8479 24.3834 16.7463 23.7081 17.6791C23.3961 18.1103 23.1519 18.582 22.8715 19.0318C22.1042 20.2622 21.0581 21.1102 19.6167 21.4132C17.738 21.8079 15.8972 21.0085 14.8904 19.3701C14.8692 19.3355 14.8458 19.3022 14.8232 19.2682Z" fill="#27AAE1"/>
<path d="M25.0675 12.8699C27.4311 12.8699 29.7947 12.8681 32.1581 12.8715C32.6284 12.8722 32.6303 12.8814 32.6311 12.3987C32.634 10.4003 32.6308 8.40169 32.6444 6.40333C32.6462 6.16072 32.5539 6.05218 32.3502 5.95801C31.2964 5.47013 30.2606 5.39058 29.1645 5.88645C27.9057 6.456 26.6033 6.92766 25.2718 7.30914C23.3174 7.86885 21.3802 7.8465 19.4606 7.14287C18.8873 6.93272 18.293 6.83535 17.6788 6.86781C17.5253 6.87579 17.4675 6.91516 17.4683 7.08408C17.4766 8.94172 17.4782 10.799 17.4731 12.6565C17.4726 12.8399 17.5074 12.8812 17.7035 12.8782C18.8394 12.8608 19.9756 12.8653 21.1118 12.8643C22.4305 12.8632 23.7491 12.864 25.0675 12.864C25.0675 12.866 25.0675 12.8679 25.0675 12.8699Z" fill="#27AAE1"/>
<path d="M34.4054 17.1156C34.3551 15.918 33.8849 15.0247 32.8504 14.4715C32.6069 14.3413 32.3425 14.2848 32.0613 14.2849C27.3338 14.2878 22.6062 14.2857 17.879 14.2882C17.1702 14.2885 16.65 14.6722 16.2414 15.1965C15.5137 16.13 15.3642 17.179 15.8297 18.2632C16.2972 19.3525 17.1563 19.988 18.3442 20.1122C19.7138 20.2553 20.7611 19.6895 21.5167 18.5635C21.8213 18.1096 22.0883 17.6308 22.3862 17.1724C23.04 16.1669 23.9398 15.596 25.1718 15.6789C26.1425 15.7442 26.8696 16.2527 27.4096 17.0329C27.7959 17.5911 28.1259 18.189 28.522 18.7397C29.4946 20.0911 31.1841 20.5374 32.6518 19.814C33.7755 19.2599 34.3294 18.3093 34.4054 17.1156Z" fill="#27AAE1"/>
<path d="M31.7903 3.13504C31.1865 2.20297 30.3943 1.54576 29.2315 1.53988C26.112 1.52383 22.9926 1.53373 19.8728 1.53079C19.6966 1.53079 19.5247 1.55351 19.3579 1.60218C18.8651 1.74629 18.3739 1.89602 17.8833 2.04682C17.637 2.12249 17.4354 2.26046 17.3044 2.48853C17.2469 2.62115 17.3055 2.7297 17.3763 2.83585C18.025 3.80722 18.8929 4.49357 20.0094 4.854C21.4527 5.31977 22.9172 5.27672 24.388 5.02218C25.1907 4.88341 25.9773 4.67994 26.743 4.4016C26.8414 4.36577 27.0144 4.37753 26.9716 4.18208C26.1294 3.80268 25.3575 3.31017 24.6407 2.7297C24.5575 2.66232 24.4615 2.59975 24.4364 2.48772C24.4064 2.35457 24.407 2.21821 24.5187 2.11848C24.6623 1.99041 24.8302 2.00618 24.9824 2.0896C25.4032 2.32008 25.8225 2.5527 26.2594 2.75162C27.1489 3.1567 28.0518 3.52327 29.0098 3.73664C29.0641 3.76097 29.1251 3.78557 29.158 3.71605C29.1818 3.66578 29.1379 3.6238 29.1026 3.58878C29.0545 3.54118 28.9925 3.51578 28.931 3.49145C27.9187 3.08985 26.9615 2.58719 26.0864 1.93506C26.0666 1.92035 26.0457 1.90645 26.0305 1.90672C27.4131 2.36954 28.8435 2.68291 30.285 2.95242C30.6997 3.03023 31.1152 3.10402 31.5325 3.16686C31.6205 3.17996 31.7127 3.21392 31.7903 3.13504Z" fill="#87ED82"/>
<path d="M26.9718 4.18196C26.9729 4.29152 26.8768 4.28454 26.8134 4.30656C25.2065 4.86402 23.5631 5.22303 21.8518 5.12207C20.3357 5.03265 18.9525 4.59629 17.9085 3.41075C17.6655 3.13497 17.3916 2.87021 17.3043 2.48863C17.0594 2.89276 17.0809 3.31757 17.1958 3.75473C17.3956 4.5144 17.8862 5.03856 18.539 5.43302C19.5103 6.02002 20.5718 6.33205 21.6915 6.47491C23.3322 6.68436 24.8744 6.27781 26.3939 5.73458C27.0634 5.49532 27.724 5.23163 28.388 4.9776C28.4718 4.94565 28.5524 4.9051 28.7097 4.83502C28.0685 4.64651 27.514 4.42954 26.9718 4.18196Z" fill="#72DD6C"/>
<path d="M35.4187 15.2831C35.4513 14.9368 35.4794 14.5901 35.518 14.2448C35.5465 13.9892 35.453 13.7768 35.2644 13.6281C34.9029 13.3435 34.8099 12.988 34.8207 12.538C34.8498 11.3363 34.828 10.1335 34.8359 8.93107C34.8393 8.4267 34.691 7.98683 34.3527 7.61164C34.0987 7.32946 33.824 7.06977 33.5358 6.82846C33.4541 6.88096 33.4846 6.9449 33.4844 6.99646C33.479 9.028 33.4758 11.0596 33.4706 13.0911C33.4704 13.1672 33.4591 13.2362 33.5431 13.2829C34.3788 13.7485 34.994 14.418 35.4187 15.2831Z" fill="#27AAE1"/>
<path d="M14.6397 15.0952C14.7369 15.0672 14.7389 14.9901 14.7685 14.9368C15.1722 14.2061 15.7291 13.6324 16.4879 13.2702C16.5871 13.2229 16.6184 13.1711 16.6184 13.0666C16.6153 11.1522 16.6141 9.23783 16.6173 7.32333C16.6176 7.16099 16.5724 7.13711 16.4345 7.2116C15.7118 7.60308 15.2242 8.12278 15.2481 9.02595C15.2813 10.2765 15.2538 11.5286 15.2626 12.7799C15.2643 13.0483 15.1955 13.2752 14.9857 13.4393C14.603 13.7382 14.4884 14.1186 14.5874 14.5846C14.6223 14.7491 14.6229 14.9211 14.6397 15.0952Z" fill="#27AAE1"/>
<path d="M31.9994 28.5183C32.499 28.0803 32.9452 27.6885 33.3919 27.2974C33.6163 27.101 33.833 26.8947 34.0694 26.7138C34.2497 26.5759 34.3197 26.4129 34.3388 26.1897C34.4241 25.1919 34.5266 24.1955 34.6216 23.1984C34.6325 23.0835 34.6371 22.9681 34.644 22.8594C34.583 22.8227 34.5584 22.8635 34.5301 22.8892C33.7764 23.5741 33.0262 24.2633 32.2667 24.9418C32.08 25.1084 31.9901 25.2833 31.9939 25.5418C32.0077 26.5092 31.9994 27.4771 31.9994 28.5183Z" fill="#27AAE1"/>
<path d="M15.3677 22.8307C15.4246 23.4505 15.4771 24.0333 15.5323 24.6159C15.5867 25.1929 15.6455 25.7697 15.6985 26.347C15.7072 26.4422 15.7286 26.5194 15.8048 26.5857C16.5043 27.1949 17.201 27.8071 17.8996 28.4173C17.9164 28.4321 17.9431 28.4358 17.966 28.4452C18.0327 28.3923 18.0039 28.3207 18.0042 28.2603C18.0081 27.3076 18.007 26.3547 18.0123 25.4019C18.0132 25.2518 17.9805 25.1321 17.8631 25.0282C17.0638 24.3195 16.2683 23.6066 15.4712 22.8956C15.4536 22.88 15.431 22.87 15.3677 22.8307Z" fill="#27AAE1"/>
<path d="M31.7902 3.13526C30.8424 2.99784 29.9027 2.81693 28.9659 2.61942C27.9239 2.39985 26.8979 2.12019 25.8127 1.77782C26.0712 2.02362 26.3054 2.17961 26.5411 2.33233C26.7839 2.48964 27.0268 2.6487 27.2809 2.78634C27.8339 3.08588 28.3974 3.36555 28.9877 3.58643C29.05 3.60981 29.1151 3.62991 29.1214 3.70725C29.1219 3.71403 29.0489 3.7267 29.01 3.73675C29.6119 3.93754 30.2305 4.07649 30.8472 4.22113C31.3301 4.3343 31.8116 4.45141 32.272 4.64062C32.3666 4.67951 32.4734 4.71316 32.4251 4.54689C32.2798 4.04744 32.1123 3.55606 31.7902 3.13526Z" fill="#72DD6C"/>
<path d="M36.7838 14.56C36.7129 15.4575 36.6471 16.306 36.5783 17.1541C36.4932 18.2024 36.4066 19.2503 36.3186 20.2982C36.2976 20.5485 36.222 20.7835 36.1028 21.0052C36.0085 21.1807 35.9513 21.4354 36.0555 21.5418C36.1724 21.661 36.3896 21.502 36.5421 21.413C36.9879 21.1529 37.212 20.748 37.2149 20.2414C37.224 18.6509 37.2217 17.0601 37.2153 15.4696C37.2138 15.1291 37.1016 14.8235 36.7838 14.56Z" fill="#27AAE1"/>
<path d="M34.2936 4.17995C34.4438 4.63508 34.4713 5.10671 34.4324 5.57692C34.4077 5.87409 34.5182 6.083 34.7183 6.27581C35.0408 6.58643 35.3445 6.91254 35.5882 7.29287C35.8088 7.63752 35.929 8.00602 35.9294 8.41407C35.93 9.2434 35.9302 10.0727 35.9306 10.9019C35.9306 10.9667 35.9306 11.0313 35.9622 11.0969C36.0001 10.6479 36.0619 10.1995 36.0707 9.75009C36.0872 8.90792 36.2468 8.09734 36.4834 7.29164C36.5731 6.98612 36.6424 6.64962 36.537 6.31902C36.4667 6.36182 36.4836 6.43092 36.4846 6.51775C36.4563 6.33309 36.3544 6.20754 36.2741 6.07179C35.8083 5.28241 35.1396 4.69602 34.3883 4.193C34.36 4.17425 34.3274 4.16834 34.2936 4.17995Z" fill="#72DD6C"/>
<path d="M13.2953 14.5214C13.0067 14.7908 12.8958 15.0912 12.8938 15.4171C12.8838 17.0493 12.8791 18.6818 12.892 20.314C12.8964 20.8653 13.1741 21.2737 13.6845 21.5049C13.9143 21.6089 13.9431 21.5878 13.9246 21.3467C13.9116 21.1738 13.9096 20.994 13.8184 20.841C13.641 20.5443 13.5992 20.223 13.6045 19.8858C13.6101 19.5214 13.5866 19.1561 13.6027 18.7923C13.6572 17.5773 13.4677 16.3802 13.3548 15.1774C13.3356 14.9747 13.318 14.7718 13.2953 14.5214Z" fill="#27AAE1"/>
<path d="M13.7348 6.96352C13.7764 7.53992 13.816 8.11633 13.8599 8.6923C13.8957 9.16171 13.9275 9.63182 13.9786 10.0997C14.015 10.4319 14.0046 10.771 14.1029 11.0963C14.0985 10.5008 14.1474 9.90728 14.085 9.31232C13.9416 7.94153 14.705 6.68817 15.9791 6.15858C16.1782 6.07566 16.3755 5.991 16.5821 5.92917C16.8852 5.83903 17.0343 5.29123 16.8213 5.06471C16.7026 4.93845 16.5925 4.80439 16.4784 4.6738C15.8766 4.92343 15.3331 5.27071 14.8454 5.69745C14.421 6.06843 14.0442 6.48824 13.7348 6.96352Z" fill="#72DD6C"/>
<path d="M13.7348 6.9635C13.8287 6.96928 13.8573 6.89298 13.8995 6.83344C14.5264 5.94848 15.3405 5.28693 16.3102 4.80977C16.3764 4.7774 16.4515 4.75514 16.4784 4.67393C16.2813 4.3459 16.1007 4.01007 16.0567 3.62192C16.0368 3.4462 15.9535 3.45487 15.8246 3.51209C14.7481 3.99012 14.0963 4.81497 13.8281 5.95253C13.7501 6.28431 13.72 6.62217 13.7348 6.9635Z" fill="#87ED82"/>
<path d="M34.2937 4.17967C34.6112 4.45849 34.9805 4.67078 35.2882 4.9625C35.7843 5.43303 36.1883 5.97175 36.5141 6.63794C36.5247 6.49135 36.5307 6.40527 36.537 6.31899C36.3977 4.72484 35.2146 3.73097 34.0679 3.49913C34.1455 3.73055 34.2569 3.94346 34.2937 4.17967Z" fill="#87ED82"/>
<path d="M33.0799 3.52803C33.2173 4.0262 33.3377 4.52022 33.3463 5.03627C33.3488 5.17587 33.4387 5.2571 33.6066 5.29553C33.4975 4.67209 33.3843 4.07108 33.0799 3.52803Z" fill="#442B16"/>
<path d="M24.9761 26.329C26.2448 26.3292 27.5135 26.3316 28.782 26.3253C28.8962 26.3247 29.0667 26.4054 29.1101 26.2037C29.1509 26.014 29.0102 25.9352 28.8754 25.8697C28.3346 25.607 27.7596 25.4422 27.1673 25.3678C25.565 25.1663 23.9618 25.1425 22.3664 25.4406C21.9838 25.5121 21.6109 25.6257 21.2524 25.781C21.1613 25.8204 21.0706 25.8617 20.9835 25.9088C20.8619 25.9742 20.7973 26.0771 20.8292 26.2168C20.8636 26.3678 20.9948 26.33 21.0952 26.3301C22.2726 26.3316 23.4502 26.3297 24.6276 26.3288C24.7437 26.3287 24.8599 26.3288 24.9761 26.329Z" fill="#11100F"/>
<path d="M26.9161 22.6464C27.0877 22.5318 27.2672 22.4269 27.3688 22.2346C27.4791 22.0261 27.513 21.8095 27.4204 21.5889C27.3276 21.3678 27.2206 21.1526 27.1197 20.9349C27.0863 20.8626 27.0436 20.8008 26.9508 20.831C26.8612 20.8599 26.8506 20.935 26.8648 21.0131C26.8928 21.1676 26.9281 21.3208 26.9559 21.4753C27.0443 21.9707 26.7837 22.2297 26.2976 22.1207C26.0662 22.0689 25.8746 22.1522 25.6865 22.2633C25.1976 22.5522 24.7131 22.5362 24.2312 22.2468C24.0927 22.0536 23.8919 22.0323 23.6791 22.052C23.5891 22.0603 23.5005 22.0849 23.4091 22.0789C23.1513 22.062 22.9967 21.8832 23.0132 21.6105C23.0245 21.4206 23.0912 21.239 23.1119 21.0509C23.1287 20.9005 23.1013 20.7663 22.8918 20.8156C22.7679 21.0724 22.6341 21.3251 22.5226 21.5874C22.4199 21.8299 22.4856 22.0678 22.5926 22.2959C22.7309 22.6052 23.0024 22.7203 23.3087 22.7598C23.5703 22.7934 23.8078 22.8708 24.025 23.0188C24.5816 23.398 25.1564 23.3939 25.7417 23.0906C26.0367 22.9378 26.3308 22.7852 26.6715 22.7605C26.7655 22.7537 26.8412 22.6987 26.9161 22.6464Z" fill="#12100F"/>
<path d="M26.916 22.6464C26.4529 22.7016 26.0286 22.8524 25.6131 23.0734C25.1233 23.3341 24.6093 23.3143 24.1295 23.0038C23.8698 22.8359 23.6043 22.7083 23.2836 22.6886C23.0016 22.6712 22.7755 22.5107 22.5925 22.2959C22.5906 22.4501 22.6448 22.5874 22.73 22.7112C23.0101 23.1181 23.2859 23.5282 23.5789 23.9257C23.7488 24.1558 23.9217 24.3983 24.2152 24.4895C24.6862 24.6358 25.0918 24.5196 25.4308 24.1638C25.7726 23.8053 26.1154 23.4478 26.4567 23.089C26.6035 22.9347 26.8142 22.8471 26.916 22.6464Z" fill="#27AAE1"/>
<path d="M22.8917 20.8156C23.0555 20.8131 23.0853 20.9028 23.0548 21.0433C23.0132 21.2367 22.9599 21.43 22.9441 21.626C22.9159 21.9718 23.1605 22.2165 23.4964 22.1443C23.7673 22.0862 23.9979 22.1282 24.2311 22.2469C24.2172 22.0159 24.3035 21.8151 24.4313 21.6326C24.5286 21.4933 24.5647 21.3562 24.4804 21.2006C24.2889 21.0064 24.2165 20.7762 24.2253 20.5019C24.2379 20.1214 24.2218 19.7399 24.2181 19.3587C24.1387 19.0008 24.2037 18.6382 24.1816 18.2784C24.176 18.1847 24.2009 18.0856 24.1322 17.9544C23.9311 18.2711 23.8548 18.5987 23.7359 18.9068C23.5019 19.5127 23.2629 20.1161 22.9848 20.7032C22.9645 20.7457 22.9231 20.7784 22.8917 20.8156Z" fill="#1D6C8D"/>
<path d="M24.98 28.2267C25.5276 28.2268 26.0749 28.2298 26.6225 28.2256C26.9231 28.2233 27.0881 28.0876 27.0876 27.8594C27.0874 27.6325 26.9208 27.4908 26.6207 27.4897C25.5173 27.4851 24.414 27.4847 23.3106 27.4883C23.037 27.4892 22.8572 27.6392 22.8523 27.8449C22.8469 28.0664 23.0266 28.2225 23.3127 28.2252C23.8682 28.2304 24.4242 28.2267 24.98 28.2267Z" fill="#11100F"/>
<path d="M18.8635 18.965C19.8537 18.966 20.696 18.1486 20.6938 17.1824C20.6914 16.1355 19.8553 15.3553 18.8533 15.3522C17.7743 15.3489 17.0506 16.1314 17.0224 17.1227C16.9933 18.1478 17.83 18.9639 18.8635 18.965Z" fill="white"/>
<path d="M31.2563 18.1287C31.819 18.1291 32.2894 17.6638 32.2899 17.1066C32.2907 16.553 31.8139 16.082 31.2537 16.0834C30.6864 16.0847 30.2094 16.5474 30.209 17.097C30.2087 17.6752 30.6687 18.1285 31.2563 18.1287Z" fill="#11100F"/>
<path d="M19.7059 17.1319C19.7049 16.6908 19.3173 16.3292 18.8433 16.3267C18.3933 16.3243 18.0023 16.728 18.0039 17.1935C18.0057 17.6703 18.3775 18.0292 18.8646 18.0242C19.3299 18.0192 19.7072 17.6193 19.7059 17.1319Z" fill="#27AAE1"/>
</svg>
