<svg width="31" height="37" viewBox="0 0 31 37" fill="none" xmlns="http://www.w3.org/2000/svg">
<path d="M25.6956 14.7496L12.3303 21.5184L10.4514 28.5877L0 36.6953L0.0197336 36.6492C0.624171 35.1989 1.0643 33.6943 1.33707 32.1634C1.37976 31.932 1.41754 31.7003 1.45028 31.4687C1.55553 30.7509 1.62453 30.0266 1.65727 29.3006C1.66721 29.0839 1.67379 28.8669 1.67547 28.6485C1.69674 27.3526 1.6048 26.0517 1.39781 24.7607C1.18103 23.4024 1.0513 22.1179 1.00036 20.904C0.990415 20.7037 0.983836 20.5049 0.980624 20.3095C0.872158 15.3014 2.13366 11.5139 4.18838 8.65093C4.30342 8.49 4.42336 8.33074 4.54483 8.17623C4.83229 7.80341 5.13458 7.44864 5.44988 7.11024C5.58956 6.95909 5.73244 6.80978 5.87701 6.66521C8.46886 4.07658 11.8063 2.46857 15.1769 1.48305C15.3591 1.43042 15.5414 1.37794 15.7238 1.32869C18.8035 0.489265 21.8783 0.15255 24.4077 0.0442352C24.6706 0.0327644 24.9285 0.0228195 25.178 0.0162392C25.8712 -0.00181198 26.5151 -0.00349426 27.0966 0.00476456C27.4036 0.00813293 27.6928 0.0162392 27.9638 0.0245018C29.4404 0.073761 30.3356 0.177177 30.3356 0.177177C30.3356 0.177177 24.3026 5.81768 25.6956 14.7496Z" fill="#87ED82"/>
<path d="M29.4286 36.6954C24.8325 30.9871 25.5076 24.2896 25.5076 24.2896L22.1394 22.2345L21.7398 18.9803L27.1062 21.4351L26.7636 26.4019L28.0195 27.9432L28.7045 27.6007L27.7943 21.4515L27.2773 11.2025L25.5358 13.2767C23.9347 11.9797 21.8952 11.2025 19.6742 11.2025C14.5279 11.2025 10.3559 15.3745 10.3559 20.5209V23.4872H9.51153V29.3122H10.451V32.0422C10.451 32.0422 10.3162 34.6351 9.02856 35.6999C9.02856 35.6999 14.7624 34.9339 15.8616 29.0636C18.2503 28.5827 19.6026 27.7148 19.6026 27.7148C21.5466 29.9869 20.8755 33.9365 20.8755 33.9365C25.4224 34.1084 29.4286 36.6954 29.4286 36.6954Z" fill="#27AAE1"/>
<path d="M10.3558 23.4872H15.1312L10.3558 22.7145V23.4872Z" fill="#EBEBE6"/>
<path d="M25.5358 13.2767L26.0793 14.6355L25.8408 12.9134L25.5358 13.2767Z" fill="#EBEBE6"/>
<path d="M15.8626 29.0638C15.8626 29.0638 14.8275 29.3307 12.9681 29.2743C12.9681 29.2743 14.589 29.5569 16.0792 29.324L15.8626 29.0638Z" fill="#EBEBE6"/>
<path d="M19.6026 27.7149C19.6026 27.7149 19.1859 27.1308 18.499 26.8122C18.499 26.8122 19.6181 27.6132 19.5174 28.2225L19.6026 27.7149Z" fill="#EBEBE6"/>
<path d="M27.1062 21.4353L27.1834 20.7192L26.8363 21.4353H27.1062Z" fill="#EBEBE6"/>
<path d="M10.4509 29.3123H11.7525L10.4509 29.4532V29.3123Z" fill="#EBEBE6"/>
<path d="M27.9639 0.0244951C27.7701 0.182221 27.5729 0.364423 27.3873 0.543414C27.1656 0.763557 26.9504 0.995176 26.7451 1.23337C26.3345 1.70961 25.9633 2.22547 25.6381 2.76917C25.5542 2.9038 25.4721 3.04011 25.4016 3.18146C25.3275 3.32098 25.2504 3.46066 25.1781 3.60354C25.05 3.89421 24.9054 4.17846 24.8037 4.4806C24.5638 5.07524 24.416 5.69942 24.2878 6.33002C24.3617 5.69284 24.457 5.04893 24.6477 4.42965C24.7264 4.11435 24.8464 3.81206 24.9532 3.50502C25.0122 3.35387 25.0795 3.20441 25.1419 3.05495C25.2028 2.9038 25.275 2.75755 25.3489 2.61145C25.6347 2.02506 25.9731 1.46162 26.3574 0.929548C26.5497 0.663357 26.7533 0.403896 26.9669 0.152544C27.0096 0.103283 27.0523 0.0540204 27.0966 0.00475979C27.4037 0.00812531 27.6928 0.0162339 27.9639 0.0244951Z" fill="#EBEBE6"/>
<path d="M25.1779 0.016217C24.9957 0.195361 24.8134 0.3973 24.6442 0.599392C24.4357 0.849061 24.2402 1.1102 24.0595 1.38114C23.8754 1.65223 23.7079 1.93463 23.5585 2.22867C23.4041 2.51949 23.2793 2.82668 23.161 3.13861C23.2266 2.81352 23.3007 2.48491 23.4073 2.1664C23.5092 1.84605 23.6308 1.5306 23.772 1.22188C23.9117 0.913007 24.0677 0.610862 24.2402 0.316828C24.2943 0.224885 24.3502 0.134474 24.4077 0.044214C24.6705 0.0327404 24.9284 0.0227952 25.1779 0.016217Z" fill="#EBEBE6"/>
<path d="M15.8731 3.70038L15.1768 1.48304C15.359 1.43041 15.5413 1.37794 15.7237 1.32868L15.8731 3.70038Z" fill="#EBEBE6"/>
<path d="M8.81531 9.8598C8.58538 9.53135 8.3325 9.22584 8.05162 8.94496C7.76737 8.66898 7.47181 8.40784 7.15636 8.17301C6.84106 7.93649 6.51413 7.71635 6.1791 7.51273C5.9409 7.37137 5.6946 7.23338 5.44983 7.11023C5.5895 6.95908 5.73239 6.80977 5.87696 6.6652C6.07721 6.80809 6.26951 6.95587 6.46166 7.11023C6.77864 7.36648 7.08247 7.63925 7.37161 7.92487C7.66059 8.21079 7.92678 8.51783 8.17477 8.83818C8.42107 9.16006 8.63296 9.50503 8.81531 9.8598Z" fill="#EBEBE6"/>
<path d="M7.80028 26.9929C7.30921 27.5907 6.76382 28.1442 6.19549 28.6748C5.62562 29.2019 5.03266 29.7079 4.41017 30.176C3.78768 30.6458 3.14867 31.0959 2.48013 31.5016C2.10731 31.7364 1.7247 31.9549 1.33704 32.1634C1.37972 31.9319 1.41751 31.7003 1.4504 31.4687C1.71475 31.3422 1.97758 31.2124 2.23551 31.0729C2.91705 30.7231 3.57411 30.3271 4.21955 29.9083C4.86682 29.4911 5.48595 29.0329 6.08717 28.5499C6.68671 28.0654 7.26805 27.5546 7.80028 26.9929Z" fill="#EBEBE6"/>
<path d="M4.83702 27.1177C4.29668 27.5561 3.73493 27.9701 3.15512 28.3643C2.86598 28.5631 2.57042 28.7535 2.27149 28.9376C2.07108 29.0641 1.86577 29.1839 1.6571 29.3006C1.66705 29.0838 1.67363 28.8669 1.67516 28.6484C1.79999 28.6008 1.92329 28.5516 2.04645 28.499C2.36343 28.3677 2.67888 28.228 2.9925 28.0802C3.61835 27.7845 4.23595 27.4659 4.83702 27.1177Z" fill="#EBEBE6"/>
<path d="M5.5369 19.664C4.73542 19.9629 3.92063 20.2339 3.09283 20.4672C2.67733 20.5854 2.25846 20.6905 1.8298 20.7759C1.55703 20.8268 1.28442 20.8761 1.00033 20.9039C0.990382 20.7037 0.983803 20.5049 0.980591 20.3094C1.23516 20.316 1.50119 20.3045 1.76402 20.2865C2.18289 20.2585 2.60344 20.2092 3.02384 20.1468C3.86479 20.022 4.70421 19.8577 5.5369 19.664Z" fill="#EBEBE6"/>
<path d="M6.8723 10.3411C6.40906 9.9765 5.92625 9.6381 5.43012 9.33091C5.18045 9.17655 4.92757 9.03199 4.67301 8.89568C4.5136 8.81016 4.34945 8.72648 4.18835 8.6509C4.3034 8.48996 4.42334 8.33071 4.54481 8.1762C4.68111 8.2764 4.81253 8.37829 4.94394 8.48507C5.17892 8.67385 5.40717 8.86768 5.62732 9.06809C6.06913 9.47059 6.48464 9.89588 6.8723 10.3411Z" fill="#EBEBE6"/>
<path d="M24.1109 12.3245C22.4549 11.4964 20.5782 11.1777 18.7663 11.3778C16.9543 11.5782 15.2114 12.3171 13.8183 13.4845C12.4185 14.644 11.3714 16.22 10.8387 17.9654C10.5679 18.8377 10.438 19.7504 10.4198 20.6703C10.3999 21.5946 10.3845 22.519 10.3559 23.4433C10.3272 22.519 10.3118 21.5946 10.2919 20.6703C10.2873 20.4399 10.2861 20.2054 10.291 19.9727C10.3029 19.7399 10.3152 19.5067 10.3447 19.2751C10.3964 18.8111 10.4795 18.3491 10.6075 17.8986C11.0941 16.0882 12.1655 14.4387 13.6093 13.2336C13.9707 12.9327 14.3562 12.6616 14.7566 12.4152C15.1608 12.1747 15.581 11.9622 16.0138 11.7789C16.4493 11.6015 16.898 11.4593 17.3532 11.3448C17.8095 11.2335 18.2741 11.1613 18.7407 11.1186C19.2081 11.0835 19.677 11.0746 20.1437 11.1053C20.6102 11.1375 21.074 11.202 21.5291 11.3041C22.4377 11.5132 23.3154 11.8511 24.1109 12.3245Z" fill="#EBEBE6"/>
<path d="M12.4169 16.6371C12.6846 15.9562 13.0678 15.3158 13.5418 14.7469C14.0134 14.1753 14.5831 13.6829 15.2116 13.2854C15.8431 12.8921 16.5326 12.5936 17.249 12.4082C17.9642 12.2202 18.7039 12.1376 19.4348 12.167C18.7112 12.2742 18.0031 12.4261 17.322 12.6539C16.6424 12.8831 15.9889 13.1817 15.3864 13.5632C14.7805 13.9393 14.2273 14.3981 13.7325 14.9167C13.2379 15.4365 12.8059 16.0179 12.4169 16.6371Z" fill="#EBEBE6"/>
<path d="M21.7398 18.9803L20.4768 18.3944L21.865 19.6672L21.7398 18.9803Z" fill="#EBEBE6"/>
</svg>
