<svg width="45" height="65" viewBox="0 0 45 65" fill="none" xmlns="http://www.w3.org/2000/svg">
<path d="M7.76803 44.6719C7.32542 44.9722 6.87901 45.2794 6.42779 45.5787C6.27205 45.6819 6.10896 45.7773 5.93978 45.8562C5.73611 45.9508 5.52254 45.9873 5.32977 45.8237C5.15045 45.6715 5.1436 45.4663 5.20625 45.267C5.46496 44.4421 5.72215 43.6163 6.00344 42.799C6.26165 42.0495 6.54547 41.3086 6.83006 40.5688C6.88155 40.4348 6.8676 40.2058 7.07457 40.2121C7.23563 40.217 7.25516 40.4171 7.31299 40.5419C8.24563 42.5603 9.80223 43.844 11.9501 44.3587C14.4578 44.9598 16.8755 44.5499 19.207 43.5303C20.1338 43.125 21.017 42.6304 21.8015 41.9871C22.1426 41.7076 22.3859 41.7264 22.7318 41.9912C25.0552 43.7692 27.687 44.6765 30.616 44.6156C32.6705 44.5727 34.5345 43.9785 36.0024 42.4434C36.5477 41.8732 36.9502 41.2128 37.2419 40.481C37.2858 40.3712 37.2761 40.1883 37.4438 40.1893C37.577 40.1898 37.598 40.3456 37.6376 40.4485C38.2324 41.9965 38.7635 43.5665 39.2649 45.1467C39.3395 45.3816 39.4012 45.6253 39.1668 45.8247C38.9139 46.0401 38.6669 45.9208 38.4464 45.7905C37.8679 45.4486 37.3025 45.0843 36.6788 44.6958C36.7143 45.2073 36.7468 45.6728 36.7793 46.138C36.9261 48.232 36.7131 50.2878 36.0668 52.2865C35.6607 53.5423 35.0758 54.7131 34.2099 55.7251C34.0521 55.9095 33.8913 56.1314 33.5956 55.9866C33.3117 55.8473 33.4104 55.5957 33.4487 55.3761C33.6587 54.1771 33.7706 52.9751 33.571 51.7632C33.2029 49.5284 32.0595 47.7757 30.2508 46.4385C30.0603 46.2978 29.8498 46.2059 29.6144 46.1927C29.2591 46.1727 28.943 46.2785 28.7733 46.608C28.6082 46.9288 28.6615 47.2573 28.8859 47.5396C28.9925 47.6735 29.1267 47.7879 29.2578 47.8995C31.7645 50.0288 32.3317 53.1752 30.8674 56.1048C28.9892 59.8617 26.1334 62.6589 22.6246 64.8623C22.3978 65.0046 22.2104 65.0647 21.9565 64.9046C19.0421 63.0703 16.5001 60.8441 14.6275 57.9216C13.7912 56.6164 13.059 55.2533 12.8685 53.6825C12.5859 51.3516 13.5051 49.4944 15.1997 47.9619C15.3172 47.8556 15.4534 47.7701 15.569 47.6623C15.899 47.3554 15.9738 46.9554 15.7755 46.6064C15.5903 46.281 15.1574 46.1083 14.7627 46.2019C14.3995 46.2879 14.1139 46.5083 13.8364 46.7399C11.2967 48.859 10.4543 51.5864 10.9545 54.794C10.9943 55.0502 11.0337 55.3066 11.0709 55.5635C11.0973 55.7428 11.0961 55.9186 10.9 56.0074C10.7153 56.0911 10.5599 56.0135 10.4323 55.8816C10.0906 55.5278 9.79056 55.1392 9.53667 54.7189C8.20023 52.5049 7.73809 50.0615 7.67139 47.519C7.6483 46.6392 7.69066 45.7605 7.8185 44.8878C7.82864 44.8195 7.8535 44.7467 7.76803 44.6719Z" fill="#5E5E5E"/>
<path d="M27.911 14.1363C27.7042 14.1236 27.5531 14.2299 27.4831 14.4526C27.3869 14.7582 27.499 14.9855 27.7479 15.1635C28.9722 16.0386 30.1293 16.9824 30.9907 18.2428C31.1956 18.5426 31.5819 18.5547 31.8127 18.3019C32.0955 17.9922 31.9887 17.6797 31.7617 17.4052C30.8202 16.2676 29.7562 15.2561 28.5737 14.3707C28.3868 14.2304 28.1824 14.1254 27.911 14.1363ZM21 19.8701C20.9959 19.8701 20.9919 19.8701 20.9878 19.8701C20.9878 22.4923 20.9878 25.1144 20.9881 27.7368C20.9881 28.6469 21.5435 29.2977 22.3113 29.2886C23.0545 29.2794 23.5192 28.6907 23.5192 27.7495C23.5199 22.577 23.5202 17.4045 23.5169 12.232C23.5166 11.9885 23.5027 11.7402 23.455 11.5022C23.3535 10.9957 22.898 10.5709 22.4303 10.5125C21.9075 10.4476 21.4426 10.6957 21.1674 11.1667C20.9972 11.4579 21.0015 11.7736 21.0013 12.0897C20.9992 14.6831 21 17.2766 21 19.8701ZM13.2642 26.2837C14.8068 26.2837 16.3497 26.2946 17.8924 26.2784C18.4983 26.2718 18.8458 25.9659 18.9795 25.4145C19.1119 24.8699 18.8932 24.3644 18.4151 24.0834C18.1628 23.9352 17.8881 23.9517 17.6157 23.9517C14.7462 23.9535 11.8768 23.9573 9.00732 23.9608C8.44804 23.9614 8.42598 23.9535 8.55432 23.4054C9.86412 17.8189 13.1216 13.9387 18.5825 12.0065C18.859 11.9088 18.9617 11.7625 19.0142 11.4959C19.2448 10.3215 19.8713 9.42111 20.9553 8.89151C22.7701 8.00478 24.9573 9.0863 25.4227 11.1372C25.5513 11.7041 25.7892 11.9469 26.329 12.1396C30.8058 13.7391 33.7092 16.9147 35.367 21.3047C35.6318 22.0065 35.8398 22.7254 35.9821 23.465C36.0521 23.8289 36.0084 23.9677 35.5808 23.9644C32.8557 23.9438 30.1303 23.952 27.4049 23.9535C27.1171 23.9537 26.8269 23.9535 26.5413 23.9842C25.9526 24.0478 25.5632 24.4448 25.5305 24.9856C25.4955 25.5666 25.8488 26.0952 26.3904 26.2342C26.5826 26.2837 26.7893 26.2926 26.9895 26.2926C29.8734 26.2949 32.7573 26.2928 35.6412 26.2913C36.3252 26.291 36.3493 26.3136 36.3511 26.9903C36.3521 27.3221 36.357 27.6539 36.3481 27.9854C36.3334 28.5173 36.2098 28.6791 35.6759 28.6519C35.1953 28.6276 35.1276 28.8346 35.1562 29.2356C35.3239 31.5886 35.857 33.8483 36.8505 35.9933C36.9355 36.1765 37.0283 36.3558 37.1171 36.5371C37.5412 37.4038 37.5412 37.4038 36.7047 37.8779C34.7494 38.9855 32.3877 38.6954 30.7337 37.1629C30.5011 36.9473 30.5011 36.8073 30.7319 36.6153C31.0427 36.3563 31.3087 36.0527 31.5748 35.7481C32.3459 34.8661 32.7656 33.846 32.7793 32.6742C32.7938 31.4488 32.7811 30.223 32.7839 28.9974C32.7844 28.8074 32.77 28.6499 32.5181 28.6552C30.9351 28.6902 29.3433 28.5355 27.7742 28.8658C26.2859 29.1793 25.0319 29.8869 24.0622 31.079C23.9052 31.2718 23.8334 31.4628 23.8344 31.7055C23.8375 32.4119 23.8395 33.1188 23.8197 33.825C23.7918 34.821 23.1965 35.4546 22.3007 35.4688C21.4091 35.4833 20.7755 34.8606 20.7286 33.8698C20.6971 33.2086 20.7144 32.5441 20.7329 31.8816C20.7408 31.5916 20.6753 31.3547 20.4907 31.1257C19.4061 29.7806 18.0002 29.0035 16.3003 28.7684C14.8948 28.5741 13.4777 28.6778 12.066 28.6535C11.8172 28.6491 11.7441 28.761 11.7451 28.9933C11.7505 30.291 11.7203 31.5891 11.7527 32.8857C11.7885 34.3157 12.5147 35.4211 13.5041 36.391C14.0954 36.9704 14.2065 36.8382 13.4448 37.4419C11.6916 38.8311 9.37916 38.9163 7.51616 37.6935C6.99975 37.3544 6.9759 37.3125 7.26556 36.7621C8.47239 34.4689 9.13084 32.0238 9.32386 29.4466C9.33147 29.3462 9.31981 29.2434 9.33426 29.1443C9.38829 28.7739 9.25868 28.6306 8.86274 28.6512C8.33061 28.6791 8.17183 28.5071 8.15382 27.9661C8.14063 27.5775 8.16802 27.1877 8.16168 26.7986C8.15559 26.4369 8.30068 26.2898 8.67886 26.2936C10.207 26.3091 11.7355 26.3002 13.2639 26.3002C13.2639 26.2946 13.2642 26.2893 13.2642 26.2837Z" fill="#5E5E5E"/>
<path d="M44.508 10.4927C44.5121 13.9425 43.5465 16.2925 41.9767 18.4537C40.9522 19.8645 39.7137 21.0216 38.2758 21.9837C37.8223 22.287 37.7908 22.284 37.6283 21.7851C37.051 20.0139 36.2068 18.3848 35.0855 16.8956C34.6485 16.315 34.6675 16.3087 35.331 15.9673C37.4086 14.8982 39.1225 13.4327 40.1781 11.3142C41.5615 8.53814 41.23 5.80922 39.8263 3.14243C39.3746 2.28461 38.8105 1.50035 38.1804 0.763781C38.0143 0.56949 37.8497 0.358971 38.0838 0.121563C38.2966 -0.094286 38.5203 0.0416718 38.7039 0.184725C42.3112 2.99101 44.3317 6.63279 44.508 10.4927Z" fill="#5E5E5E"/>
<path d="M0 11.0441C0.0710196 7.53348 1.48938 4.49561 3.91876 1.88996C4.49858 1.26803 5.11239 0.679579 5.80711 0.181681C6.0184 0.0300026 6.23146 -0.113804 6.45162 0.134005C6.66468 0.374456 6.47572 0.534248 6.31491 0.717884C4.70505 2.55628 3.64635 4.65262 3.48731 7.12131C3.31382 9.81422 4.3672 12.0349 6.2515 13.9022C7.17221 14.8148 8.25146 15.5031 9.39867 16.0883C9.73374 16.2592 9.86106 16.3693 9.54198 16.7272C8.21163 18.2189 7.43904 20.0159 6.83791 21.8939C6.73722 22.2079 6.62435 22.2457 6.35777 22.0674C3.34984 20.053 1.20251 17.4065 0.306651 13.8418C0.0842074 12.9573 0.0139503 12.0516 0 11.0441Z" fill="#5E5E5E"/>
<path d="M9.13621 39.6719C9.557 39.8043 9.93417 39.9395 10.3202 40.0414C12.168 40.5289 13.857 40.135 15.428 39.103C16.1025 38.6599 16.7764 38.2157 17.4587 37.7848C18.9311 36.8544 20.4415 36.6984 21.9844 37.6085C22.2041 37.7379 22.374 37.71 22.5815 37.593C24.0934 36.7405 25.5818 36.8245 27.038 37.7351C27.9539 38.3081 28.8452 38.9229 29.7796 39.4631C31.3844 40.3912 33.0774 40.5031 34.8212 39.8821C34.8892 39.8581 34.9574 39.8329 35.0274 39.8175C35.1454 39.7913 35.2833 39.6554 35.3785 39.7934C35.4627 39.9156 35.3257 40.0331 35.2615 40.1398C34.7002 41.0768 33.9063 41.7309 32.8801 42.1117C31.3121 42.6933 29.7182 42.6451 28.1058 42.3521C25.9762 41.9651 24.2337 40.8371 22.6117 39.4882C22.3388 39.2612 22.1873 39.2792 21.9266 39.4849C20.5534 40.5677 19.1391 41.5912 17.4277 42.0878C15.4907 42.6501 13.547 42.7945 11.6069 42.0969C10.6051 41.7368 9.83576 41.091 9.30488 40.1665C9.22778 40.0318 9.12505 39.904 9.13621 39.6719Z" fill="#87ED82"/>
<path d="M29.9112 30.239C30.6825 30.2346 30.6825 30.2346 30.3016 30.907C29.5176 32.2912 28.1953 32.8692 26.6448 32.5063C26.5748 32.49 26.4987 32.4888 26.4348 32.4598C26.2542 32.3787 25.9501 32.4642 25.8951 32.2671C25.8271 32.0236 26.1165 31.8945 26.2702 31.7357C27.2645 30.7079 28.489 30.2308 29.9112 30.239Z" fill="#5E5E5E"/>
<path d="M13.8866 30.2664C15.7222 30.0782 17.2567 30.606 18.4864 31.9678C18.7142 32.2202 18.6956 32.35 18.3446 32.4041C18.0331 32.452 17.7265 32.5451 17.414 32.5702C15.7438 32.7033 14.5341 31.9191 13.8866 30.2664Z" fill="#5E5E5E"/>
</svg>
