<svg width="54" height="60" viewBox="0 0 54 60" fill="none" xmlns="http://www.w3.org/2000/svg">
<path fill-rule="evenodd" clip-rule="evenodd" d="M16.435 24.1909C16.9172 23.3809 17.9679 23.1148 18.7796 23.597C19.592 24.0786 19.8592 25.1258 19.3764 25.9354C18.8925 26.746 17.8436 27.0115 17.0307 26.5299C16.2178 26.0482 15.9523 25.0016 16.435 24.1909Z" fill="#87ED82"/>
<path fill-rule="evenodd" clip-rule="evenodd" d="M53.7235 29.1365C51.7386 19.7275 48.3416 13.9247 44.3621 9.06644C37.2336 0.364231 26.4834 -1.60484 15.7339 1.17431C9.82955 2.70032 7.9938 6.88067 9.44833 9.86518C10.9238 12.8934 14.1046 12.869 17.0897 12.233C18.6696 11.8961 20.1951 11.3878 21.3824 11.0712C29.3732 8.94333 37.667 13.6473 39.8255 21.7119C41.1467 26.6484 39.8431 31.6667 36.7707 35.2956L37.9869 41.5942L32.3657 38.8485C31.3684 39.3784 30.2956 39.8038 29.1576 40.1073C21.1203 42.2483 12.8617 37.4836 10.7151 29.4661C9.59639 25.2898 11.6522 16.7912 5.99751 16.2557C-0.11593 15.6771 -2.14745 28.3094 2.69861 37.1955C7.46225 45.9311 11.5609 45.8137 12.1934 51.3158L12.1866 59.1529C19.8053 59.1501 27.5068 59.1433 35.1261 59.1405V56.8492C35.1261 53.1578 34.5894 51.014 38.3074 51.014H40.8727C49.0258 51.014 48.8726 45.1636 48.7768 44.096V35.6706C53.7978 34.5786 54.5223 32.9198 53.7235 29.1365Z" fill="#5E5E5E"/>
<path fill-rule="evenodd" clip-rule="evenodd" d="M23.6516 24.1909C24.1343 23.3809 25.1838 23.1148 25.9962 23.597C26.8085 24.0786 27.0752 25.1258 26.5924 25.9354C26.1091 26.746 25.059 27.0115 24.2478 26.5299C23.4349 26.0482 23.1682 25.0016 23.6516 24.1909Z" fill="#87ED82"/>
<path fill-rule="evenodd" clip-rule="evenodd" d="M30.8669 24.1909C31.3508 23.3809 32.4002 23.1148 33.2126 23.597C34.025 24.0786 34.2916 25.1258 33.8083 25.9354C33.3255 26.746 32.2754 27.0115 31.4637 26.5299C30.6507 26.0482 30.3841 25.0016 30.8669 24.1909Z" fill="#87ED82"/>
</svg>
