<svg width="57" height="58" viewBox="0 0 57 58" fill="none" xmlns="http://www.w3.org/2000/svg">
<path d="M21.9861 36.7615C21.5337 36.7492 20.838 36.7338 20.0347 36.7277C18.902 36.7184 17.5631 36.7246 16.3965 36.7738C15.3007 36.8231 14.2604 36.7277 13.3493 36.4014C12.0781 35.9459 11.0654 35.0317 10.5514 33.4127C10.2497 32.4585 9.74802 31.5874 9.22476 30.8549C8.22133 29.4482 7.12557 28.5494 7.12557 28.5494C7.12557 28.5494 10.0958 28.4848 12.4136 31.7167C14.7313 34.9455 15.6116 35.0933 18.0248 35.438C20.441 35.7797 22.5309 36.7738 22.5309 36.7738C22.5309 36.7738 22.3278 36.7677 21.9861 36.7615ZM19.9516 38.9284C19.5453 39.7287 18.3202 40.7475 16.6397 40.6429C14.9591 40.5352 13.7617 39.0331 13.5555 38.9284C13.0723 38.6822 12.232 38.9284 12.0042 39.5133C11.7764 40.1012 12.0227 43.6286 12.0227 43.6286C12.0227 43.6286 10.9608 43.016 10.1112 42.976C9.26169 42.9329 7.81196 43.7424 7.81196 43.7424C7.81196 43.7424 7.8058 43.7394 7.79964 43.7332C7.67652 43.6563 6.5192 42.8898 6.93165 41.5386C6.93165 41.5386 9.92347 40.7322 10.5668 39.9719C11.2131 39.2147 11.2624 38.4144 12.3797 38.1128C12.549 38.0697 12.7029 38.0481 12.8476 38.0481C13.2908 38.0481 13.6294 38.2267 13.8541 38.396C14.2511 38.6914 14.7067 38.8884 15.1807 39.0116C16.338 39.3101 18.2864 39.5964 20.0224 38.8053C19.9978 38.8453 19.9731 38.8884 19.9516 38.9284ZM12.1242 48.7196C12.0719 49.5106 11.4686 50.3971 10.6006 50.3109C10.1266 50.9573 9.15397 51.1142 8.48912 50.671C8.01203 51.3112 7.05169 51.5113 6.36222 51.1019C5.96824 51.4898 5.288 51.4867 4.90017 51.1019C4.63854 51.3451 4.16761 51.2897 4.0014 50.9665C3.61972 51.1943 3.10878 51.1235 2.83176 50.8188C3.20727 51.1204 3.76747 51.0619 4.05988 50.7264C4.17068 51.0773 4.59853 51.1912 4.79244 50.8557L4.86632 50.6926C5.04176 50.9357 5.31263 51.1358 5.62043 51.1142C5.90668 51.105 6.14984 50.9172 6.29142 50.6802C7.03322 51.2343 7.99971 50.9788 8.40909 50.1601C9.00314 50.7849 9.99426 50.7295 10.4806 49.9969L10.5668 50.0216C11.7179 50.197 12.075 48.8273 12.1612 47.9285C12.1612 48.1932 12.1612 48.4549 12.1242 48.7196ZM5.8205 36.8539C5.20797 37.174 5.05407 38.0481 5.05407 38.0481C5.05407 38.0481 4.80783 37.6726 4.95558 36.9708C5.10332 36.2691 5.97439 36.1798 6.06366 35.5365C6.14368 34.9671 4.22301 34.1914 3.46275 32.9633C3.4412 32.9233 3.41658 32.8833 3.39503 32.8432C3.32424 32.714 3.26576 32.5755 3.22574 32.4339C3.03491 31.7598 2.98566 31.0118 2.99181 30.3808C2.99489 29.5098 3.83518 28.8942 4.66932 29.1435C5.71276 29.4574 6.70696 30.1192 7.34102 30.9595C7.79965 31.5659 8.07051 32.2615 8.03973 32.9879C7.94431 35.2225 6.43302 36.5368 5.8205 36.8539ZM24.0884 37.0693C23.9899 36.9985 23.8976 36.9247 23.8022 36.8508C20.8965 34.5361 19.81 30.1746 15.5993 28.0508C12.1242 26.2963 6.49765 26.3117 3.07184 25.9639L3.06876 25.9855L1.17579 30.8549C1.17579 30.8549 2.21308 31.9168 2.7979 32.9479C2.82868 32.9941 2.8533 33.0433 2.87793 33.0926C2.95488 33.2342 3.01644 33.3757 3.06876 33.5112C3.50276 34.6747 3.7213 36.5769 3.7213 36.5769C3.7213 36.5769 3.00413 34.6316 2.45009 34.0529C1.89297 33.4773 1.30507 33.0987 1.30507 33.0987C1.30507 33.0987 0.07695 34.0006 0.024624 34.1853C-0.03078 34.3699 0.024624 35.1425 0.024624 35.1425C0.024624 35.1425 0.0246195 35.1425 0.0276975 35.1425L0.0307785 35.1364C0.0769485 35.084 0.501715 34.6346 1.00343 34.6839C1.53592 34.7393 2.41622 35.9705 2.69017 36.4476C2.96103 36.9277 3.63819 40.6429 3.57048 40.9415C3.49968 41.24 2.92717 41.397 2.59167 41.4524C2.25309 41.5047 1.6929 41.0769 1.6221 40.6367C1.6221 40.6367 1.23427 40.766 1.16656 41.0923C1.09576 41.4185 1.72983 41.6309 1.85911 42.3112C1.99146 42.9914 1.65596 43.6809 1.37279 44.1703C1.08961 44.6628 0.60021 45.0136 0.948023 45.7616C0.948023 45.7616 0.880307 45.8755 0.886464 46.7189C0.889542 47.5622 0.800277 48.0486 1.42203 48.0332C1.42203 48.0332 1.07422 46.7835 1.44666 45.7093C1.44666 45.7093 1.49283 47.3745 1.61903 47.79C1.74523 48.2055 2.24694 47.9685 2.24694 47.9685C2.24694 47.9685 1.96992 46.4942 2.24078 45.6323C2.24078 45.6323 2.33004 47.2575 2.44085 47.6669C2.55782 48.0732 3.18265 47.8947 3.33347 47.8115C3.48122 47.7315 3.32116 46.1771 3.54585 45.7801C3.54585 45.7801 3.50276 47.4914 3.91829 47.7408C4.3369 47.987 4.9248 47.7469 5.00483 47.6669C5.08486 47.5838 5.17719 45.5862 5.17719 45.5862C5.17719 45.5862 5.22336 47.4853 5.39573 47.6915C5.57118 47.8947 6.10675 47.8054 6.34068 47.5776C6.5469 47.3775 6.46995 46.0663 6.44841 45.7185L6.44225 45.7216L6.33144 45.3553C6.17754 44.8659 5.49422 44.8013 5.25414 45.2568L5.10639 45.54L4.95558 45.263C4.7001 44.7951 3.98601 44.8967 3.8475 45.4138L3.74592 45.8016L3.70591 45.7093L3.58895 45.4415C3.4135 45.0229 2.77943 44.9921 2.55166 45.3953L2.42546 45.6077L2.37929 45.3738C2.29619 45.0075 1.76984 44.9983 1.65904 45.3645L1.60364 45.5646L1.57901 45.3645C1.54823 45.1183 1.19118 45.0537 1.06191 45.2722C1.16656 45.0383 1.48667 45.0475 1.61595 45.2414C1.68982 45.0814 1.85296 44.9613 2.04071 44.949C2.21 44.9429 2.37929 45.026 2.48087 45.1645C2.7702 44.8013 3.3427 44.7797 3.67513 45.0968C3.95522 44.5981 4.67856 44.4935 5.09409 44.8967C5.48191 44.4719 6.19909 44.5212 6.53151 44.9798C6.79314 44.7182 7.15327 44.5827 7.51031 44.5827C7.56572 44.5827 7.61805 44.5858 7.67345 44.592C8.00587 44.6289 8.31983 44.7766 8.5476 45.0383C9.02777 44.4904 9.95424 44.4442 10.4652 44.9706C10.8284 44.4842 11.6071 44.3888 12.0442 44.8228C11.5056 44.4227 10.7268 44.6597 10.4991 45.2753C10.2528 44.9767 9.85575 44.7982 9.48023 44.8474C9.04931 44.8874 8.73536 45.2137 8.55991 45.5769L8.4214 45.3738C8.01819 44.7551 7.02399 44.7674 6.64539 45.3984L6.47303 45.6723C6.55306 45.7831 6.75928 46.1186 6.7839 46.7035C6.81161 47.433 6.69464 47.6515 6.69464 47.6515C6.69464 47.6515 7.53494 47.8177 7.99048 47.6238C8.44911 47.433 8.45526 45.8139 8.45526 45.8139C8.45526 45.8139 8.74767 46.5927 8.65841 47.6299C8.65841 47.6299 9.88961 47.6946 10.182 46.8912C10.182 46.8912 10.3021 46.2233 10.2805 45.6723C10.2805 45.6723 10.5852 46.0202 10.4775 47.2729C10.4775 47.2729 11.3209 47.67 12.1212 46.565L12.0227 47.1405C12.0227 47.1405 10.9238 47.4145 10.7607 48.2609C10.7607 48.2609 10.9115 49.0889 10.6837 49.6091C10.6837 49.6091 10.5514 47.9993 10.2497 47.8146C9.94501 47.6299 9.03084 47.8393 8.74767 48.0978C8.74767 48.0978 8.92619 48.9473 8.61839 49.686C8.61839 49.686 8.60916 48.4795 8.35676 48.0855C8.10129 47.6946 6.7285 47.947 6.63924 48.2609C6.54382 48.578 6.81161 49.3105 6.58076 49.9692C6.58076 49.9692 6.31297 48.4918 5.98671 48.2271C5.65736 47.9685 4.99559 48.184 4.99559 48.184C4.99559 48.184 5.17411 49.4798 4.854 50.1631C4.854 50.1631 4.80167 48.5903 4.62315 48.2178C4.4477 47.8454 3.73053 48.0547 3.69975 48.1409C3.66897 48.2271 3.63819 49.6399 4.06911 50.1939C3.9583 50.0646 3.50584 49.4521 3.43812 48.1101C3.43812 48.1101 2.95488 47.9408 2.76404 48.2609C2.58244 48.5657 2.8256 50.0308 2.84715 50.1662C2.80098 50.0616 2.40699 49.1259 2.4901 48.1748C2.4901 48.1748 2.00685 47.9562 1.78524 48.5226C1.56054 49.0889 1.81294 50.0677 1.95761 50.3294C2.10535 50.591 2.4901 50.4709 2.4901 50.4709C2.4901 50.4709 2.20385 50.8618 1.86219 50.7972C1.86219 50.7972 1.83756 51.1081 2.09919 51.6067C2.3639 52.1054 2.94872 52.2746 2.94872 52.9118C2.94872 53.5489 1.5944 55.2203 1.6929 55.7651C1.78832 56.313 2.1823 56.6731 2.3639 57.024C2.54243 57.3749 2.47471 57.7289 2.69017 57.972C2.89947 58.2121 9.14165 56.8455 11.6287 56.2237C14.1188 55.605 16.5258 54.9248 16.7843 53.9398C17.049 52.9518 18.2371 48.5718 19.8869 45.5523C21.5337 42.5328 22.4971 40.7414 23.0203 39.6795C23.2604 39.187 23.1465 38.7622 22.9311 38.4144C22.9834 38.399 23.8606 38.1774 24.0884 37.0693Z" fill="#5E5E5E"/>
<path d="M47.6932 27.8406C41.2765 39.8288 29.7014 39.1104 25.6326 37.2556C25.2266 37.07 24.8508 36.8493 24.5057 36.5981C24.4072 36.5276 24.313 36.455 24.2192 36.3799C21.3126 34.0671 20.2255 29.7049 16.016 27.5802C12.5412 25.8263 6.91343 25.8426 3.48762 25.493C2.15176 25.3591 1.15172 25.1664 0.743268 24.7955C-0.315872 23.833 0.163379 22.9619 0.503806 22.5556C0.57183 22.6378 0.651543 22.72 0.743268 22.8022C2.20101 24.1288 11.1863 23.1497 16.016 25.5869C20.8454 28.0237 22.5875 33.4028 26.6563 35.2598C30.1874 36.8705 38.3838 37.3731 44.6832 29.6227C45.5472 28.5593 46.3737 27.3429 47.1484 25.9507C48.2143 26.5823 47.6932 27.8406 47.6932 27.8406Z" fill="#5E5E5E"/>
<path d="M46.8366 25.5429C46.0616 26.9353 45.5048 27.6781 44.6408 28.7415C38.3416 36.4919 30.1452 35.9896 26.6139 34.3789C22.545 32.5216 20.8032 27.1428 15.9735 24.7056C11.1441 22.2685 2.15885 23.2476 0.700806 21.921L4.72745 18.871C4.72745 18.871 14.5814 21.6347 15.2013 21.6747C15.8209 21.7169 16.3118 19.4161 19.6739 18.7796C23.0335 18.1433 36.562 18.8784 37.6537 19.2376C38.7476 19.5943 43.6266 27.7344 43.6266 27.7344C43.6266 27.7344 40.1681 17.2464 37.393 16.2017C34.62 15.1571 22.4795 15.3214 20.5871 16.2017C18.6948 17.0821 15.9197 19.6931 14.4521 19.6931C12.9823 19.6931 4.95521 17.702 4.95521 17.702C4.95521 17.702 5.22761 -0.298786 26.3301 0.00378036C47.4347 0.309116 45.803 15.5818 45.8243 17.4742C45.8452 19.3665 45.2493 23.6108 46.8366 25.5429Z" fill="#5E5E5E"/>
<path d="M29.5353 40.5641L31.6994 44.9496L36.5393 45.6526L33.0371 49.0664L33.8639 53.8866L29.5353 51.6107L25.2064 53.8866L26.0332 49.0664L22.531 45.6526L27.3709 44.9496L29.5353 40.5641Z" fill="#87ED82"/>
<path d="M44.1626 36.5947L45.8896 40.0941L49.7516 40.6552L46.9571 43.3792L47.6167 47.2252L44.1626 45.4095L40.7087 47.2252L41.3684 43.3792L38.5739 40.6552L42.4358 40.0941L44.1626 36.5947Z" fill="#87ED82"/>
<path d="M51.4786 28.7655L52.8458 31.5363L55.9035 31.9805L53.691 34.1372L54.2134 37.1826L51.4786 35.7445L48.7438 37.1826L49.2661 34.1372L47.0533 31.9805L50.111 31.5363L51.4786 28.7655Z" fill="#87ED82"/>
<path d="M53.0795 18.9098L54.1882 21.1561L56.6672 21.5162L54.8733 23.2645L55.2969 25.7334L53.0795 24.5677L50.8624 25.7334L51.2859 23.2645L49.4921 21.5162L51.9711 21.1561L53.0795 18.9098Z" fill="#87ED82"/>
<path d="M51.1364 11.0427L51.9443 12.6799L53.7511 12.9424L52.4436 14.2167L52.7523 16.0161L51.1364 15.1666L49.5204 16.0161L49.8288 14.2167L48.5216 12.9424L50.3284 12.6799L51.1364 11.0427Z" fill="#87ED82"/>
<path d="M3.25496 40.7091C3.19402 40.9661 2.79357 41.1015 2.50455 41.1492C2.21306 41.1942 2.01115 40.9242 1.9502 40.545C1.9502 40.545 2.48362 40.6586 2.49162 40.2821C2.50208 39.9032 1.98775 37.7757 1.55283 36.6889C1.13668 35.6418 0.16404 35.4854 0.0950928 35.4749L0.0975501 35.4694C0.137564 35.4245 0.503237 35.0376 0.935388 35.08C1.39401 35.1277 2.15212 36.1878 2.38789 36.5987C2.62121 37.0124 3.31314 40.4521 3.25496 40.7091Z" fill="#5E5E5E"/>
</svg>
