<svg width="30" height="33" viewBox="0 0 30 33" fill="none" xmlns="http://www.w3.org/2000/svg">
<path d="M6.98961 8.28739C5.96896 7.45087 5.22764 6.58756 4.63281 5.8944C3.74983 4.86492 3.1473 4.16292 2.27772 4.16292C2.2173 4.16292 2.15687 4.16577 2.0936 4.17204C1.10003 4.28063 0.148935 5.20295 0.0161174 6.18882C-0.160308 7.4902 1.16045 8.49859 1.59539 8.83092C2.55247 9.56141 3.53236 9.75038 4.71432 9.9194C6.60455 10.1928 8.56404 10.3737 10.5463 10.4612C8.99299 9.79541 7.76542 8.92298 6.98961 8.28739Z" fill="#27AAE1"/>
<path d="M29.9839 6.18882C29.8508 5.20295 28.8997 4.28063 27.9064 4.17204C27.8445 4.16577 27.7827 4.16292 27.7223 4.16292C26.8541 4.16292 26.2501 4.86492 25.3672 5.8944C24.7723 6.58756 24.031 7.45087 23.0104 8.28739C22.2346 8.92298 21.007 9.79541 19.4551 10.4612C21.4359 10.3737 23.3954 10.1928 25.2856 9.9194C26.4676 9.75038 27.4489 9.56141 28.4046 8.83092C28.8395 8.49859 30.1603 7.4902 29.9839 6.18882Z" fill="#27AAE1"/>
<path d="M15.0724 8.23151C18.2669 8.23151 20.2249 7.75439 21.7167 7.27727C21.1399 5.76925 20.6764 4.25496 20.3353 2.75891C20.2899 2.56111 20.2492 2.37528 20.2116 2.19714C19.9653 1.06933 19.8023 0.325154 19.2271 0.074625C18.705 -0.153388 18.2156 0.175807 17.5968 0.592501C16.9507 1.02858 16.1444 1.57067 15.0468 1.57067C13.9509 1.57067 13.1446 1.02858 12.497 0.592501C11.8794 0.175807 11.3903 -0.151962 10.8679 0.074625C10.2927 0.325154 10.1297 1.06933 9.88371 2.19714C9.8458 2.37528 9.80504 2.56111 9.75972 2.75891C9.41856 4.25496 8.95513 5.76925 8.37854 7.27727C9.83839 7.74527 11.7648 8.22239 14.9772 8.23151C15.0092 8.23151 15.0408 8.23151 15.0724 8.23151Z" fill="#27AAE1"/>
<path d="M11.0052 10.4794V10.4855C12.1843 10.946 13.5325 11.2707 15.0014 11.2826C16.4675 11.2707 17.8171 10.946 18.9948 10.4855V10.4794C19.0008 10.4794 19.0082 10.478 19.0142 10.478C20.1391 10.0371 21.1068 9.47533 21.8752 8.94862C19.6905 9.79712 17.3973 10.2289 15.0482 10.2289C15.0271 10.2289 15.006 10.2271 14.9849 10.2271C12.5754 10.2198 10.2277 9.75921 7.99658 8.85941C8.78465 9.41206 9.79902 10.0128 10.9873 10.478C10.9932 10.478 10.9992 10.4794 11.0052 10.4794Z" fill="#27AAE1"/>
<path d="M20.8066 16.2729L20.7613 16.3165C20.763 16.3182 20.7678 16.3213 20.7695 16.3248C20.7695 16.3264 20.7678 16.3264 20.7678 16.3282C20.7111 16.3985 20.6304 16.4521 20.5315 16.489L20.3238 15.1716C20.3052 15.0507 20.2115 14.9687 20.1043 14.9484C19.5106 14.6954 18.8973 14.4875 18.2702 14.3234C18.6006 13.889 19.1067 13.6596 19.5961 13.7382C20.2901 13.8488 20.6524 14.5545 20.6675 14.5847L20.6874 14.6267C20.7578 14.776 20.7898 15.0878 20.8485 15.6541C20.8887 16.0448 20.8485 16.1974 20.8066 16.2729ZM14.9313 16.0448C12.7537 16.0497 11.0337 15.4748 9.98109 15.0171C11.5367 14.3852 13.2297 14.0501 14.9042 14.0501C14.921 14.0501 14.9378 14.0501 14.9546 14.0501C16.6126 14.0566 18.2905 14.3938 19.8293 15.0188C18.7815 15.4748 17.0817 16.0414 14.9313 16.0448ZM15.7156 24.6392C16.0006 24.1932 16.331 23.7777 16.6964 23.4003C17.3148 22.765 18.0374 22.2388 18.8437 21.8363C18.8856 21.8164 18.9357 21.833 18.956 21.8749C18.9759 21.9167 18.9591 21.9672 18.9189 21.9872C18.1294 22.3797 17.422 22.8942 16.8169 23.5177C16.4581 23.8865 16.1346 24.2938 15.8564 24.7279C15.8413 24.7532 15.8145 24.7667 15.786 24.7667C15.7709 24.7667 15.7541 24.7632 15.7407 24.755C15.7022 24.7296 15.6905 24.6777 15.7156 24.6392ZM24.2798 15.8488C24.1022 15.8738 23.834 15.9124 23.4968 15.8035C23.3025 15.7396 23.2087 15.6692 23.0226 15.5284C22.8516 15.3993 22.6153 15.2217 22.171 14.9519C21.9096 14.7926 21.6682 14.6654 21.3296 14.6654C21.1854 14.6669 21.0411 14.697 20.9003 14.7491C20.8835 14.6702 20.8636 14.6066 20.8399 14.5545L20.8166 14.5092C20.8032 14.4793 20.741 14.3653 20.6356 14.2262C20.8265 14.0147 20.9776 13.7819 21.0865 13.5305C21.229 13.1984 21.2541 12.9354 21.276 12.7021C21.2994 12.4577 21.3193 12.2448 21.4587 11.9848C21.6263 11.673 21.8475 11.5154 21.9934 11.4099C22.1091 11.3278 22.208 11.2557 22.1627 11.1482C22.1325 11.0762 22.0453 11.0326 21.8962 11.0109C21.4738 10.9522 20.3155 11.1115 19.6246 11.9697C19.1586 12.5497 19.0916 13.2204 19.0968 13.5922C18.7077 13.6778 18.3457 13.9192 18.0944 14.2798C17.0652 14.0233 16.0072 13.8876 14.9546 13.8824C13.1576 13.8773 11.3406 14.2461 9.69094 14.9519C9.59204 14.9786 9.51167 15.0593 9.49314 15.1716L9.22494 16.8694C9.16309 17.2684 9.3475 17.6623 9.6861 17.8721C9.74795 17.9089 9.78671 17.9742 9.80011 18.0445C9.82861 18.1939 9.82689 18.3463 9.79497 18.4923C9.74794 18.72 9.64078 18.8793 9.57038 18.9683C9.57209 18.9699 9.57381 18.9699 9.57381 18.9717C10.2057 19.6908 10.9481 20.2808 11.783 20.7299C12.8424 21.2966 14.0426 21.6218 15.2579 21.6671C15.3049 21.6688 15.3402 21.7073 15.3385 21.7526C15.3368 21.798 15.2998 21.8347 15.2547 21.8347C15.2547 21.8347 15.253 21.8347 15.2513 21.8347C14.0126 21.7877 12.7854 21.4576 11.7043 20.8777C10.851 20.4198 10.0917 19.8165 9.44782 19.0823C9.4464 19.0806 9.4464 19.0788 9.44469 19.0772C9.24347 19.2282 8.9955 19.436 8.74212 19.7176C8.74212 19.7176 8.31802 20.1887 8.07177 20.6798C7.49005 21.833 10.4519 25.1723 11.0052 25.8158C12.1871 27.1904 13.5264 29.2457 14.4399 32.3501C14.5776 32.8144 15.2396 32.8144 15.377 32.3501C16.2905 29.2457 17.6301 27.1904 18.8117 25.8158C19.3633 25.1723 22.3269 21.833 21.7451 20.6798C21.4989 20.1887 21.0748 19.7176 21.0748 19.7176C20.7932 19.404 20.5147 19.1778 20.3035 19.0253C20.287 19.0136 20.2736 19.0019 20.2616 18.9868C20.1895 18.903 20.0724 18.7355 20.0219 18.4923C19.9968 18.3732 19.9917 18.251 20.0051 18.1284C19.2424 18.536 18.24 18.9951 16.9931 19.208C16.4096 19.3086 15.8214 19.3587 15.2311 19.3587C14.6881 19.3587 14.1432 19.3169 13.6019 19.2314C13.5549 19.2231 13.5247 19.1829 13.533 19.1393C13.5398 19.0956 13.5834 19.0671 13.6287 19.0737C14.7366 19.2498 15.8581 19.2434 16.9629 19.0538C18.287 18.8258 19.3348 18.3162 20.1043 17.8921C20.1126 17.8855 20.1208 17.877 20.1311 17.8721C20.4697 17.6623 20.6541 17.2684 20.592 16.8694L20.5583 16.6551C20.6926 16.6114 20.8032 16.5411 20.8887 16.4404C21.1503 16.6836 21.5892 16.9971 22.1826 17.0824C22.2918 17.0974 22.4007 17.106 22.5078 17.106C23.4518 17.106 24.2279 16.5294 24.4793 16.2142C24.5782 16.0916 24.6133 15.9961 24.5848 15.9209C24.5429 15.8117 24.4206 15.8285 24.2798 15.8488Z" fill="#87ED82"/>
</svg>
