<svg width="36" height="36" viewBox="0 0 36 36" fill="none" xmlns="http://www.w3.org/2000/svg">
<path d="M9.73175 20.6989C8.14525 22.9298 5.61683 24.1515 3.29328 25.4763C1.8755 26.2855 1.22134 27.8333 2.07253 29.3074C2.81421 30.5921 4.48758 31.0429 5.77303 30.3006C8.15661 28.9262 10.5473 27.2477 13.3591 26.9811C13.8627 26.9333 14.3801 26.9202 14.9246 26.9373C12.9688 24.9179 11.3265 21.8855 10.6517 19.1771C10.3641 19.731 10.0626 20.2337 9.73175 20.6989Z" fill="#87ED82"/>
<path d="M7.5158 25.9538C5.17642 28.0802 1.82827 29.7624 2.92598 31.3953C3.14673 31.485 4.98913 31.5412 6.93371 30.5357C9.14805 29.3912 11.578 27.1498 13.3592 26.9811C13.8627 26.9333 14.3801 26.9202 14.9246 26.9373C14.3291 26.3222 11.1707 19.9422 10.6517 19.1771C10.7629 21.256 9.39163 24.2488 7.5158 25.9538Z" fill="#87ED82"/>
<path d="M8.74274 30.5538L7.39746 31.3305L9.63167 33.1664C10.3527 33.7589 11.5581 32.8702 10.7931 32.2389L8.74274 30.5538Z" fill="#87ED82"/>
<path fill-rule="evenodd" clip-rule="evenodd" d="M32.0765 22.9901C31.7055 22.9901 31.3683 23.0439 31.1586 23.4519C30.6037 24.4228 29.584 25.0118 28.4662 25.0118C26.8832 25.0118 25.5435 23.8135 25.3831 22.2363C25.337 21.7679 24.9198 21.4252 24.4514 21.4714C23.983 21.5176 23.6406 21.9348 23.6865 22.4032L23.6912 22.4459C23.3057 22.42 22.9004 22.4504 22.4623 22.5076C23.2904 21.9941 24.8799 20.7139 26.2312 19.3744C26.8171 20.8002 28.2141 21.7514 29.7729 21.7514C30.2452 21.7514 30.6281 21.3686 30.6281 20.8965C30.6281 20.4245 30.2452 20.0416 29.7729 20.0416C29.187 20.0416 28.657 19.8052 28.2742 19.4229C27.8921 19.0401 27.6557 18.5103 27.6557 17.9242C27.6557 15.845 30.2452 15.1517 31.717 16.4529C32.194 16.8748 32.5196 17.4658 32.6007 18.132C32.6382 18.4495 32.8458 18.7058 33.1216 18.8205C33.4669 19.0055 33.7584 19.2802 33.9644 19.6137C34.1709 19.948 34.2903 20.3465 34.2903 20.7766C34.2903 22.003 33.3032 22.9901 32.0765 22.9901ZM16.4171 26.0029C15.5963 25.1916 14.7506 24.0835 14.2475 23.2643C17.0576 22.4294 17.889 21.9135 18.0705 21.8427C18.1378 22.0613 18.2167 22.3124 18.3015 22.5834C17.8493 22.7256 17.4024 22.8361 16.9677 22.9104C16.5029 22.9896 16.1905 23.4307 16.2698 23.8954C16.3391 24.3018 16.6851 24.5915 17.0815 24.6051C17.7474 24.6684 18.3584 24.682 18.9222 24.6647C19.6114 27.1844 18.9191 28.3946 16.4171 26.0029ZM13.0432 20.9091C12.3926 19.3248 11.787 17.1511 12.1175 15.7833C12.212 15.3931 12.5009 15.4002 12.8065 15.5406C13.7538 16.0407 15.2947 17.5251 16.0066 18.5022C15.2607 19.2553 14.3087 20.0529 13.0432 20.9091ZM11.4614 26.2057C10.8037 27.4203 9.12016 28.3705 5.77315 30.3006C4.48762 31.0429 2.81436 30.5921 2.07268 29.3074C1.22138 27.8333 1.87565 26.2855 3.29332 25.4763C4.0604 25.0389 4.84967 24.6128 5.62013 24.158C5.34131 24.5855 4.98044 25.0357 4.74219 25.2955C6.10332 24.6812 7.44933 23.0959 8.58869 22.0096C8.47279 22.5572 8.23616 23.225 8.07264 23.5989C9.22981 22.5131 9.89904 20.6276 10.6517 19.1771C11.14 21.1366 11.5455 21.727 10.8908 23.7755C11.1527 23.4735 11.3677 23.1544 11.5496 22.8264C11.9951 24.9116 11.0012 25.8177 9.27119 27.2403C9.70212 27.1147 11.0966 26.4107 11.4614 26.2057ZM10.7931 32.2389C11.5582 32.8702 10.3527 33.7589 9.63164 33.1664L7.39754 31.3305L8.74271 30.5538L10.7931 32.2389ZM17.7355 19.1576C18.541 18.2632 19.1048 17.4246 19.5835 16.6211C20.0307 16.7161 20.4946 16.7662 20.97 16.7662C21.4422 16.7662 21.825 16.3834 21.825 15.9114C21.825 15.4393 21.4422 15.0565 20.97 15.0565C19.6073 15.0565 18.3733 14.5039 17.4804 13.611C16.5875 12.7181 16.0349 11.484 16.0349 10.1212C16.0349 9.12303 16.325 8.17135 16.8849 7.3477C17.2333 7.73027 17.7523 7.83785 18.1556 7.46237C18.5004 7.14172 18.5197 6.60172 18.1989 6.25694C17.2138 5.19766 17.2364 3.5349 18.2692 2.50187C19.2507 1.52026 20.8271 1.44102 21.8976 2.3195C22.2322 2.59423 22.5 2.94845 22.672 3.35306C21.4691 3.60495 20.4129 4.23233 19.6246 5.1011C18.7115 6.1079 18.1554 7.43822 18.1444 8.88584C18.1404 9.43712 18.2799 10.027 19.0029 10.027C19.5193 10.027 19.9093 9.5767 19.8521 9.0737C19.815 7.99265 20.2114 6.99452 20.8869 6.25012C22.369 4.61647 24.8996 4.48868 26.5361 5.97355C27.2952 6.66207 27.7916 7.63921 27.8452 8.74047C27.8989 9.84382 27.5004 10.8645 26.8129 11.6223C26.1598 12.342 25.0252 12.8841 24.0457 12.9316C23.5753 12.9537 23.2119 13.353 23.234 13.8232C23.2533 14.2339 23.5601 14.5629 23.9505 14.6251C23.7343 14.9035 23.5015 15.1882 23.2505 15.4792C21.178 17.8814 18.6155 20.149 15.5575 21.1836C16.4464 20.4777 17.1529 19.8044 17.7355 19.1576ZM34.2218 17.4957C34.015 16.5825 33.5236 15.7767 32.8455 15.1772C32.0696 14.4913 31.0524 14.0743 29.9411 14.0743C28.1726 14.0743 26.5594 15.1326 25.8762 16.8053C25.1882 18.1139 23.9379 19.4001 22.4558 20.4649C21.6565 21.039 20.7941 21.5449 19.9198 21.9513C19.8449 21.6553 19.6794 21.1702 19.6357 20.9967C21.4275 19.922 23.1774 18.1732 24.5396 16.5944C25.3273 15.6812 25.9517 14.8224 26.4537 14.0148C27.0687 13.6991 27.6171 13.2762 28.075 12.7713C29.0561 11.6897 29.625 10.2337 29.5483 8.66044C29.4717 7.0853 28.7651 5.69123 27.6848 4.7112C26.8056 3.91353 25.6789 3.38849 24.4427 3.26097C24.1995 2.36306 23.6792 1.57799 22.9797 1.00362C21.2269 -0.434551 18.6708 -0.31752 17.0602 1.29303C15.8771 2.47615 15.4719 4.21265 15.9852 5.78359C13.5055 8.14064 14.1217 12.67 16.2714 14.8198C16.7593 15.3076 17.3226 15.7201 17.9425 16.0378C17.7166 16.4018 17.4675 16.7733 17.1788 17.154C16.2439 16.0158 15.5043 15.4918 14.5393 14.6036C14.2153 14.3709 13.8657 14.1523 13.5143 13.9909C11.5158 13.0725 10.9477 13.9946 10.3463 15.5857C9.67742 17.3571 9.08216 18.6707 8.34256 19.7102C6.94407 21.6771 4.36582 22.8941 2.29354 24.0832C0.135843 25.3204 -0.655632 27.9937 0.596575 30.1623C1.62717 31.9474 3.77311 32.7791 5.73414 32.1686L8.54959 34.4821C9.56192 35.3141 11.1198 35.2475 12.0482 34.3191C13.0195 33.3477 12.9365 31.7944 11.8751 30.923L10.328 29.6517C11.4241 29.0842 12.4249 28.7811 13.5195 28.6774C14.7927 28.5568 16.2342 28.6998 18.1144 29.0086C21.3437 29.7551 21.1689 26.5529 20.6553 24.5154C21.0516 24.4614 21.4203 24.4 21.7658 24.3425C22.937 24.1475 23.7818 24.0072 24.3942 24.4661C25.2722 25.867 26.8056 26.7216 28.4662 26.7216C30.0269 26.7216 31.4885 25.9591 32.389 24.6875C34.4204 24.5272 36 22.8193 36 20.7766C36 20.0259 35.7854 19.3203 35.4136 18.7187C35.1113 18.2293 34.7033 17.8111 34.2218 17.4957Z" fill="#27AAE1"/>
</svg>
