<svg width="35" height="27" viewBox="0 0 35 27" fill="none" xmlns="http://www.w3.org/2000/svg">
<path d="M17.3432 26.4197L13.1203 22.1962C12.8904 21.9667 12.8904 21.5937 13.1203 21.3639C13.3498 21.134 13.7228 21.134 13.9526 21.3639L17.3432 24.7545L29.2944 12.8035C29.5243 12.5737 29.8972 12.5737 30.1268 12.8035C30.3569 13.0334 30.3569 13.406 30.1268 13.6359L17.3432 26.4197Z" fill="#27AAE1"/>
<path d="M4.97615 13.8083C4.82545 13.8083 4.67476 13.751 4.55997 13.6359C4.33011 13.406 4.33011 13.0334 4.55997 12.8035L17.3432 0.0199785L21.5626 4.23907C21.7925 4.46893 21.7925 4.84155 21.5626 5.07142C21.3331 5.30128 20.9602 5.30128 20.7303 5.07142L17.3432 1.68495L5.39231 13.6359C5.27753 13.751 5.12684 13.8083 4.97615 13.8083Z" fill="#27AAE1"/>
<path d="M9.01752 22.3672L8.18518 21.5349L25.6658 4.05426L26.4982 4.8866L9.01752 22.3672Z" fill="#87ED82"/>
<path d="M27.4725 1.17726C26.4397 1.17726 25.5992 2.01755 25.5992 3.05033C25.5992 4.08369 26.4397 4.92397 27.4725 4.92397C28.5056 4.92397 29.3462 4.08369 29.3462 3.05033C29.3462 2.01755 28.5056 1.17726 27.4725 1.17726ZM27.4725 6.10126C25.7905 6.10126 24.4219 4.73267 24.4219 3.05033C24.4219 1.36828 25.7905 -2.38419e-05 27.4725 -2.38419e-05C29.1549 -2.38419e-05 30.5235 1.36828 30.5235 3.05033C30.5235 4.73267 29.1549 6.10126 27.4725 6.10126Z" fill="#87ED82"/>
<path d="M7.19852 21.4513C6.16545 21.4513 5.32487 22.2919 5.32487 23.3247C5.32487 24.3577 6.16545 25.1983 7.19852 25.1983C8.23129 25.1983 9.07188 24.3577 9.07188 23.3247C9.07188 22.2919 8.23129 21.4513 7.19852 21.4513ZM7.19852 26.3756C5.51618 26.3756 4.14758 25.007 4.14758 23.3247C4.14758 21.6426 5.51618 20.274 7.19852 20.274C8.88057 20.274 10.2492 21.6426 10.2492 23.3247C10.2492 25.007 8.88057 26.3756 7.19852 26.3756Z" fill="#87ED82"/>
<path d="M31.5586 9.19576C30.5253 9.19576 29.685 10.0363 29.685 11.0694C29.685 12.1022 30.5253 12.9428 31.5586 12.9428C32.5914 12.9428 33.432 12.1022 33.432 11.0694C33.432 10.0363 32.5914 9.19576 31.5586 9.19576ZM31.5586 14.1201C29.8763 14.1201 28.5077 12.7515 28.5077 11.0694C28.5077 9.38707 29.8763 8.01847 31.5586 8.01847C33.2407 8.01847 34.6093 9.38707 34.6093 11.0694C34.6093 12.7515 33.2407 14.1201 31.5586 14.1201Z" fill="#27AAE1"/>
<path d="M3.05064 13.0743C2.01787 13.0743 1.17729 13.9146 1.17729 14.9477C1.17729 15.9807 2.01787 16.8213 3.05064 16.8213C4.084 16.8213 4.9243 15.9807 4.9243 14.9477C4.9243 13.9146 4.084 13.0743 3.05064 13.0743ZM3.05064 17.9986C1.36859 17.9986 0 16.63 0 14.9477C0 13.2653 1.36859 11.897 3.05064 11.897C4.73298 11.897 6.10158 13.2653 6.10158 14.9477C6.10158 16.63 4.73298 17.9986 3.05064 17.9986Z" fill="#27AAE1"/>
</svg>
