<svg width="28" height="28" viewBox="0 0 28 28" fill="none" xmlns="http://www.w3.org/2000/svg">
<path fill-rule="evenodd" clip-rule="evenodd" d="M15.5997 13.1414C15.3904 13.1414 15.1812 13.0629 15.0155 12.8972C14.6929 12.5746 14.6929 12.0601 15.0155 11.7375L18.7127 8.04031C19.0353 7.71767 19.5498 7.71767 19.8724 8.04031C20.1951 8.36294 20.1951 8.87741 19.8724 9.20004L16.1752 12.8972C16.0183 13.0629 15.809 13.1414 15.5997 13.1414ZM14.0825 16.2631L20.8752 23.0558L24.6945 19.2365L24.2672 18.0855L23.5783 16.202L22.9243 14.4232L22.2355 12.5397L21.3722 10.1941L22.9592 7.99671C22.2006 6.7585 21.1368 5.72956 19.8811 5.00582L17.7361 6.55794L14.9021 5.51157L13.0187 4.81398L11.2398 4.16L9.35635 3.46241L8.48437 3.13978L4.73486 6.88929L11.6671 13.8215L10.4463 15.051H6.81017L4.98774 16.8735L8.02222 19.9079L11.0567 22.9424L12.8791 21.12V17.4838L14.0825 16.2631Z" fill="#87ED82"/>
<path fill-rule="evenodd" clip-rule="evenodd" d="M16.1839 12.8971L19.8811 9.19995C20.2038 8.87732 20.2038 8.36285 19.8811 8.04022C19.5585 7.71759 19.044 7.71759 18.7214 8.04022L15.0242 11.7374C14.7016 12.06 14.7016 12.5745 15.0242 12.8971C15.1812 13.0541 15.3992 13.1413 15.6084 13.1413C15.809 13.1413 16.0183 13.0628 16.1839 12.8971Z" fill="#27AAE1"/>
<path fill-rule="evenodd" clip-rule="evenodd" d="M4.72607 6.90668L8.47558 3.15717L6.19972 2.32007L3.17395 5.34583L4.72607 6.90668Z" fill="#27AAE1"/>
<path fill-rule="evenodd" clip-rule="evenodd" d="M9.34753 3.47985L11.231 4.17743L11.5449 3.47113C11.606 3.34033 11.6321 3.20081 11.6321 3.0613C11.6321 2.67763 11.4141 2.31139 11.0392 2.14572C10.5334 1.919 9.94048 2.14572 9.71377 2.65147L9.34753 3.47985Z" fill="#87ED82"/>
<path fill-rule="evenodd" clip-rule="evenodd" d="M13.3761 4.00296L13.0099 4.82262L14.8934 5.5202L15.2073 4.82262C15.2683 4.69182 15.2945 4.55231 15.2945 4.41279C15.2945 4.02912 15.0765 3.66289 14.7015 3.49721C14.1958 3.2705 13.6028 3.49721 13.3761 4.00296Z" fill="#87ED82"/>
<path fill-rule="evenodd" clip-rule="evenodd" d="M26.4384 0.270917L19.8724 5.01448C21.1281 5.73823 22.1919 6.76716 22.9505 8.00537L27.6505 1.49169L26.4384 0.270917Z" fill="#27AAE1"/>
<path fill-rule="evenodd" clip-rule="evenodd" d="M24.4329 12.6792C24.2672 12.3043 23.901 12.0775 23.5173 12.0775C23.3865 12.0775 23.247 12.1037 23.1162 12.1647L22.2268 12.5484L22.9157 14.4319L23.9097 13.9959C24.4242 13.7779 24.6509 13.185 24.4329 12.6792Z" fill="#87ED82"/>
<path fill-rule="evenodd" clip-rule="evenodd" d="M25.7494 16.3503C25.5837 15.9753 25.2175 15.7486 24.8338 15.7486C24.703 15.7486 24.5635 15.7748 24.4327 15.8358L23.5695 16.2108L24.2583 18.0942L25.2262 17.6757C25.7407 17.4403 25.9674 16.856 25.7494 16.3503Z" fill="#87ED82"/>
<path fill-rule="evenodd" clip-rule="evenodd" d="M25.6012 21.7216L24.6857 19.2365L20.8751 23.047L22.5755 24.7474L25.6012 21.7216Z" fill="#27AAE1"/>
<path d="M22.5755 25.0264C22.5058 25.0264 22.436 25.0002 22.3837 24.9479L13.8993 16.4635C13.7947 16.3589 13.7947 16.1845 13.8993 16.0799C14.004 15.9752 14.1784 15.9752 14.283 16.0799L22.5755 24.3724L25.2874 21.6605L21.1019 10.3074C21.067 10.2202 21.0845 10.1242 21.1368 10.0545L27.2929 1.52653L26.4122 0.628393L17.8843 6.78456C17.8145 6.83688 17.7186 6.85432 17.6314 6.81944L6.27825 2.63395L3.56639 5.3458L11.8589 13.6383C11.9635 13.743 11.9635 13.9174 11.8589 14.022C11.7543 14.1266 11.5799 14.1266 11.4752 14.022L2.98216 5.54635C2.87753 5.44172 2.87753 5.26732 2.98216 5.16268L6.01665 2.1282C6.09513 2.04972 6.19977 2.03228 6.30441 2.06716L17.6837 6.26138L26.2814 0.052887C26.3861 -0.0255909 26.543 -0.0168724 26.6302 0.0790462L27.8423 1.2911C27.9382 1.38701 27.9469 1.53525 27.8685 1.63989L21.66 10.2376L25.8542 21.6169C25.8891 21.7128 25.8629 21.8262 25.7931 21.9047L22.7587 24.9392C22.7151 24.9915 22.6453 25.0264 22.5755 25.0264Z" fill="#ACA79E"/>
<path d="M2.10137 6.68866C2.03161 6.68866 1.96185 6.6625 1.90953 6.61018C1.8049 6.50554 1.8049 6.33115 1.90953 6.22651L7.68203 0.454009C7.78667 0.349371 7.96107 0.349371 8.06571 0.454009C8.17034 0.558646 8.17034 0.733042 8.06571 0.837679L2.2932 6.61018C2.24088 6.6625 2.17113 6.68866 2.10137 6.68866Z" fill="#ACA79E"/>
<path d="M21.7907 25.8025C21.7209 25.8025 21.6512 25.7763 21.5989 25.724C21.4942 25.6194 21.4942 25.445 21.5989 25.3403L26.7959 20.1433C26.9005 20.0387 27.0749 20.0387 27.1795 20.1433C27.2842 20.248 27.2842 20.4224 27.1795 20.527L21.9825 25.724C21.9302 25.7763 21.8605 25.8025 21.7907 25.8025Z" fill="#ACA79E"/>
<path d="M20.8752 23.326C20.8054 23.326 20.7357 23.2999 20.6833 23.2476C20.5787 23.1429 20.5787 22.9685 20.6833 22.8639L24.5026 19.0446C24.6072 18.94 24.7816 18.94 24.8863 19.0446C24.9909 19.1493 24.9909 19.3237 24.8863 19.4283L21.067 23.2476C21.0147 23.2999 20.9449 23.326 20.8752 23.326Z" fill="#ACA79E"/>
<path d="M4.726 7.177C4.65624 7.177 4.58649 7.15084 4.53417 7.09852C4.42953 6.99389 4.42953 6.81949 4.53417 6.71485L8.28368 2.96534C8.38831 2.8607 8.56271 2.8607 8.66735 2.96534C8.77199 3.06998 8.77199 3.24438 8.66735 3.34901L4.91784 7.09852C4.86552 7.15084 4.79576 7.177 4.726 7.177Z" fill="#ACA79E"/>
<path d="M11.0567 23.204C10.9869 23.204 10.9172 23.1778 10.8649 23.1255L4.79589 17.0565C4.69125 16.9519 4.69125 16.7775 4.79589 16.6729L6.61832 14.8504C6.67064 14.7981 6.7404 14.7719 6.81016 14.7719H10.333L13.2802 11.8247C13.3849 11.72 13.5593 11.72 13.6639 11.8247C13.7686 11.9293 13.7686 12.1037 13.6639 12.2083L10.6294 15.2428C10.5771 15.2951 10.5073 15.3213 10.4376 15.3213H6.91479L5.37139 16.8647L11.048 22.5413L12.5914 20.9979V17.4751C12.5914 17.4053 12.6175 17.3356 12.6699 17.2832L15.7043 14.2488C15.809 14.1441 15.9834 14.1441 16.088 14.2488C16.1927 14.3534 16.1927 14.5278 16.088 14.6324L13.1407 17.5797V21.1025C13.1407 21.1723 13.1146 21.242 13.0622 21.2943L11.2398 23.1168C11.1962 23.1778 11.1265 23.204 11.0567 23.204Z" fill="#ACA79E"/>
<path d="M6.19963 21.9919C6.12988 21.9919 6.06012 21.9657 6.0078 21.9134C5.90316 21.8088 5.90316 21.6344 6.0078 21.5297L9.64395 17.8936C9.74859 17.7889 9.92299 17.7889 10.0276 17.8936C10.1323 17.9982 10.1323 18.1726 10.0276 18.2773L6.39147 21.9134C6.33915 21.9657 6.26939 21.9919 6.19963 21.9919Z" fill="#ACA79E"/>
<path d="M19.2969 8.07511C19.1574 8.07511 19.0178 8.12743 18.9045 8.23206L15.2073 11.9293C15.1027 12.0339 15.0503 12.1734 15.0503 12.3216C15.0503 12.4699 15.1114 12.6094 15.2073 12.714C15.3119 12.8187 15.4515 12.871 15.5997 12.871C15.7479 12.871 15.8874 12.81 15.9921 12.714L19.6893 9.01685C19.8985 8.79885 19.8985 8.45878 19.6893 8.24078C19.5759 8.12743 19.4364 8.07511 19.2969 8.07511ZM15.5997 13.4116C15.3032 13.4116 15.0329 13.2983 14.8236 13.089C14.3964 12.6617 14.3964 11.9641 14.8236 11.5456L18.5208 7.84839C18.9481 7.42112 19.6457 7.42112 20.0642 7.84839C20.4915 8.27566 20.4915 8.97325 20.0642 9.3918L16.367 13.089C16.1665 13.2983 15.8962 13.4116 15.5997 13.4116Z" fill="#ACA79E"/>
<path d="M1.75261 20.3788C1.68285 20.3788 1.6131 20.3526 1.56078 20.3003C1.45614 20.1957 1.45614 20.0213 1.56078 19.9166L4.79582 16.6816C4.90046 16.577 5.07485 16.577 5.17949 16.6816C5.28413 16.7862 5.28413 16.9606 5.17949 17.0653L1.94445 20.3003C1.89213 20.3526 1.82237 20.3788 1.75261 20.3788Z" fill="#ACA79E"/>
<path d="M7.81279 26.439C7.74304 26.439 7.67328 26.4129 7.62096 26.3605C7.51632 26.2559 7.51632 26.0815 7.62096 25.9769L10.856 22.7331C10.9606 22.6285 11.135 22.6285 11.2397 22.7331C11.3443 22.8378 11.3443 23.0121 11.2397 23.1168L8.00463 26.3605C7.95231 26.4129 7.88255 26.439 7.81279 26.439Z" fill="#ACA79E"/>
<path d="M0.270375 27.9301C0.200582 27.9301 0.130823 27.904 0.0785043 27.8516C-0.0261681 27.747 -0.0261681 27.5726 0.0785043 27.468L4.59536 22.9511C4.69999 22.8465 4.87439 22.8465 4.97903 22.9511C5.08366 23.0558 5.08366 23.2301 4.97903 23.3348L0.462175 27.8516C0.409821 27.904 0.340098 27.9301 0.270375 27.9301Z" fill="#ACA79E"/>
<path d="M22.9504 8.2757C22.8545 8.2757 22.7673 8.2321 22.7149 8.1449C21.9825 6.95029 20.9448 5.94751 19.7328 5.24993C19.602 5.17145 19.5584 5.00577 19.6369 4.87498C19.7153 4.74418 19.881 4.70058 20.0118 4.77906C21.3023 5.52024 22.401 6.59278 23.1858 7.85715C23.2643 7.98794 23.2207 8.15362 23.0986 8.2321C23.0463 8.25826 22.994 8.2757 22.9504 8.2757Z" fill="#ACA79E"/>
<path d="M11.231 4.44769C11.1961 4.44769 11.1525 4.43897 11.1177 4.42153C10.9781 4.36049 10.9171 4.19482 10.9781 4.06402L11.2921 3.35772C11.3357 3.2618 11.3531 3.16588 11.3531 3.06125C11.3531 2.77349 11.1874 2.5119 10.9258 2.39854C10.5596 2.23287 10.1323 2.39854 9.96664 2.76477L9.59169 3.59315C9.53066 3.73267 9.36498 3.79371 9.23418 3.73267C9.09467 3.67163 9.03363 3.50596 9.09467 3.37516L9.46962 2.54678C9.75737 1.91023 10.5073 1.62248 11.1525 1.90151C11.606 2.11079 11.9024 2.56422 11.9024 3.06125C11.9024 3.24436 11.8676 3.41876 11.7891 3.58443L11.4752 4.29074C11.4403 4.38665 11.3357 4.44769 11.231 4.44769Z" fill="#ACA79E"/>
<path d="M14.8934 5.79053C14.8585 5.79053 14.8149 5.78181 14.78 5.76437C14.6405 5.70333 14.5795 5.53765 14.6405 5.40686L14.9544 4.70927C14.998 4.61336 15.0155 4.51744 15.0155 4.4128C15.0155 4.12505 14.8498 3.86345 14.5882 3.7501C14.222 3.58442 13.7947 3.7501 13.629 4.11633L13.2628 4.93599C13.2017 5.0755 13.0361 5.13654 12.9053 5.0755C12.7745 5.01447 12.7047 4.84879 12.7658 4.71799L13.132 3.89833C13.4197 3.26179 14.1696 2.97403 14.8149 3.25307C15.2683 3.46234 15.5648 3.91577 15.5648 4.4128C15.5648 4.59592 15.5299 4.77031 15.4514 4.93599L15.1375 5.63357C15.0939 5.72949 14.998 5.79053 14.8934 5.79053Z" fill="#ACA79E"/>
<path d="M24.267 18.3558C24.1624 18.3558 24.0578 18.2947 24.0142 18.1901C23.9531 18.0506 24.0142 17.8936 24.1537 17.8326L25.1216 17.414C25.296 17.3356 25.4355 17.196 25.5053 17.0129C25.575 16.8298 25.575 16.638 25.4965 16.4549C25.3832 16.1933 25.1216 16.0189 24.8251 16.0189C24.7292 16.0189 24.6246 16.0363 24.5374 16.0799L23.6741 16.4549C23.5346 16.5159 23.3776 16.4549 23.3166 16.3153C23.2556 16.1758 23.3166 16.0189 23.4561 15.9578L24.3194 15.5829C24.485 15.5131 24.6507 15.4782 24.8251 15.4782C25.3309 15.4782 25.793 15.7747 25.9936 16.2456C26.1331 16.5595 26.1331 16.8996 26.011 17.2222C25.8889 17.5361 25.6448 17.789 25.3309 17.9198L24.363 18.3383C24.3368 18.3471 24.3019 18.3558 24.267 18.3558Z" fill="#ACA79E"/>
<path d="M22.9156 14.7021C22.811 14.7021 22.7063 14.6411 22.6627 14.5365C22.6017 14.397 22.6627 14.24 22.8022 14.179L23.7963 13.743C23.9707 13.6645 24.1102 13.525 24.18 13.3419C24.2497 13.1587 24.2497 12.9669 24.1713 12.7838C24.0579 12.5222 23.7963 12.3478 23.4998 12.3478C23.4039 12.3478 23.2993 12.3652 23.2121 12.4088L22.3227 12.7925C22.1831 12.8536 22.0262 12.7925 21.9651 12.653C21.9041 12.5135 21.9651 12.3565 22.1047 12.2955L22.9941 11.9118C23.1598 11.8421 23.3254 11.8072 23.4998 11.8072C24.0056 11.8072 24.4677 12.1037 24.6683 12.5745C24.8078 12.8884 24.8078 13.2285 24.6857 13.5511C24.5636 13.865 24.3195 14.1179 24.0056 14.2487L23.0115 14.6847C22.9941 14.6934 22.9505 14.7021 22.9156 14.7021Z" fill="#ACA79E"/>
<path d="M2.03179 12.217C1.96203 12.217 1.89227 12.1909 1.83995 12.1386C1.73532 12.0339 1.73532 11.8595 1.83995 11.7549L4.12454 9.47031C4.22918 9.36567 4.40357 9.36567 4.50821 9.47031C4.61285 9.57494 4.61285 9.74934 4.50821 9.85398L2.22362 12.1386C2.1713 12.1909 2.10155 12.217 2.03179 12.217Z" fill="#ACA79E"/>
<path d="M3.97612 14.1616C3.90637 14.1616 3.83661 14.1354 3.78429 14.0831C3.67965 13.9784 3.67965 13.804 3.78429 13.6994L6.06887 11.4148C6.17351 11.3102 6.34791 11.3102 6.45254 11.4148C6.55718 11.5195 6.55718 11.6939 6.45254 11.7985L4.16796 14.0831C4.11564 14.1354 4.04588 14.1616 3.97612 14.1616Z" fill="#ACA79E"/>
<path d="M13.7511 23.9365C13.6814 23.9365 13.6116 23.9103 13.5593 23.858C13.4547 23.7533 13.4547 23.579 13.5593 23.4743L15.8439 21.1897C15.9485 21.0851 16.1229 21.0851 16.2276 21.1897C16.3322 21.2944 16.3322 21.4688 16.2276 21.5734L13.943 23.858C13.8907 23.9103 13.8209 23.9365 13.7511 23.9365Z" fill="#ACA79E"/>
<path d="M15.6868 25.881C15.6171 25.881 15.5473 25.8548 15.495 25.8025C15.3903 25.6979 15.3903 25.5235 15.495 25.4188L17.7796 23.1342C17.8842 23.0296 18.0586 23.0296 18.1632 23.1342C18.2679 23.2389 18.2679 23.4133 18.1632 23.5179L15.8787 25.8025C15.8263 25.8548 15.7566 25.881 15.6868 25.881Z" fill="#ACA79E"/>
</svg>
