<svg width="31" height="39" viewBox="0 0 31 39" fill="none" xmlns="http://www.w3.org/2000/svg">
<path d="M12.9192 13.5116C13.6049 13.6062 14.2851 13.7003 14.9459 13.7918C14.3049 12.8848 13.47 12.7548 12.9192 13.5116ZM16.1117 13.7617C16.724 13.6891 17.3896 13.6102 18.1513 13.5201C17.402 12.751 16.5747 12.9116 16.1117 13.7617ZM16.1117 13.7617C16.724 13.6891 17.3896 13.6102 18.1513 13.5201C17.402 12.751 16.5747 12.9116 16.1117 13.7617ZM12.9192 13.5116C13.6049 13.6062 14.2851 13.7003 14.9459 13.7918C14.3049 12.8848 13.47 12.7548 12.9192 13.5116ZM12.9192 13.5116C13.6049 13.6062 14.2851 13.7003 14.9459 13.7918C14.3049 12.8848 13.47 12.7548 12.9192 13.5116ZM16.1117 13.7617C16.724 13.6891 17.3896 13.6102 18.1513 13.5201C17.402 12.751 16.5747 12.9116 16.1117 13.7617ZM25.249 25.9072C25.249 26.3803 24.8654 26.7637 24.3922 26.7637C24.3832 26.7637 24.3743 26.7637 24.3652 26.763C24.2215 27.3203 23.7368 27.7405 23.147 27.7872C23.1569 27.8805 23.162 27.9755 23.162 28.0719C23.162 29.5512 21.9628 30.7504 20.4832 30.7504C19.7514 30.7504 19.088 30.457 18.6045 29.9807V29.9805C18.9217 28.5275 19.1994 27.0643 19.4557 25.5975C19.7724 25.4657 20.1193 25.3933 20.4832 25.3933C20.977 25.3933 21.4394 25.5268 21.8366 25.7599C22.0705 25.3368 22.5204 25.0506 23.0373 25.0506C23.3215 25.0506 23.5853 25.1368 23.8039 25.2847C23.9574 25.1397 24.1643 25.0506 24.3922 25.0506C24.8654 25.0506 25.249 25.434 25.249 25.9072ZM5.45509 17.1393C5.24002 17.1393 5.0657 16.9648 5.0657 16.7499C5.0657 16.5349 5.24002 16.3606 5.45509 16.3606C5.66995 16.3606 5.84427 16.5349 5.84427 16.7499C5.84427 16.9648 5.66995 17.1393 5.45509 17.1393ZM4.45835 16.2671C4.22775 16.2671 4.02109 16.1647 3.88157 16.0031C3.74045 16.0531 3.58872 16.0801 3.43035 16.0801C2.68235 16.0801 2.07547 15.4734 2.07547 14.7254C2.07547 13.9772 2.68235 13.3705 3.43035 13.3705C4.1786 13.3705 4.78528 13.9772 4.78528 14.7254C4.78528 14.7549 4.7844 14.7841 4.78218 14.8132C5.04178 14.935 5.22141 15.1986 5.22141 15.504C5.22141 15.9255 4.87964 16.2671 4.45835 16.2671ZM19.1602 12.364C18.9899 14.3881 17.3639 15.1538 15.5003 15.2072C13.5123 15.2639 12.0511 14.0975 11.8927 12.364H19.1602ZM24.3145 23.2286C24.3145 23.4434 24.14 23.6177 23.9251 23.6177C23.7103 23.6177 23.5357 23.4434 23.5357 23.2286C23.5357 23.0135 23.7103 22.8392 23.9251 22.8392C24.14 22.8392 24.3145 23.0135 24.3145 23.2286ZM5.85999 27.7604C5.64492 27.7604 5.4706 27.5859 5.4706 27.371C5.4706 27.1562 5.64492 26.9816 5.85999 26.9816C6.07485 26.9816 6.24917 27.1562 6.24917 27.371C6.24917 27.5859 6.07485 27.7604 5.85999 27.7604ZM25.2492 21.7494C25.2572 20.7329 26.0836 19.9114 27.1021 19.9114C27.2917 19.9114 27.4751 19.94 27.6472 19.9929C27.9252 18.6657 29.1026 17.6687 30.5127 17.6687C30.6786 17.6687 30.8416 17.6825 31 17.7093C30.8689 16.3528 30.5632 15.0475 30.1058 13.8158C30.0453 13.6532 29.9824 13.4919 29.9169 13.3318C27.5949 7.67093 22.0284 3.68373 15.5311 3.68373C15.4062 3.68373 15.2819 3.68528 15.1576 3.68816C13.9498 3.71674 12.7759 3.88286 11.6511 4.17191C10.8085 4.38854 9.99338 4.67383 9.2126 5.02203C8.43735 5.3669 7.69578 5.77401 6.99363 6.23628C4.70931 7.7407 2.84562 9.83143 1.61608 12.2943C1.47232 12.5831 1.33675 12.8768 1.21051 13.1752C0.496401 14.863 0.0722308 16.7039 0 18.6342C0.571688 18.1855 1.29245 17.9179 2.07547 17.9179C3.93338 17.9179 5.43937 19.4239 5.43937 21.2818C5.43937 21.407 5.4325 21.531 5.41899 21.6524C6.14994 22.0043 6.65407 22.7521 6.65407 23.6177C6.65407 24.2293 6.40245 24.7817 5.99732 25.1773C6.17098 25.3339 6.2804 25.5612 6.2804 25.8137C6.2804 26.2868 5.89698 26.6702 5.42386 26.6702C4.95074 26.6702 4.56733 26.2868 4.56733 25.8137C4.56733 25.8077 4.56733 25.8019 4.56799 25.796C4.53676 25.7975 4.50531 25.7982 4.47385 25.7982C3.62881 25.7982 2.8959 25.3175 2.53441 24.6145C2.38446 24.6351 2.2314 24.6457 2.07547 24.6457C1.6544 24.6457 1.25147 24.5684 0.880036 24.4267C2.90163 30.1214 8.14896 34.2882 14.4245 34.7299C14.7897 34.7554 15.159 34.7684 15.5311 34.7684C16.0402 34.7684 16.543 34.7441 17.0392 34.6962C23.4611 34.0778 28.7407 29.5512 30.4713 23.5238C29.7651 23.5143 29.1197 23.2547 28.6189 22.8294C28.2835 23.3063 27.7291 23.6177 27.1021 23.6177C26.6444 23.6177 26.2258 23.4521 25.9026 23.1767C25.7458 23.3517 25.5179 23.462 25.2643 23.462C24.7912 23.462 24.4078 23.0786 24.4078 22.6055C24.4078 22.1375 24.7832 21.7574 25.2492 21.7494ZM12.9192 13.5116C13.6049 13.6062 14.2851 13.7003 14.9459 13.7918C14.3049 12.8848 13.47 12.7548 12.9192 13.5116ZM16.1117 13.7617C16.724 13.6891 17.3896 13.6102 18.1513 13.5201C17.402 12.751 16.5747 12.9116 16.1117 13.7617ZM16.1117 13.7617C16.724 13.6891 17.3896 13.6102 18.1513 13.5201C17.402 12.751 16.5747 12.9116 16.1117 13.7617ZM12.9192 13.5116C13.6049 13.6062 14.2851 13.7003 14.9459 13.7918C14.3049 12.8848 13.47 12.7548 12.9192 13.5116ZM12.9192 13.5116C13.6049 13.6062 14.2851 13.7003 14.9459 13.7918C14.3049 12.8848 13.47 12.7548 12.9192 13.5116ZM16.1117 13.7617C16.724 13.6891 17.3896 13.6102 18.1513 13.5201C17.402 12.751 16.5747 12.9116 16.1117 13.7617ZM16.1117 13.7617C16.724 13.6891 17.3896 13.6102 18.1513 13.5201C17.402 12.751 16.5747 12.9116 16.1117 13.7617ZM12.9192 13.5116C13.6049 13.6062 14.2851 13.7003 14.9459 13.7918C14.3049 12.8848 13.47 12.7548 12.9192 13.5116Z" fill="#27AAE1"/>
<path d="M19.4559 25.5975C19.1994 27.0643 18.9216 28.5275 18.6046 29.9805C18.1109 29.4952 17.8048 28.8194 17.8048 28.0719C17.8048 26.9564 18.4861 26.0002 19.4559 25.5975Z" fill="white"/>
<path d="M14.9458 13.7918C14.2852 13.7003 13.6049 13.6062 12.9191 13.5116C13.47 12.7545 14.3048 12.8848 14.9458 13.7918Z" fill="white"/>
<path d="M18.1515 13.52C17.3895 13.6102 16.7239 13.689 16.1119 13.7617C16.5749 12.9115 17.4019 12.751 18.1515 13.52Z" fill="white"/>
<path d="M15.5002 15.2072C13.5122 15.2639 12.051 14.0975 11.8926 12.3641H19.1601C18.9898 14.3881 17.3638 15.1538 15.5002 15.2072ZM11.8895 11.6969V15.4969L19.1466 15.2165L19.7074 11.6969H11.8895Z" fill="white"/>
<path d="M15.5002 15.2072C13.5123 15.2639 12.051 14.0975 11.8927 12.3641H19.1602C18.9898 14.3881 17.3638 15.1539 15.5002 15.2072ZM29.9168 13.3318C29.7405 13.2084 29.5659 13.0939 29.3823 12.9967C27.0194 11.7492 24.6137 11.8236 22.1723 12.7705C21.6301 12.9812 21.3074 13.2667 21.1149 13.8572C20.8949 14.5317 20.4606 15.1361 20.1192 15.7714C20.0229 15.4617 20.1223 15.2447 20.199 15.0196C20.9324 12.8749 20.9426 10.7467 19.9117 8.69628C18.9772 6.83813 17.4754 5.87749 15.3376 6.05757C13.3681 6.22325 11.9822 7.23727 11.0381 9.21238C10.9969 8.83073 10.9568 8.68631 10.9699 8.54743C11.1577 6.55594 12.6004 5.53239 14.0789 4.54185C14.5181 4.24748 14.8754 3.96972 15.1576 3.68819C16.1021 2.7466 16.2056 1.76603 15.7334 1.90735e-05H12.5895C13.6853 1.92706 12.8068 3.08882 11.651 4.17195C11.4184 4.39012 11.1746 4.60476 10.9331 4.82227C10.0877 5.58312 9.75521 6.6246 9.76252 7.76466C9.76539 8.16468 9.76318 8.56471 9.76318 8.96496C9.64756 8.98069 9.53171 8.99641 9.41631 9.01214C9.2668 7.97796 8.91595 6.92274 9.02293 5.91581C9.0546 5.61523 9.12283 5.31842 9.21253 5.02206C9.43669 4.28314 9.79663 3.54776 10.07 2.76809C9.36293 2.83698 8.59965 2.87729 7.85076 3.00487C7.63391 3.04186 7.33024 3.30057 7.28638 3.50501C7.09057 4.41692 6.94815 5.33902 6.99356 6.23631C7.03808 7.1212 7.26556 7.98195 7.80314 8.78665C8.4302 9.72514 9.34809 10.4685 10.1349 11.2998C10.3061 11.4812 10.5936 11.6431 10.6284 11.8473C10.8319 13.0439 10.9757 14.2497 11.1712 15.6826C10.7805 15.011 10.3183 14.531 10.2166 13.9837C9.92665 12.4214 8.75248 11.9492 7.4906 11.706C6.37668 11.4914 5.2023 11.4207 4.0711 11.5058C3.21545 11.5702 2.39325 11.8001 1.61601 12.2943C1.25184 12.5258 0.897889 12.8151 0.55481 13.1728C0.800673 13.1728 1.0155 13.1739 1.21045 13.1752C1.5294 13.177 1.79673 13.1781 2.06366 13.1712C5.14161 13.0908 7.2567 14.4982 8.39387 17.3367C8.83089 18.4272 9.15583 19.5637 9.50956 20.6862C9.69584 21.2768 10.0106 21.5727 10.6839 21.5647C11.7881 21.5519 12.7022 21.9968 13.3127 22.8724C12.3494 22.7816 11.3803 22.5984 10.4155 22.6179C8.40894 22.6591 6.76209 24.0479 6.7076 25.8051C6.65201 27.6081 7.3577 29.1738 8.95825 30.0815C9.91269 30.6224 10.9028 30.9534 11.1336 32.2228C11.1786 32.4704 11.7469 32.8423 11.9791 32.7832C12.2965 32.7025 12.6792 32.3014 12.757 31.972C12.9368 31.2105 13.2445 30.4094 12.2834 29.7728C11.9188 29.5313 11.7708 28.7911 11.7576 28.2721C11.752 28.0497 12.3877 27.5782 12.6509 27.6302C13.1884 27.7363 13.8638 27.9986 14.1296 28.4194C14.499 29.0035 14.6599 29.785 14.7068 30.4951C14.8016 31.9291 14.6909 33.34 14.4244 34.7299C14.2536 35.6197 14.0188 36.5012 13.7327 37.3742C13.6394 37.6584 13.6226 37.9676 13.5703 38.265C13.6472 38.3273 13.7242 38.3895 13.8011 38.4522C14.2251 38.1127 14.7073 37.8256 15.0619 37.4249C15.813 36.5768 16.4915 35.6689 17.0391 34.6963C17.5233 33.8362 17.9049 32.9256 18.1437 31.9614C18.3067 31.3036 18.4596 30.6437 18.6044 29.9808V29.9805C18.9216 28.5275 19.1994 27.0643 19.4556 25.5975C19.6089 24.7235 19.7544 23.8484 19.8964 22.9734C20.5727 18.8088 22.6122 15.778 26.7341 14.4479C27.7776 14.1115 28.8966 14.0111 30.1057 13.8158C30.2384 13.7947 30.3722 13.7724 30.5069 13.748C30.2989 13.6076 30.1066 13.4649 29.9168 13.3318Z" fill="#87ED82"/>
<path d="M14.9458 13.7918C14.2852 13.7003 13.6049 13.6062 12.9191 13.5116C13.47 12.7545 14.3048 12.8848 14.9458 13.7918Z" fill="#87ED82"/>
<path d="M18.1515 13.52C17.3895 13.6102 16.7239 13.689 16.1119 13.7617C16.5749 12.9115 17.4019 12.751 18.1515 13.52Z" fill="#87ED82"/>
</svg>
