<svg width="44" height="28" viewBox="0 0 44 28" fill="none" xmlns="http://www.w3.org/2000/svg">
<path d="M38.503 0.639314C40.9081 0.639314 42.8491 2.59978 42.8491 5.00764C42.8491 6.00918 42.5326 6.92549 41.9841 7.6499C41.6888 7.28765 41.3722 6.94675 40.9925 6.69107C40.3805 7.39423 39.4946 7.84171 38.503 7.84171C37.5325 7.84171 36.6464 7.39423 36.0345 6.69107C35.6548 6.94675 35.3173 7.28765 35.043 7.6499C34.4944 6.92549 34.178 6.00918 34.178 5.00764C34.178 2.59978 36.119 0.639314 38.503 0.639314ZM38.503 10.0365C41.2667 10.0365 43.4821 7.77784 43.4821 5.00764C43.4821 2.23753 41.2667 2.95639e-05 38.503 2.95639e-05C35.7602 2.95639e-05 33.545 2.23753 33.545 5.00764C33.545 7.77784 35.7602 10.0365 38.503 10.0365Z" fill="#27AAE1"/>
<path d="M34.9376 15.662C34.3469 16.3653 33.4607 16.8128 32.4692 16.8128C31.4776 16.8128 30.5916 16.3653 30.0009 15.662C29.6211 15.9391 29.2834 16.2587 29.0092 16.621C28.4608 15.8966 28.1231 14.9802 28.1231 14C28.1231 11.5708 30.0641 9.61038 32.4692 9.61038C34.8532 9.61038 36.7942 11.5708 36.7942 14C36.7942 14.9802 36.4777 15.8966 35.9293 16.621C35.6549 16.2587 35.3174 15.9391 34.9376 15.662ZM37.4272 14C37.4272 11.2298 35.2118 8.97109 32.4692 8.97109C29.7265 8.97109 27.4902 11.2298 27.4902 14C27.4902 16.7701 29.7265 19.0076 32.4692 19.0076C35.2118 19.0076 37.4272 16.7701 37.4272 14Z" fill="#27AAE1"/>
<path d="M41.9841 25.6134C41.6888 25.2297 41.3722 24.9101 40.9925 24.6331C40.3805 25.3576 39.4946 25.805 38.503 25.805C37.5325 25.805 36.6464 25.3576 36.0345 24.6331C35.6548 24.9101 35.3173 25.2297 35.043 25.6134C34.4944 24.8675 34.178 23.9513 34.178 22.971C34.178 20.5419 36.119 18.5814 38.503 18.5814C40.9081 18.5814 42.8491 20.5419 42.8491 22.971C42.8491 23.9513 42.5326 24.8675 41.9841 25.6134ZM38.503 17.9421C35.7602 17.9421 33.545 20.2008 33.545 22.971C33.545 25.7411 35.7602 27.9999 38.503 27.9999C41.2667 27.9999 43.4821 25.7411 43.4821 22.971C43.4821 20.2008 41.2667 17.9421 38.503 17.9421Z" fill="#27AAE1"/>
<path d="M10.0214 17.0046C10.781 17.7717 11.8147 18.2192 12.8906 18.2192H25.2116C25.2538 18.2192 25.296 18.2617 25.296 18.3044V26.423C25.296 26.4656 25.2538 26.5082 25.2116 26.5082H12.8906C9.64165 26.5082 6.54026 25.1871 4.24061 22.8644C2.08869 20.691 0.801742 17.8143 0.654083 14.7457H8.88215C9.00868 15.5981 9.4096 16.3866 10.0214 17.0046ZM25.2116 1.08678H12.8906C9.34626 1.08678 6.11835 2.55706 3.77646 4.92239C1.45582 7.28763 0 10.5267 0 14.1065C0 17.7077 1.45582 20.9467 3.77646 23.312C6.11835 25.6772 9.34626 27.1475 12.8906 27.1475H25.2116C25.6125 27.1475 25.9289 26.8066 25.9289 26.423V18.3044C25.9289 17.8994 25.6125 17.5799 25.2116 17.5799H12.8906C11.9624 17.5799 11.0973 17.1964 10.4645 16.5571C9.85259 15.939 9.4518 15.0654 9.4518 14.1065C9.4518 13.1688 9.85259 12.2953 10.4645 11.6773C11.0973 11.0381 11.9624 10.6545 12.8906 10.6545H25.2116C25.6125 10.6545 25.9289 10.3349 25.9289 9.9299V1.81138C25.9289 1.42777 25.6125 1.08678 25.2116 1.08678Z" fill="#27AAE1"/>
<path d="M38.5031 7.20239C39.9588 7.20239 41.1192 6.00914 41.1192 4.56012C41.1192 3.1111 39.9588 1.91776 38.5031 1.91776C37.0685 1.91776 35.9082 3.1111 35.9082 4.56012C35.9082 6.00914 37.0685 7.20239 38.5031 7.20239Z" fill="#87ED82"/>
<path d="M38.5031 19.8812C37.0685 19.8812 35.9082 21.0532 35.9082 22.5235C35.9082 23.9724 37.0685 25.1658 38.5031 25.1658C39.9588 25.1658 41.1192 23.9724 41.1192 22.5235C41.1192 21.0532 39.9588 19.8812 38.5031 19.8812Z" fill="#87ED82"/>
<path d="M32.4691 10.9101C31.0344 10.9101 29.853 12.0821 29.853 13.531C29.853 15.0013 31.0344 16.1734 32.4691 16.1734C33.9037 16.1734 35.0852 15.0013 35.0852 13.531C35.0852 12.0821 33.9037 10.9101 32.4691 10.9101Z" fill="#87ED82"/>
</svg>
