<svg width="35" height="35" viewBox="0 0 35 35" fill="none" xmlns="http://www.w3.org/2000/svg">
<circle cx="17.5" cy="17.5" r="17" stroke="#27AAE1"/>
<path fill-rule="evenodd" clip-rule="evenodd" d="M10.7971 17.9319H8.33078C8.03005 17.9319 7.78634 17.6882 7.78634 17.3875C7.78638 17.0869 8.03022 16.8431 8.33078 16.8431L10.7971 16.843C11.0976 16.843 11.3414 17.087 11.3414 17.3875C11.3414 17.6882 11.0978 17.9319 10.7971 17.9319ZM10.0101 16.4656H7.54443C7.24388 16.4656 6.99993 16.2217 7 15.9212C7 15.6206 7.24388 15.3768 7.5444 15.3768L10.0101 15.3767C10.3106 15.3767 10.5544 15.6206 10.5544 15.9212C10.5544 16.2217 10.3106 16.4656 10.0101 16.4656Z" fill="#87ED82"/>
<path fill-rule="evenodd" clip-rule="evenodd" d="M27.4397 22.8445H8.93529C7.9861 22.8445 7.21399 23.617 7.21399 24.5663V25.0001H29.1615V24.5663C29.1615 23.617 28.3889 22.8445 27.4397 22.8445Z" fill="#87ED82"/>
<path fill-rule="evenodd" clip-rule="evenodd" d="M24.755 12.9906C24.8781 13.0991 24.947 13.2526 24.956 13.4157C24.9652 13.5822 24.9073 13.7447 24.7953 13.8682L22.3439 16.5701C22.1729 16.7586 21.8803 16.7734 21.6908 16.6036L19.4944 14.6358C19.4117 14.5617 19.3071 14.526 19.1963 14.5324C19.0864 14.5388 18.9874 14.5879 18.9146 14.6703L18.0863 15.608C18.0836 15.6109 18.0821 15.6152 18.0823 15.6192C18.0826 15.6235 18.0848 15.6278 18.088 15.6306L21.1095 18.2481C21.3059 18.4182 21.4241 18.6558 21.4405 18.9153C21.4569 19.1733 21.3705 19.4239 21.1986 19.617L19.1556 21.9122C18.9284 22.1675 18.5323 22.1902 18.2773 21.9625C18.1542 21.8526 18.0801 21.6995 18.0705 21.5347C18.0608 21.3696 18.1169 21.2082 18.2269 21.0845L20.0702 19.0128C20.073 19.0097 20.0742 19.0056 20.0739 19.0014C20.0736 18.9973 20.0719 18.9933 20.0688 18.9905L17.2648 16.5617C17.2619 16.5594 17.2583 16.5577 17.2546 16.5577C17.2498 16.5577 17.2455 16.5594 17.2422 16.5629L12.5073 21.91C12.2805 22.1659 11.8854 22.1899 11.629 21.9639C11.5048 21.8546 11.4297 21.702 11.4195 21.5368C11.4093 21.3717 11.4647 21.2101 11.5742 21.0863L18.2551 13.5362C18.261 13.5296 18.2607 13.5198 18.254 13.5139L15.754 11.2883C15.7507 11.2853 15.7461 11.2838 15.7418 11.2841C15.7376 11.2844 15.7338 11.2866 15.7313 11.2896L13.4041 13.9766C13.2954 14.102 13.143 14.1782 12.9775 14.19C12.8124 14.2017 12.6513 14.1481 12.5261 14.0399C12.2678 13.8165 12.2392 13.4205 12.4629 13.1622L14.9854 10.25C15.1554 10.0538 15.3937 9.93589 15.6528 9.91907C15.9117 9.90225 16.1627 9.98958 16.356 10.1625L21.9237 15.1414C21.9304 15.1473 21.9402 15.1469 21.9464 15.1403L23.8739 13.0289C24.1039 12.7771 24.5039 12.7536 24.7541 12.9897C24.7544 12.99 24.7547 12.9903 24.755 12.9906Z" fill="#87ED82"/>
<path fill-rule="evenodd" clip-rule="evenodd" d="M19.338 10.1719C19.3381 11.3691 20.3127 12.3438 21.5099 12.3438C22.708 12.3437 23.6818 11.3691 23.6818 10.1719C23.6818 8.97374 22.708 8.00009 21.5099 8.00001C20.3127 8.00001 19.338 8.97374 19.338 10.1719Z" fill="#87ED82"/>
</svg>
